<?xml version="1.0" encoding="utf-8" standalone="no"?>
<!DOCTYPE svg PUBLIC "-//W3C//DTD SVG 1.1//EN"
  "http://www.w3.org/Graphics/SVG/1.1/DTD/svg11.dtd">
<svg xmlns:xlink="http://www.w3.org/1999/xlink" width="527.485pt" height="396.4675pt" viewBox="0 0 527.485 396.4675" xmlns="http://www.w3.org/2000/svg" version="1.1">
 <metadata>
  <rdf:RDF xmlns:dc="http://purl.org/dc/elements/1.1/" xmlns:cc="http://creativecommons.org/ns#" xmlns:rdf="http://www.w3.org/1999/02/22-rdf-syntax-ns#">
   <cc:Work>
    <dc:type rdf:resource="http://purl.org/dc/dcmitype/StillImage"/>
    <dc:date>2025-01-20T19:55:50.645962</dc:date>
    <dc:format>image/svg+xml</dc:format>
    <dc:creator>
     <cc:Agent>
      <dc:title>Matplotlib v3.10.0, https://matplotlib.org/</dc:title>
     </cc:Agent>
    </dc:creator>
   </cc:Work>
  </rdf:RDF>
 </metadata>
 <defs>
  <style type="text/css">*{stroke-linejoin: round; stroke-linecap: butt}</style>
 </defs>
 <g id="figure_1">
  <g id="patch_1">
   <path d="M 0 396.4675 
L 527.485 396.4675 
L 527.485 0 
L 0 0 
z
" style="fill: #ffffff"/>
  </g>
  <g id="axes_1">
   <g id="patch_2">
    <path d="M 77.485 354.3975 
L 523.885 354.3975 
L 523.885 21.7575 
L 77.485 21.7575 
z
" style="fill: #ffffff"/>
   </g>
   <g id="matplotlib.axis_1">
    <g id="xtick_1">
     <g id="line2d_1">
      <defs>
       <path id="m295ecc8fee" d="M 0 0 
L 0 -6 
" style="stroke: #000000"/>
      </defs>
      <g>
       <use xlink:href="#m295ecc8fee" x="77.485" y="354.3975" style="stroke: #000000"/>
      </g>
     </g>
     <g id="line2d_2">
      <defs>
       <path id="m942000b447" d="M 0 0 
L 0 6 
" style="stroke: #000000"/>
      </defs>
      <g>
       <use xlink:href="#m942000b447" x="77.485" y="21.7575" style="stroke: #000000"/>
      </g>
     </g>
     <g id="text_1">
      <!-- 500 -->
      <g transform="translate(62.215 370.055) scale(0.16 -0.16)">
       <defs>
        <path id="DejaVuSans-35" d="M 691 4666 
L 3169 4666 
L 3169 4134 
L 1269 4134 
L 1269 2991 
Q 1406 3038 1543 3061 
Q 1681 3084 1819 3084 
Q 2600 3084 3056 2656 
Q 3513 2228 3513 1497 
Q 3513 744 3044 326 
Q 2575 -91 1722 -91 
Q 1428 -91 1123 -41 
Q 819 9 494 109 
L 494 744 
Q 775 591 1075 516 
Q 1375 441 1709 441 
Q 2250 441 2565 725 
Q 2881 1009 2881 1497 
Q 2881 1984 2565 2268 
Q 2250 2553 1709 2553 
Q 1456 2553 1204 2497 
Q 953 2441 691 2322 
L 691 4666 
z
" transform="scale(0.015625)"/>
        <path id="DejaVuSans-30" d="M 2034 4250 
Q 1547 4250 1301 3770 
Q 1056 3291 1056 2328 
Q 1056 1369 1301 889 
Q 1547 409 2034 409 
Q 2525 409 2770 889 
Q 3016 1369 3016 2328 
Q 3016 3291 2770 3770 
Q 2525 4250 2034 4250 
z
M 2034 4750 
Q 2819 4750 3233 4129 
Q 3647 3509 3647 2328 
Q 3647 1150 3233 529 
Q 2819 -91 2034 -91 
Q 1250 -91 836 529 
Q 422 1150 422 2328 
Q 422 3509 836 4129 
Q 1250 4750 2034 4750 
z
" transform="scale(0.015625)"/>
       </defs>
       <use xlink:href="#DejaVuSans-35"/>
       <use xlink:href="#DejaVuSans-30" transform="translate(63.623047 0)"/>
       <use xlink:href="#DejaVuSans-30" transform="translate(127.246094 0)"/>
      </g>
     </g>
    </g>
    <g id="xtick_2">
     <g id="line2d_3">
      <g>
       <use xlink:href="#m295ecc8fee" x="137.005" y="354.3975" style="stroke: #000000"/>
      </g>
     </g>
     <g id="line2d_4">
      <g>
       <use xlink:href="#m942000b447" x="137.005" y="21.7575" style="stroke: #000000"/>
      </g>
     </g>
     <g id="text_2">
      <!-- 520 -->
      <g transform="translate(121.735 370.055) scale(0.16 -0.16)">
       <defs>
        <path id="DejaVuSans-32" d="M 1228 531 
L 3431 531 
L 3431 0 
L 469 0 
L 469 531 
Q 828 903 1448 1529 
Q 2069 2156 2228 2338 
Q 2531 2678 2651 2914 
Q 2772 3150 2772 3378 
Q 2772 3750 2511 3984 
Q 2250 4219 1831 4219 
Q 1534 4219 1204 4116 
Q 875 4013 500 3803 
L 500 4441 
Q 881 4594 1212 4672 
Q 1544 4750 1819 4750 
Q 2544 4750 2975 4387 
Q 3406 4025 3406 3419 
Q 3406 3131 3298 2873 
Q 3191 2616 2906 2266 
Q 2828 2175 2409 1742 
Q 1991 1309 1228 531 
z
" transform="scale(0.015625)"/>
       </defs>
       <use xlink:href="#DejaVuSans-35"/>
       <use xlink:href="#DejaVuSans-32" transform="translate(63.623047 0)"/>
       <use xlink:href="#DejaVuSans-30" transform="translate(127.246094 0)"/>
      </g>
     </g>
    </g>
    <g id="xtick_3">
     <g id="line2d_5">
      <g>
       <use xlink:href="#m295ecc8fee" x="196.525" y="354.3975" style="stroke: #000000"/>
      </g>
     </g>
     <g id="line2d_6">
      <g>
       <use xlink:href="#m942000b447" x="196.525" y="21.7575" style="stroke: #000000"/>
      </g>
     </g>
     <g id="text_3">
      <!-- 540 -->
      <g transform="translate(181.255 370.055) scale(0.16 -0.16)">
       <defs>
        <path id="DejaVuSans-34" d="M 2419 4116 
L 825 1625 
L 2419 1625 
L 2419 4116 
z
M 2253 4666 
L 3047 4666 
L 3047 1625 
L 3713 1625 
L 3713 1100 
L 3047 1100 
L 3047 0 
L 2419 0 
L 2419 1100 
L 313 1100 
L 313 1709 
L 2253 4666 
z
" transform="scale(0.015625)"/>
       </defs>
       <use xlink:href="#DejaVuSans-35"/>
       <use xlink:href="#DejaVuSans-34" transform="translate(63.623047 0)"/>
       <use xlink:href="#DejaVuSans-30" transform="translate(127.246094 0)"/>
      </g>
     </g>
    </g>
    <g id="xtick_4">
     <g id="line2d_7">
      <g>
       <use xlink:href="#m295ecc8fee" x="256.045" y="354.3975" style="stroke: #000000"/>
      </g>
     </g>
     <g id="line2d_8">
      <g>
       <use xlink:href="#m942000b447" x="256.045" y="21.7575" style="stroke: #000000"/>
      </g>
     </g>
     <g id="text_4">
      <!-- 560 -->
      <g transform="translate(240.775 370.055) scale(0.16 -0.16)">
       <defs>
        <path id="DejaVuSans-36" d="M 2113 2584 
Q 1688 2584 1439 2293 
Q 1191 2003 1191 1497 
Q 1191 994 1439 701 
Q 1688 409 2113 409 
Q 2538 409 2786 701 
Q 3034 994 3034 1497 
Q 3034 2003 2786 2293 
Q 2538 2584 2113 2584 
z
M 3366 4563 
L 3366 3988 
Q 3128 4100 2886 4159 
Q 2644 4219 2406 4219 
Q 1781 4219 1451 3797 
Q 1122 3375 1075 2522 
Q 1259 2794 1537 2939 
Q 1816 3084 2150 3084 
Q 2853 3084 3261 2657 
Q 3669 2231 3669 1497 
Q 3669 778 3244 343 
Q 2819 -91 2113 -91 
Q 1303 -91 875 529 
Q 447 1150 447 2328 
Q 447 3434 972 4092 
Q 1497 4750 2381 4750 
Q 2619 4750 2861 4703 
Q 3103 4656 3366 4563 
z
" transform="scale(0.015625)"/>
       </defs>
       <use xlink:href="#DejaVuSans-35"/>
       <use xlink:href="#DejaVuSans-36" transform="translate(63.623047 0)"/>
       <use xlink:href="#DejaVuSans-30" transform="translate(127.246094 0)"/>
      </g>
     </g>
    </g>
    <g id="xtick_5">
     <g id="line2d_9">
      <g>
       <use xlink:href="#m295ecc8fee" x="315.565" y="354.3975" style="stroke: #000000"/>
      </g>
     </g>
     <g id="line2d_10">
      <g>
       <use xlink:href="#m942000b447" x="315.565" y="21.7575" style="stroke: #000000"/>
      </g>
     </g>
     <g id="text_5">
      <!-- 580 -->
      <g transform="translate(300.295 370.055) scale(0.16 -0.16)">
       <defs>
        <path id="DejaVuSans-38" d="M 2034 2216 
Q 1584 2216 1326 1975 
Q 1069 1734 1069 1313 
Q 1069 891 1326 650 
Q 1584 409 2034 409 
Q 2484 409 2743 651 
Q 3003 894 3003 1313 
Q 3003 1734 2745 1975 
Q 2488 2216 2034 2216 
z
M 1403 2484 
Q 997 2584 770 2862 
Q 544 3141 544 3541 
Q 544 4100 942 4425 
Q 1341 4750 2034 4750 
Q 2731 4750 3128 4425 
Q 3525 4100 3525 3541 
Q 3525 3141 3298 2862 
Q 3072 2584 2669 2484 
Q 3125 2378 3379 2068 
Q 3634 1759 3634 1313 
Q 3634 634 3220 271 
Q 2806 -91 2034 -91 
Q 1263 -91 848 271 
Q 434 634 434 1313 
Q 434 1759 690 2068 
Q 947 2378 1403 2484 
z
M 1172 3481 
Q 1172 3119 1398 2916 
Q 1625 2713 2034 2713 
Q 2441 2713 2670 2916 
Q 2900 3119 2900 3481 
Q 2900 3844 2670 4047 
Q 2441 4250 2034 4250 
Q 1625 4250 1398 4047 
Q 1172 3844 1172 3481 
z
" transform="scale(0.015625)"/>
       </defs>
       <use xlink:href="#DejaVuSans-35"/>
       <use xlink:href="#DejaVuSans-38" transform="translate(63.623047 0)"/>
       <use xlink:href="#DejaVuSans-30" transform="translate(127.246094 0)"/>
      </g>
     </g>
    </g>
    <g id="xtick_6">
     <g id="line2d_11">
      <g>
       <use xlink:href="#m295ecc8fee" x="375.085" y="354.3975" style="stroke: #000000"/>
      </g>
     </g>
     <g id="line2d_12">
      <g>
       <use xlink:href="#m942000b447" x="375.085" y="21.7575" style="stroke: #000000"/>
      </g>
     </g>
     <g id="text_6">
      <!-- 600 -->
      <g transform="translate(359.815 370.055) scale(0.16 -0.16)">
       <use xlink:href="#DejaVuSans-36"/>
       <use xlink:href="#DejaVuSans-30" transform="translate(63.623047 0)"/>
       <use xlink:href="#DejaVuSans-30" transform="translate(127.246094 0)"/>
      </g>
     </g>
    </g>
    <g id="xtick_7">
     <g id="line2d_13">
      <g>
       <use xlink:href="#m295ecc8fee" x="434.605" y="354.3975" style="stroke: #000000"/>
      </g>
     </g>
     <g id="line2d_14">
      <g>
       <use xlink:href="#m942000b447" x="434.605" y="21.7575" style="stroke: #000000"/>
      </g>
     </g>
     <g id="text_7">
      <!-- 620 -->
      <g transform="translate(419.335 370.055) scale(0.16 -0.16)">
       <use xlink:href="#DejaVuSans-36"/>
       <use xlink:href="#DejaVuSans-32" transform="translate(63.623047 0)"/>
       <use xlink:href="#DejaVuSans-30" transform="translate(127.246094 0)"/>
      </g>
     </g>
    </g>
    <g id="xtick_8">
     <g id="line2d_15">
      <g>
       <use xlink:href="#m295ecc8fee" x="494.125" y="354.3975" style="stroke: #000000"/>
      </g>
     </g>
     <g id="line2d_16">
      <g>
       <use xlink:href="#m942000b447" x="494.125" y="21.7575" style="stroke: #000000"/>
      </g>
     </g>
     <g id="text_8">
      <!-- 640 -->
      <g transform="translate(478.855 370.055) scale(0.16 -0.16)">
       <use xlink:href="#DejaVuSans-36"/>
       <use xlink:href="#DejaVuSans-34" transform="translate(63.623047 0)"/>
       <use xlink:href="#DejaVuSans-30" transform="translate(127.246094 0)"/>
      </g>
     </g>
    </g>
    <g id="xtick_9">
     <g id="line2d_17">
      <defs>
       <path id="m27253d8750" d="M 0 0 
L 0 -3 
" style="stroke: #000000"/>
      </defs>
      <g>
       <use xlink:href="#m27253d8750" x="92.365" y="354.3975" style="stroke: #000000"/>
      </g>
     </g>
     <g id="line2d_18">
      <defs>
       <path id="mf3487bcc48" d="M 0 0 
L 0 3 
" style="stroke: #000000"/>
      </defs>
      <g>
       <use xlink:href="#mf3487bcc48" x="92.365" y="21.7575" style="stroke: #000000"/>
      </g>
     </g>
    </g>
    <g id="xtick_10">
     <g id="line2d_19">
      <g>
       <use xlink:href="#m27253d8750" x="107.245" y="354.3975" style="stroke: #000000"/>
      </g>
     </g>
     <g id="line2d_20">
      <g>
       <use xlink:href="#mf3487bcc48" x="107.245" y="21.7575" style="stroke: #000000"/>
      </g>
     </g>
    </g>
    <g id="xtick_11">
     <g id="line2d_21">
      <g>
       <use xlink:href="#m27253d8750" x="122.125" y="354.3975" style="stroke: #000000"/>
      </g>
     </g>
     <g id="line2d_22">
      <g>
       <use xlink:href="#mf3487bcc48" x="122.125" y="21.7575" style="stroke: #000000"/>
      </g>
     </g>
    </g>
    <g id="xtick_12">
     <g id="line2d_23">
      <g>
       <use xlink:href="#m27253d8750" x="151.885" y="354.3975" style="stroke: #000000"/>
      </g>
     </g>
     <g id="line2d_24">
      <g>
       <use xlink:href="#mf3487bcc48" x="151.885" y="21.7575" style="stroke: #000000"/>
      </g>
     </g>
    </g>
    <g id="xtick_13">
     <g id="line2d_25">
      <g>
       <use xlink:href="#m27253d8750" x="166.765" y="354.3975" style="stroke: #000000"/>
      </g>
     </g>
     <g id="line2d_26">
      <g>
       <use xlink:href="#mf3487bcc48" x="166.765" y="21.7575" style="stroke: #000000"/>
      </g>
     </g>
    </g>
    <g id="xtick_14">
     <g id="line2d_27">
      <g>
       <use xlink:href="#m27253d8750" x="181.645" y="354.3975" style="stroke: #000000"/>
      </g>
     </g>
     <g id="line2d_28">
      <g>
       <use xlink:href="#mf3487bcc48" x="181.645" y="21.7575" style="stroke: #000000"/>
      </g>
     </g>
    </g>
    <g id="xtick_15">
     <g id="line2d_29">
      <g>
       <use xlink:href="#m27253d8750" x="211.405" y="354.3975" style="stroke: #000000"/>
      </g>
     </g>
     <g id="line2d_30">
      <g>
       <use xlink:href="#mf3487bcc48" x="211.405" y="21.7575" style="stroke: #000000"/>
      </g>
     </g>
    </g>
    <g id="xtick_16">
     <g id="line2d_31">
      <g>
       <use xlink:href="#m27253d8750" x="226.285" y="354.3975" style="stroke: #000000"/>
      </g>
     </g>
     <g id="line2d_32">
      <g>
       <use xlink:href="#mf3487bcc48" x="226.285" y="21.7575" style="stroke: #000000"/>
      </g>
     </g>
    </g>
    <g id="xtick_17">
     <g id="line2d_33">
      <g>
       <use xlink:href="#m27253d8750" x="241.165" y="354.3975" style="stroke: #000000"/>
      </g>
     </g>
     <g id="line2d_34">
      <g>
       <use xlink:href="#mf3487bcc48" x="241.165" y="21.7575" style="stroke: #000000"/>
      </g>
     </g>
    </g>
    <g id="xtick_18">
     <g id="line2d_35">
      <g>
       <use xlink:href="#m27253d8750" x="270.925" y="354.3975" style="stroke: #000000"/>
      </g>
     </g>
     <g id="line2d_36">
      <g>
       <use xlink:href="#mf3487bcc48" x="270.925" y="21.7575" style="stroke: #000000"/>
      </g>
     </g>
    </g>
    <g id="xtick_19">
     <g id="line2d_37">
      <g>
       <use xlink:href="#m27253d8750" x="285.805" y="354.3975" style="stroke: #000000"/>
      </g>
     </g>
     <g id="line2d_38">
      <g>
       <use xlink:href="#mf3487bcc48" x="285.805" y="21.7575" style="stroke: #000000"/>
      </g>
     </g>
    </g>
    <g id="xtick_20">
     <g id="line2d_39">
      <g>
       <use xlink:href="#m27253d8750" x="300.685" y="354.3975" style="stroke: #000000"/>
      </g>
     </g>
     <g id="line2d_40">
      <g>
       <use xlink:href="#mf3487bcc48" x="300.685" y="21.7575" style="stroke: #000000"/>
      </g>
     </g>
    </g>
    <g id="xtick_21">
     <g id="line2d_41">
      <g>
       <use xlink:href="#m27253d8750" x="330.445" y="354.3975" style="stroke: #000000"/>
      </g>
     </g>
     <g id="line2d_42">
      <g>
       <use xlink:href="#mf3487bcc48" x="330.445" y="21.7575" style="stroke: #000000"/>
      </g>
     </g>
    </g>
    <g id="xtick_22">
     <g id="line2d_43">
      <g>
       <use xlink:href="#m27253d8750" x="345.325" y="354.3975" style="stroke: #000000"/>
      </g>
     </g>
     <g id="line2d_44">
      <g>
       <use xlink:href="#mf3487bcc48" x="345.325" y="21.7575" style="stroke: #000000"/>
      </g>
     </g>
    </g>
    <g id="xtick_23">
     <g id="line2d_45">
      <g>
       <use xlink:href="#m27253d8750" x="360.205" y="354.3975" style="stroke: #000000"/>
      </g>
     </g>
     <g id="line2d_46">
      <g>
       <use xlink:href="#mf3487bcc48" x="360.205" y="21.7575" style="stroke: #000000"/>
      </g>
     </g>
    </g>
    <g id="xtick_24">
     <g id="line2d_47">
      <g>
       <use xlink:href="#m27253d8750" x="389.965" y="354.3975" style="stroke: #000000"/>
      </g>
     </g>
     <g id="line2d_48">
      <g>
       <use xlink:href="#mf3487bcc48" x="389.965" y="21.7575" style="stroke: #000000"/>
      </g>
     </g>
    </g>
    <g id="xtick_25">
     <g id="line2d_49">
      <g>
       <use xlink:href="#m27253d8750" x="404.845" y="354.3975" style="stroke: #000000"/>
      </g>
     </g>
     <g id="line2d_50">
      <g>
       <use xlink:href="#mf3487bcc48" x="404.845" y="21.7575" style="stroke: #000000"/>
      </g>
     </g>
    </g>
    <g id="xtick_26">
     <g id="line2d_51">
      <g>
       <use xlink:href="#m27253d8750" x="419.725" y="354.3975" style="stroke: #000000"/>
      </g>
     </g>
     <g id="line2d_52">
      <g>
       <use xlink:href="#mf3487bcc48" x="419.725" y="21.7575" style="stroke: #000000"/>
      </g>
     </g>
    </g>
    <g id="xtick_27">
     <g id="line2d_53">
      <g>
       <use xlink:href="#m27253d8750" x="449.485" y="354.3975" style="stroke: #000000"/>
      </g>
     </g>
     <g id="line2d_54">
      <g>
       <use xlink:href="#mf3487bcc48" x="449.485" y="21.7575" style="stroke: #000000"/>
      </g>
     </g>
    </g>
    <g id="xtick_28">
     <g id="line2d_55">
      <g>
       <use xlink:href="#m27253d8750" x="464.365" y="354.3975" style="stroke: #000000"/>
      </g>
     </g>
     <g id="line2d_56">
      <g>
       <use xlink:href="#mf3487bcc48" x="464.365" y="21.7575" style="stroke: #000000"/>
      </g>
     </g>
    </g>
    <g id="xtick_29">
     <g id="line2d_57">
      <g>
       <use xlink:href="#m27253d8750" x="479.245" y="354.3975" style="stroke: #000000"/>
      </g>
     </g>
     <g id="line2d_58">
      <g>
       <use xlink:href="#mf3487bcc48" x="479.245" y="21.7575" style="stroke: #000000"/>
      </g>
     </g>
    </g>
    <g id="xtick_30">
     <g id="line2d_59">
      <g>
       <use xlink:href="#m27253d8750" x="509.005" y="354.3975" style="stroke: #000000"/>
      </g>
     </g>
     <g id="line2d_60">
      <g>
       <use xlink:href="#mf3487bcc48" x="509.005" y="21.7575" style="stroke: #000000"/>
      </g>
     </g>
    </g>
    <g id="xtick_31">
     <g id="line2d_61">
      <g>
       <use xlink:href="#m27253d8750" x="523.885" y="354.3975" style="stroke: #000000"/>
      </g>
     </g>
     <g id="line2d_62">
      <g>
       <use xlink:href="#mf3487bcc48" x="523.885" y="21.7575" style="stroke: #000000"/>
      </g>
     </g>
    </g>
    <g id="text_9">
     <!-- Wavelength (nm) -->
     <g transform="translate(231.5775 389.54) scale(0.16 -0.16)">
      <defs>
       <path id="DejaVuSans-57" d="M 213 4666 
L 850 4666 
L 1831 722 
L 2809 4666 
L 3519 4666 
L 4500 722 
L 5478 4666 
L 6119 4666 
L 4947 0 
L 4153 0 
L 3169 4050 
L 2175 0 
L 1381 0 
L 213 4666 
z
" transform="scale(0.015625)"/>
       <path id="DejaVuSans-61" d="M 2194 1759 
Q 1497 1759 1228 1600 
Q 959 1441 959 1056 
Q 959 750 1161 570 
Q 1363 391 1709 391 
Q 2188 391 2477 730 
Q 2766 1069 2766 1631 
L 2766 1759 
L 2194 1759 
z
M 3341 1997 
L 3341 0 
L 2766 0 
L 2766 531 
Q 2569 213 2275 61 
Q 1981 -91 1556 -91 
Q 1019 -91 701 211 
Q 384 513 384 1019 
Q 384 1609 779 1909 
Q 1175 2209 1959 2209 
L 2766 2209 
L 2766 2266 
Q 2766 2663 2505 2880 
Q 2244 3097 1772 3097 
Q 1472 3097 1187 3025 
Q 903 2953 641 2809 
L 641 3341 
Q 956 3463 1253 3523 
Q 1550 3584 1831 3584 
Q 2591 3584 2966 3190 
Q 3341 2797 3341 1997 
z
" transform="scale(0.015625)"/>
       <path id="DejaVuSans-76" d="M 191 3500 
L 800 3500 
L 1894 563 
L 2988 3500 
L 3597 3500 
L 2284 0 
L 1503 0 
L 191 3500 
z
" transform="scale(0.015625)"/>
       <path id="DejaVuSans-65" d="M 3597 1894 
L 3597 1613 
L 953 1613 
Q 991 1019 1311 708 
Q 1631 397 2203 397 
Q 2534 397 2845 478 
Q 3156 559 3463 722 
L 3463 178 
Q 3153 47 2828 -22 
Q 2503 -91 2169 -91 
Q 1331 -91 842 396 
Q 353 884 353 1716 
Q 353 2575 817 3079 
Q 1281 3584 2069 3584 
Q 2775 3584 3186 3129 
Q 3597 2675 3597 1894 
z
M 3022 2063 
Q 3016 2534 2758 2815 
Q 2500 3097 2075 3097 
Q 1594 3097 1305 2825 
Q 1016 2553 972 2059 
L 3022 2063 
z
" transform="scale(0.015625)"/>
       <path id="DejaVuSans-6c" d="M 603 4863 
L 1178 4863 
L 1178 0 
L 603 0 
L 603 4863 
z
" transform="scale(0.015625)"/>
       <path id="DejaVuSans-6e" d="M 3513 2113 
L 3513 0 
L 2938 0 
L 2938 2094 
Q 2938 2591 2744 2837 
Q 2550 3084 2163 3084 
Q 1697 3084 1428 2787 
Q 1159 2491 1159 1978 
L 1159 0 
L 581 0 
L 581 3500 
L 1159 3500 
L 1159 2956 
Q 1366 3272 1645 3428 
Q 1925 3584 2291 3584 
Q 2894 3584 3203 3211 
Q 3513 2838 3513 2113 
z
" transform="scale(0.015625)"/>
       <path id="DejaVuSans-67" d="M 2906 1791 
Q 2906 2416 2648 2759 
Q 2391 3103 1925 3103 
Q 1463 3103 1205 2759 
Q 947 2416 947 1791 
Q 947 1169 1205 825 
Q 1463 481 1925 481 
Q 2391 481 2648 825 
Q 2906 1169 2906 1791 
z
M 3481 434 
Q 3481 -459 3084 -895 
Q 2688 -1331 1869 -1331 
Q 1566 -1331 1297 -1286 
Q 1028 -1241 775 -1147 
L 775 -588 
Q 1028 -725 1275 -790 
Q 1522 -856 1778 -856 
Q 2344 -856 2625 -561 
Q 2906 -266 2906 331 
L 2906 616 
Q 2728 306 2450 153 
Q 2172 0 1784 0 
Q 1141 0 747 490 
Q 353 981 353 1791 
Q 353 2603 747 3093 
Q 1141 3584 1784 3584 
Q 2172 3584 2450 3431 
Q 2728 3278 2906 2969 
L 2906 3500 
L 3481 3500 
L 3481 434 
z
" transform="scale(0.015625)"/>
       <path id="DejaVuSans-74" d="M 1172 4494 
L 1172 3500 
L 2356 3500 
L 2356 3053 
L 1172 3053 
L 1172 1153 
Q 1172 725 1289 603 
Q 1406 481 1766 481 
L 2356 481 
L 2356 0 
L 1766 0 
Q 1100 0 847 248 
Q 594 497 594 1153 
L 594 3053 
L 172 3053 
L 172 3500 
L 594 3500 
L 594 4494 
L 1172 4494 
z
" transform="scale(0.015625)"/>
       <path id="DejaVuSans-68" d="M 3513 2113 
L 3513 0 
L 2938 0 
L 2938 2094 
Q 2938 2591 2744 2837 
Q 2550 3084 2163 3084 
Q 1697 3084 1428 2787 
Q 1159 2491 1159 1978 
L 1159 0 
L 581 0 
L 581 4863 
L 1159 4863 
L 1159 2956 
Q 1366 3272 1645 3428 
Q 1925 3584 2291 3584 
Q 2894 3584 3203 3211 
Q 3513 2838 3513 2113 
z
" transform="scale(0.015625)"/>
       <path id="DejaVuSans-20" transform="scale(0.015625)"/>
       <path id="DejaVuSans-28" d="M 1984 4856 
Q 1566 4138 1362 3434 
Q 1159 2731 1159 2009 
Q 1159 1288 1364 580 
Q 1569 -128 1984 -844 
L 1484 -844 
Q 1016 -109 783 600 
Q 550 1309 550 2009 
Q 550 2706 781 3412 
Q 1013 4119 1484 4856 
L 1984 4856 
z
" transform="scale(0.015625)"/>
       <path id="DejaVuSans-6d" d="M 3328 2828 
Q 3544 3216 3844 3400 
Q 4144 3584 4550 3584 
Q 5097 3584 5394 3201 
Q 5691 2819 5691 2113 
L 5691 0 
L 5113 0 
L 5113 2094 
Q 5113 2597 4934 2840 
Q 4756 3084 4391 3084 
Q 3944 3084 3684 2787 
Q 3425 2491 3425 1978 
L 3425 0 
L 2847 0 
L 2847 2094 
Q 2847 2600 2669 2842 
Q 2491 3084 2119 3084 
Q 1678 3084 1418 2786 
Q 1159 2488 1159 1978 
L 1159 0 
L 581 0 
L 581 3500 
L 1159 3500 
L 1159 2956 
Q 1356 3278 1631 3431 
Q 1906 3584 2284 3584 
Q 2666 3584 2933 3390 
Q 3200 3197 3328 2828 
z
" transform="scale(0.015625)"/>
       <path id="DejaVuSans-29" d="M 513 4856 
L 1013 4856 
Q 1481 4119 1714 3412 
Q 1947 2706 1947 2009 
Q 1947 1309 1714 600 
Q 1481 -109 1013 -844 
L 513 -844 
Q 928 -128 1133 580 
Q 1338 1288 1338 2009 
Q 1338 2731 1133 3434 
Q 928 4138 513 4856 
z
" transform="scale(0.015625)"/>
      </defs>
      <use xlink:href="#DejaVuSans-57"/>
      <use xlink:href="#DejaVuSans-61" transform="translate(92.501953 0)"/>
      <use xlink:href="#DejaVuSans-76" transform="translate(153.78125 0)"/>
      <use xlink:href="#DejaVuSans-65" transform="translate(212.960938 0)"/>
      <use xlink:href="#DejaVuSans-6c" transform="translate(274.484375 0)"/>
      <use xlink:href="#DejaVuSans-65" transform="translate(302.267578 0)"/>
      <use xlink:href="#DejaVuSans-6e" transform="translate(363.791016 0)"/>
      <use xlink:href="#DejaVuSans-67" transform="translate(427.169922 0)"/>
      <use xlink:href="#DejaVuSans-74" transform="translate(490.646484 0)"/>
      <use xlink:href="#DejaVuSans-68" transform="translate(529.855469 0)"/>
      <use xlink:href="#DejaVuSans-20" transform="translate(593.234375 0)"/>
      <use xlink:href="#DejaVuSans-28" transform="translate(625.021484 0)"/>
      <use xlink:href="#DejaVuSans-6e" transform="translate(664.035156 0)"/>
      <use xlink:href="#DejaVuSans-6d" transform="translate(727.414062 0)"/>
      <use xlink:href="#DejaVuSans-29" transform="translate(824.826172 0)"/>
     </g>
    </g>
   </g>
   <g id="matplotlib.axis_2">
    <g id="ytick_1">
     <g id="line2d_63">
      <defs>
       <path id="me7595a60ef" d="M 0 0 
L 6 0 
" style="stroke: #000000"/>
      </defs>
      <g>
       <use xlink:href="#me7595a60ef" x="77.485" y="317.662577" style="stroke: #000000"/>
      </g>
     </g>
     <g id="line2d_64">
      <defs>
       <path id="m5576ce76c3" d="M 0 0 
L -6 0 
" style="stroke: #000000"/>
      </defs>
      <g>
       <use xlink:href="#m5576ce76c3" x="523.885" y="317.662577" style="stroke: #000000"/>
      </g>
     </g>
     <g id="text_10">
      <!-- 0 -->
      <g transform="translate(63.805 323.741327) scale(0.16 -0.16)">
       <use xlink:href="#DejaVuSans-30"/>
      </g>
     </g>
    </g>
    <g id="ytick_2">
     <g id="line2d_65">
      <g>
       <use xlink:href="#me7595a60ef" x="77.485" y="274.136755" style="stroke: #000000"/>
      </g>
     </g>
     <g id="line2d_66">
      <g>
       <use xlink:href="#m5576ce76c3" x="523.885" y="274.136755" style="stroke: #000000"/>
      </g>
     </g>
     <g id="text_11">
      <!-- 10000 -->
      <g transform="translate(23.085 280.215505) scale(0.16 -0.16)">
       <defs>
        <path id="DejaVuSans-31" d="M 794 531 
L 1825 531 
L 1825 4091 
L 703 3866 
L 703 4441 
L 1819 4666 
L 2450 4666 
L 2450 531 
L 3481 531 
L 3481 0 
L 794 0 
L 794 531 
z
" transform="scale(0.015625)"/>
       </defs>
       <use xlink:href="#DejaVuSans-31"/>
       <use xlink:href="#DejaVuSans-30" transform="translate(63.623047 0)"/>
       <use xlink:href="#DejaVuSans-30" transform="translate(127.246094 0)"/>
       <use xlink:href="#DejaVuSans-30" transform="translate(190.869141 0)"/>
       <use xlink:href="#DejaVuSans-30" transform="translate(254.492188 0)"/>
      </g>
     </g>
    </g>
    <g id="ytick_3">
     <g id="line2d_67">
      <g>
       <use xlink:href="#me7595a60ef" x="77.485" y="230.610933" style="stroke: #000000"/>
      </g>
     </g>
     <g id="line2d_68">
      <g>
       <use xlink:href="#m5576ce76c3" x="523.885" y="230.610933" style="stroke: #000000"/>
      </g>
     </g>
     <g id="text_12">
      <!-- 20000 -->
      <g transform="translate(23.085 236.689683) scale(0.16 -0.16)">
       <use xlink:href="#DejaVuSans-32"/>
       <use xlink:href="#DejaVuSans-30" transform="translate(63.623047 0)"/>
       <use xlink:href="#DejaVuSans-30" transform="translate(127.246094 0)"/>
       <use xlink:href="#DejaVuSans-30" transform="translate(190.869141 0)"/>
       <use xlink:href="#DejaVuSans-30" transform="translate(254.492188 0)"/>
      </g>
     </g>
    </g>
    <g id="ytick_4">
     <g id="line2d_69">
      <g>
       <use xlink:href="#me7595a60ef" x="77.485" y="187.085111" style="stroke: #000000"/>
      </g>
     </g>
     <g id="line2d_70">
      <g>
       <use xlink:href="#m5576ce76c3" x="523.885" y="187.085111" style="stroke: #000000"/>
      </g>
     </g>
     <g id="text_13">
      <!-- 30000 -->
      <g transform="translate(23.085 193.163861) scale(0.16 -0.16)">
       <defs>
        <path id="DejaVuSans-33" d="M 2597 2516 
Q 3050 2419 3304 2112 
Q 3559 1806 3559 1356 
Q 3559 666 3084 287 
Q 2609 -91 1734 -91 
Q 1441 -91 1130 -33 
Q 819 25 488 141 
L 488 750 
Q 750 597 1062 519 
Q 1375 441 1716 441 
Q 2309 441 2620 675 
Q 2931 909 2931 1356 
Q 2931 1769 2642 2001 
Q 2353 2234 1838 2234 
L 1294 2234 
L 1294 2753 
L 1863 2753 
Q 2328 2753 2575 2939 
Q 2822 3125 2822 3475 
Q 2822 3834 2567 4026 
Q 2313 4219 1838 4219 
Q 1578 4219 1281 4162 
Q 984 4106 628 3988 
L 628 4550 
Q 988 4650 1302 4700 
Q 1616 4750 1894 4750 
Q 2613 4750 3031 4423 
Q 3450 4097 3450 3541 
Q 3450 3153 3228 2886 
Q 3006 2619 2597 2516 
z
" transform="scale(0.015625)"/>
       </defs>
       <use xlink:href="#DejaVuSans-33"/>
       <use xlink:href="#DejaVuSans-30" transform="translate(63.623047 0)"/>
       <use xlink:href="#DejaVuSans-30" transform="translate(127.246094 0)"/>
       <use xlink:href="#DejaVuSans-30" transform="translate(190.869141 0)"/>
       <use xlink:href="#DejaVuSans-30" transform="translate(254.492188 0)"/>
      </g>
     </g>
    </g>
    <g id="ytick_5">
     <g id="line2d_71">
      <g>
       <use xlink:href="#me7595a60ef" x="77.485" y="143.559289" style="stroke: #000000"/>
      </g>
     </g>
     <g id="line2d_72">
      <g>
       <use xlink:href="#m5576ce76c3" x="523.885" y="143.559289" style="stroke: #000000"/>
      </g>
     </g>
     <g id="text_14">
      <!-- 40000 -->
      <g transform="translate(23.085 149.638039) scale(0.16 -0.16)">
       <use xlink:href="#DejaVuSans-34"/>
       <use xlink:href="#DejaVuSans-30" transform="translate(63.623047 0)"/>
       <use xlink:href="#DejaVuSans-30" transform="translate(127.246094 0)"/>
       <use xlink:href="#DejaVuSans-30" transform="translate(190.869141 0)"/>
       <use xlink:href="#DejaVuSans-30" transform="translate(254.492188 0)"/>
      </g>
     </g>
    </g>
    <g id="ytick_6">
     <g id="line2d_73">
      <g>
       <use xlink:href="#me7595a60ef" x="77.485" y="100.033468" style="stroke: #000000"/>
      </g>
     </g>
     <g id="line2d_74">
      <g>
       <use xlink:href="#m5576ce76c3" x="523.885" y="100.033468" style="stroke: #000000"/>
      </g>
     </g>
     <g id="text_15">
      <!-- 50000 -->
      <g transform="translate(23.085 106.112218) scale(0.16 -0.16)">
       <use xlink:href="#DejaVuSans-35"/>
       <use xlink:href="#DejaVuSans-30" transform="translate(63.623047 0)"/>
       <use xlink:href="#DejaVuSans-30" transform="translate(127.246094 0)"/>
       <use xlink:href="#DejaVuSans-30" transform="translate(190.869141 0)"/>
       <use xlink:href="#DejaVuSans-30" transform="translate(254.492188 0)"/>
      </g>
     </g>
    </g>
    <g id="ytick_7">
     <g id="line2d_75">
      <g>
       <use xlink:href="#me7595a60ef" x="77.485" y="56.507646" style="stroke: #000000"/>
      </g>
     </g>
     <g id="line2d_76">
      <g>
       <use xlink:href="#m5576ce76c3" x="523.885" y="56.507646" style="stroke: #000000"/>
      </g>
     </g>
     <g id="text_16">
      <!-- 60000 -->
      <g transform="translate(23.085 62.586396) scale(0.16 -0.16)">
       <use xlink:href="#DejaVuSans-36"/>
       <use xlink:href="#DejaVuSans-30" transform="translate(63.623047 0)"/>
       <use xlink:href="#DejaVuSans-30" transform="translate(127.246094 0)"/>
       <use xlink:href="#DejaVuSans-30" transform="translate(190.869141 0)"/>
       <use xlink:href="#DejaVuSans-30" transform="translate(254.492188 0)"/>
      </g>
     </g>
    </g>
    <g id="ytick_8">
     <g id="line2d_77">
      <defs>
       <path id="m837406196d" d="M 0 0 
L 3 0 
" style="stroke: #000000"/>
      </defs>
      <g>
       <use xlink:href="#m837406196d" x="77.485" y="352.483234" style="stroke: #000000"/>
      </g>
     </g>
     <g id="line2d_78">
      <defs>
       <path id="mac6b1713f1" d="M 0 0 
L -3 0 
" style="stroke: #000000"/>
      </defs>
      <g>
       <use xlink:href="#mac6b1713f1" x="523.885" y="352.483234" style="stroke: #000000"/>
      </g>
     </g>
    </g>
    <g id="ytick_9">
     <g id="line2d_79">
      <g>
       <use xlink:href="#m837406196d" x="77.485" y="343.77807" style="stroke: #000000"/>
      </g>
     </g>
     <g id="line2d_80">
      <g>
       <use xlink:href="#mac6b1713f1" x="523.885" y="343.77807" style="stroke: #000000"/>
      </g>
     </g>
    </g>
    <g id="ytick_10">
     <g id="line2d_81">
      <g>
       <use xlink:href="#m837406196d" x="77.485" y="335.072906" style="stroke: #000000"/>
      </g>
     </g>
     <g id="line2d_82">
      <g>
       <use xlink:href="#mac6b1713f1" x="523.885" y="335.072906" style="stroke: #000000"/>
      </g>
     </g>
    </g>
    <g id="ytick_11">
     <g id="line2d_83">
      <g>
       <use xlink:href="#m837406196d" x="77.485" y="326.367741" style="stroke: #000000"/>
      </g>
     </g>
     <g id="line2d_84">
      <g>
       <use xlink:href="#mac6b1713f1" x="523.885" y="326.367741" style="stroke: #000000"/>
      </g>
     </g>
    </g>
    <g id="ytick_12">
     <g id="line2d_85">
      <g>
       <use xlink:href="#m837406196d" x="77.485" y="308.957412" style="stroke: #000000"/>
      </g>
     </g>
     <g id="line2d_86">
      <g>
       <use xlink:href="#mac6b1713f1" x="523.885" y="308.957412" style="stroke: #000000"/>
      </g>
     </g>
    </g>
    <g id="ytick_13">
     <g id="line2d_87">
      <g>
       <use xlink:href="#m837406196d" x="77.485" y="300.252248" style="stroke: #000000"/>
      </g>
     </g>
     <g id="line2d_88">
      <g>
       <use xlink:href="#mac6b1713f1" x="523.885" y="300.252248" style="stroke: #000000"/>
      </g>
     </g>
    </g>
    <g id="ytick_14">
     <g id="line2d_89">
      <g>
       <use xlink:href="#m837406196d" x="77.485" y="291.547084" style="stroke: #000000"/>
      </g>
     </g>
     <g id="line2d_90">
      <g>
       <use xlink:href="#mac6b1713f1" x="523.885" y="291.547084" style="stroke: #000000"/>
      </g>
     </g>
    </g>
    <g id="ytick_15">
     <g id="line2d_91">
      <g>
       <use xlink:href="#m837406196d" x="77.485" y="282.841919" style="stroke: #000000"/>
      </g>
     </g>
     <g id="line2d_92">
      <g>
       <use xlink:href="#mac6b1713f1" x="523.885" y="282.841919" style="stroke: #000000"/>
      </g>
     </g>
    </g>
    <g id="ytick_16">
     <g id="line2d_93">
      <g>
       <use xlink:href="#m837406196d" x="77.485" y="265.431591" style="stroke: #000000"/>
      </g>
     </g>
     <g id="line2d_94">
      <g>
       <use xlink:href="#mac6b1713f1" x="523.885" y="265.431591" style="stroke: #000000"/>
      </g>
     </g>
    </g>
    <g id="ytick_17">
     <g id="line2d_95">
      <g>
       <use xlink:href="#m837406196d" x="77.485" y="256.726426" style="stroke: #000000"/>
      </g>
     </g>
     <g id="line2d_96">
      <g>
       <use xlink:href="#mac6b1713f1" x="523.885" y="256.726426" style="stroke: #000000"/>
      </g>
     </g>
    </g>
    <g id="ytick_18">
     <g id="line2d_97">
      <g>
       <use xlink:href="#m837406196d" x="77.485" y="248.021262" style="stroke: #000000"/>
      </g>
     </g>
     <g id="line2d_98">
      <g>
       <use xlink:href="#mac6b1713f1" x="523.885" y="248.021262" style="stroke: #000000"/>
      </g>
     </g>
    </g>
    <g id="ytick_19">
     <g id="line2d_99">
      <g>
       <use xlink:href="#m837406196d" x="77.485" y="239.316098" style="stroke: #000000"/>
      </g>
     </g>
     <g id="line2d_100">
      <g>
       <use xlink:href="#mac6b1713f1" x="523.885" y="239.316098" style="stroke: #000000"/>
      </g>
     </g>
    </g>
    <g id="ytick_20">
     <g id="line2d_101">
      <g>
       <use xlink:href="#m837406196d" x="77.485" y="221.905769" style="stroke: #000000"/>
      </g>
     </g>
     <g id="line2d_102">
      <g>
       <use xlink:href="#mac6b1713f1" x="523.885" y="221.905769" style="stroke: #000000"/>
      </g>
     </g>
    </g>
    <g id="ytick_21">
     <g id="line2d_103">
      <g>
       <use xlink:href="#m837406196d" x="77.485" y="213.200604" style="stroke: #000000"/>
      </g>
     </g>
     <g id="line2d_104">
      <g>
       <use xlink:href="#mac6b1713f1" x="523.885" y="213.200604" style="stroke: #000000"/>
      </g>
     </g>
    </g>
    <g id="ytick_22">
     <g id="line2d_105">
      <g>
       <use xlink:href="#m837406196d" x="77.485" y="204.49544" style="stroke: #000000"/>
      </g>
     </g>
     <g id="line2d_106">
      <g>
       <use xlink:href="#mac6b1713f1" x="523.885" y="204.49544" style="stroke: #000000"/>
      </g>
     </g>
    </g>
    <g id="ytick_23">
     <g id="line2d_107">
      <g>
       <use xlink:href="#m837406196d" x="77.485" y="195.790276" style="stroke: #000000"/>
      </g>
     </g>
     <g id="line2d_108">
      <g>
       <use xlink:href="#mac6b1713f1" x="523.885" y="195.790276" style="stroke: #000000"/>
      </g>
     </g>
    </g>
    <g id="ytick_24">
     <g id="line2d_109">
      <g>
       <use xlink:href="#m837406196d" x="77.485" y="178.379947" style="stroke: #000000"/>
      </g>
     </g>
     <g id="line2d_110">
      <g>
       <use xlink:href="#mac6b1713f1" x="523.885" y="178.379947" style="stroke: #000000"/>
      </g>
     </g>
    </g>
    <g id="ytick_25">
     <g id="line2d_111">
      <g>
       <use xlink:href="#m837406196d" x="77.485" y="169.674783" style="stroke: #000000"/>
      </g>
     </g>
     <g id="line2d_112">
      <g>
       <use xlink:href="#mac6b1713f1" x="523.885" y="169.674783" style="stroke: #000000"/>
      </g>
     </g>
    </g>
    <g id="ytick_26">
     <g id="line2d_113">
      <g>
       <use xlink:href="#m837406196d" x="77.485" y="160.969618" style="stroke: #000000"/>
      </g>
     </g>
     <g id="line2d_114">
      <g>
       <use xlink:href="#mac6b1713f1" x="523.885" y="160.969618" style="stroke: #000000"/>
      </g>
     </g>
    </g>
    <g id="ytick_27">
     <g id="line2d_115">
      <g>
       <use xlink:href="#m837406196d" x="77.485" y="152.264454" style="stroke: #000000"/>
      </g>
     </g>
     <g id="line2d_116">
      <g>
       <use xlink:href="#mac6b1713f1" x="523.885" y="152.264454" style="stroke: #000000"/>
      </g>
     </g>
    </g>
    <g id="ytick_28">
     <g id="line2d_117">
      <g>
       <use xlink:href="#m837406196d" x="77.485" y="134.854125" style="stroke: #000000"/>
      </g>
     </g>
     <g id="line2d_118">
      <g>
       <use xlink:href="#mac6b1713f1" x="523.885" y="134.854125" style="stroke: #000000"/>
      </g>
     </g>
    </g>
    <g id="ytick_29">
     <g id="line2d_119">
      <g>
       <use xlink:href="#m837406196d" x="77.485" y="126.148961" style="stroke: #000000"/>
      </g>
     </g>
     <g id="line2d_120">
      <g>
       <use xlink:href="#mac6b1713f1" x="523.885" y="126.148961" style="stroke: #000000"/>
      </g>
     </g>
    </g>
    <g id="ytick_30">
     <g id="line2d_121">
      <g>
       <use xlink:href="#m837406196d" x="77.485" y="117.443796" style="stroke: #000000"/>
      </g>
     </g>
     <g id="line2d_122">
      <g>
       <use xlink:href="#mac6b1713f1" x="523.885" y="117.443796" style="stroke: #000000"/>
      </g>
     </g>
    </g>
    <g id="ytick_31">
     <g id="line2d_123">
      <g>
       <use xlink:href="#m837406196d" x="77.485" y="108.738632" style="stroke: #000000"/>
      </g>
     </g>
     <g id="line2d_124">
      <g>
       <use xlink:href="#mac6b1713f1" x="523.885" y="108.738632" style="stroke: #000000"/>
      </g>
     </g>
    </g>
    <g id="ytick_32">
     <g id="line2d_125">
      <g>
       <use xlink:href="#m837406196d" x="77.485" y="91.328303" style="stroke: #000000"/>
      </g>
     </g>
     <g id="line2d_126">
      <g>
       <use xlink:href="#mac6b1713f1" x="523.885" y="91.328303" style="stroke: #000000"/>
      </g>
     </g>
    </g>
    <g id="ytick_33">
     <g id="line2d_127">
      <g>
       <use xlink:href="#m837406196d" x="77.485" y="82.623139" style="stroke: #000000"/>
      </g>
     </g>
     <g id="line2d_128">
      <g>
       <use xlink:href="#mac6b1713f1" x="523.885" y="82.623139" style="stroke: #000000"/>
      </g>
     </g>
    </g>
    <g id="ytick_34">
     <g id="line2d_129">
      <g>
       <use xlink:href="#m837406196d" x="77.485" y="73.917974" style="stroke: #000000"/>
      </g>
     </g>
     <g id="line2d_130">
      <g>
       <use xlink:href="#mac6b1713f1" x="523.885" y="73.917974" style="stroke: #000000"/>
      </g>
     </g>
    </g>
    <g id="ytick_35">
     <g id="line2d_131">
      <g>
       <use xlink:href="#m837406196d" x="77.485" y="65.21281" style="stroke: #000000"/>
      </g>
     </g>
     <g id="line2d_132">
      <g>
       <use xlink:href="#mac6b1713f1" x="523.885" y="65.21281" style="stroke: #000000"/>
      </g>
     </g>
    </g>
    <g id="ytick_36">
     <g id="line2d_133">
      <g>
       <use xlink:href="#m837406196d" x="77.485" y="47.802481" style="stroke: #000000"/>
      </g>
     </g>
     <g id="line2d_134">
      <g>
       <use xlink:href="#mac6b1713f1" x="523.885" y="47.802481" style="stroke: #000000"/>
      </g>
     </g>
    </g>
    <g id="ytick_37">
     <g id="line2d_135">
      <g>
       <use xlink:href="#m837406196d" x="77.485" y="39.097317" style="stroke: #000000"/>
      </g>
     </g>
     <g id="line2d_136">
      <g>
       <use xlink:href="#mac6b1713f1" x="523.885" y="39.097317" style="stroke: #000000"/>
      </g>
     </g>
    </g>
    <g id="ytick_38">
     <g id="line2d_137">
      <g>
       <use xlink:href="#m837406196d" x="77.485" y="30.392153" style="stroke: #000000"/>
      </g>
     </g>
     <g id="line2d_138">
      <g>
       <use xlink:href="#mac6b1713f1" x="523.885" y="30.392153" style="stroke: #000000"/>
      </g>
     </g>
    </g>
    <g id="text_17">
     <!-- Intensity -->
     <g transform="translate(15.7575 222.8975) rotate(-90) scale(0.16 -0.16)">
      <defs>
       <path id="DejaVuSans-49" d="M 628 4666 
L 1259 4666 
L 1259 0 
L 628 0 
L 628 4666 
z
" transform="scale(0.015625)"/>
       <path id="DejaVuSans-73" d="M 2834 3397 
L 2834 2853 
Q 2591 2978 2328 3040 
Q 2066 3103 1784 3103 
Q 1356 3103 1142 2972 
Q 928 2841 928 2578 
Q 928 2378 1081 2264 
Q 1234 2150 1697 2047 
L 1894 2003 
Q 2506 1872 2764 1633 
Q 3022 1394 3022 966 
Q 3022 478 2636 193 
Q 2250 -91 1575 -91 
Q 1294 -91 989 -36 
Q 684 19 347 128 
L 347 722 
Q 666 556 975 473 
Q 1284 391 1588 391 
Q 1994 391 2212 530 
Q 2431 669 2431 922 
Q 2431 1156 2273 1281 
Q 2116 1406 1581 1522 
L 1381 1569 
Q 847 1681 609 1914 
Q 372 2147 372 2553 
Q 372 3047 722 3315 
Q 1072 3584 1716 3584 
Q 2034 3584 2315 3537 
Q 2597 3491 2834 3397 
z
" transform="scale(0.015625)"/>
       <path id="DejaVuSans-69" d="M 603 3500 
L 1178 3500 
L 1178 0 
L 603 0 
L 603 3500 
z
M 603 4863 
L 1178 4863 
L 1178 4134 
L 603 4134 
L 603 4863 
z
" transform="scale(0.015625)"/>
       <path id="DejaVuSans-79" d="M 2059 -325 
Q 1816 -950 1584 -1140 
Q 1353 -1331 966 -1331 
L 506 -1331 
L 506 -850 
L 844 -850 
Q 1081 -850 1212 -737 
Q 1344 -625 1503 -206 
L 1606 56 
L 191 3500 
L 800 3500 
L 1894 763 
L 2988 3500 
L 3597 3500 
L 2059 -325 
z
" transform="scale(0.015625)"/>
      </defs>
      <use xlink:href="#DejaVuSans-49"/>
      <use xlink:href="#DejaVuSans-6e" transform="translate(29.492188 0)"/>
      <use xlink:href="#DejaVuSans-74" transform="translate(92.871094 0)"/>
      <use xlink:href="#DejaVuSans-65" transform="translate(132.080078 0)"/>
      <use xlink:href="#DejaVuSans-6e" transform="translate(193.603516 0)"/>
      <use xlink:href="#DejaVuSans-73" transform="translate(256.982422 0)"/>
      <use xlink:href="#DejaVuSans-69" transform="translate(309.082031 0)"/>
      <use xlink:href="#DejaVuSans-74" transform="translate(336.865234 0)"/>
      <use xlink:href="#DejaVuSans-79" transform="translate(376.074219 0)"/>
     </g>
    </g>
   </g>
   <g id="line2d_139">
    <path d="M 77.352584 316.996632 
L 79.077262 317.000984 
L 80.801849 316.844291 
L 82.526345 317.249082 
L 84.25075 317.275197 
L 85.975064 316.905228 
L 87.699197 316.796413 
L 89.423239 317.014042 
L 92.871051 316.713714 
L 96.318317 316.918285 
L 98.041814 317.157677 
L 99.765221 316.226225 
L 103.211579 316.200109 
L 104.934622 316.343744 
L 108.380345 315.764851 
L 110.103115 315.647331 
L 113.548111 315.856255 
L 115.270609 315.116316 
L 116.992744 314.907392 
L 118.714879 314.506955 
L 120.437014 314.65059 
L 123.880738 313.780074 
L 125.602328 313.632086 
L 127.323918 313.231648 
L 129.045326 312.591819 
L 132.487961 312.835563 
L 134.209006 310.750676 
L 137.650914 309.592889 
L 139.371777 307.003103 
L 141.092459 306.215286 
L 142.812959 304.905158 
L 144.533459 304.112989 
L 146.253777 302.019396 
L 147.974096 301.16629 
L 149.694051 299.172808 
L 151.414187 296.173879 
L 153.133961 294.106402 
L 154.853734 289.901808 
L 156.573326 289.283741 
L 158.292918 282.654758 
L 160.012328 279.899574 
L 161.731738 271.755893 
L 163.450785 261.549087 
L 165.170014 246.980995 
L 166.888879 206.084133 
L 168.607744 36.89491 
L 172.045111 36.89491 
L 173.763613 145.208918 
L 175.482115 77.813535 
L 177.200254 36.8775 
L 184.072264 36.8775 
L 185.790039 270.04968 
L 187.507633 280.652571 
L 190.942457 288.256532 
L 192.659687 290.79844 
L 194.376918 293.710317 
L 196.093967 296.052006 
L 197.810834 296.439386 
L 199.52752 298.87248 
L 201.244205 302.250083 
L 202.960891 304.548247 
L 204.677213 304.87469 
L 206.393717 307.838799 
L 208.109857 309.305619 
L 209.825998 310.550458 
L 211.541957 312.02163 
L 214.973512 313.388341 
L 216.689289 313.140244 
L 218.404703 314.093459 
L 220.120117 314.620122 
L 221.835531 315.347003 
L 223.550582 315.024912 
L 225.265633 315.07279 
L 226.980684 314.855161 
L 228.695553 315.098906 
L 230.41024 315.708267 
L 232.124746 315.73003 
L 233.839252 315.542869 
L 235.553758 315.477581 
L 237.2679 315.834492 
L 242.409965 316.143526 
L 244.123744 316.765945 
L 245.837523 316.030359 
L 249.264537 317.057568 
L 250.977771 316.461264 
L 252.691006 316.400328 
L 254.40424 316.474322 
L 256.117111 316.879112 
L 257.829982 316.570079 
L 259.542854 316.979221 
L 262.967869 317.148972 
L 264.680377 316.883465 
L 266.392521 316.944401 
L 268.104848 317.349191 
L 274.952336 316.713714 
L 276.663936 317.022747 
L 278.375354 316.900875 
L 280.08659 317.301313 
L 283.509062 317.392717 
L 286.93099 317.074978 
L 288.641682 317.605993 
L 290.352373 317.061921 
L 292.062883 317.227319 
L 293.773211 317.236024 
L 295.483539 316.970516 
L 297.193686 317.375306 
L 298.903832 317.0271 
L 300.613797 317.17944 
L 302.32358 316.948753 
L 304.033363 317.214261 
L 305.742965 317.053215 
L 307.452385 317.166382 
L 309.161623 316.726772 
L 310.870861 317.109799 
L 312.5801 316.970516 
L 321.12393 316.918285 
L 322.83226 317.140267 
L 324.54059 316.883465 
L 326.248738 317.048863 
L 327.956887 317.101094 
L 329.664854 316.961811 
L 331.372639 317.153325 
L 333.080242 316.848644 
L 334.787846 316.983574 
L 336.495449 316.626662 
L 338.202689 316.852997 
L 339.90993 316.530905 
L 341.616988 317.301313 
L 343.324047 317.257787 
L 345.030924 317.088036 
L 346.737619 317.183793 
L 348.444314 317.397069 
L 350.150828 316.744182 
L 351.857342 317.035805 
L 355.269643 317.288255 
L 356.975793 317.000984 
L 358.681762 317.066273 
L 360.387549 316.874759 
L 362.093154 316.870407 
L 363.79876 317.29696 
L 365.504184 317.336133 
L 367.209426 317.192498 
L 368.914668 316.922638 
L 372.324789 317.231671 
L 374.029668 317.118504 
L 375.734365 317.597288 
L 377.439062 317.357896 
L 379.143396 317.562467 
L 380.847912 317.083683 
L 382.552064 317.114152 
L 384.256217 317.649519 
L 385.960187 317.288255 
L 389.367947 317.349191 
L 392.775162 317.788802 
L 394.478588 317.323075 
L 396.181832 317.671282 
L 397.885076 317.4493 
L 399.588139 317.610346 
L 401.29102 317.545057 
L 402.9939 317.070626 
L 406.399117 317.540705 
L 409.803971 317.484121 
L 411.506125 317.640814 
L 413.208279 317.344838 
L 414.910252 317.231671 
L 416.612043 317.505884 
L 418.313834 317.923732 
L 420.015443 317.183793 
L 421.716871 317.775744 
L 423.418299 317.43189 
L 426.820609 317.362249 
L 430.222557 317.732218 
L 431.923258 317.81927 
L 433.623959 317.183793 
L 435.324479 317.157677 
L 437.024816 318.028194 
L 438.725154 317.405775 
L 440.425311 317.579878 
L 442.125285 317.375306 
L 445.525053 317.806212 
L 447.224664 317.562467 
L 448.924275 317.458005 
L 450.623705 317.723513 
L 452.323135 317.349191 
L 454.022201 317.736571 
L 455.721268 317.510236 
L 459.119037 317.575525 
L 460.81774 317.980315 
L 464.214783 317.658224 
L 465.913123 317.344838 
L 467.611463 317.771391 
L 474.403006 317.54941 
L 476.100619 318.015136 
L 479.495482 317.505884 
L 481.192732 318.010783 
L 482.889801 317.444948 
L 484.586869 317.492826 
L 487.980461 317.771391 
L 489.677166 317.884559 
L 491.373689 317.636461 
L 493.070031 317.823622 
L 496.462352 317.832328 
L 498.158512 317.514589 
L 499.854309 317.923732 
L 503.245721 317.610346 
L 506.63677 317.906321 
L 508.332021 317.658224 
L 510.027092 317.614698 
L 511.722162 317.423185 
L 513.417051 317.597288 
L 515.111939 317.536352 
L 518.501172 317.867148 
L 520.195516 317.710455 
L 523.584021 317.967258 
L 525.278002 317.527647 
L 525.278002 317.527647 
" clip-path="url(#pf8b649203f)" style="fill: none; stroke: #0c5da5; stroke-width: 2; stroke-linecap: square"/>
   </g>
   <g id="line2d_140">
    <path d="M 77.352584 303.259882 
L 79.077262 303.094484 
L 80.801849 302.759335 
L 84.25075 301.057476 
L 85.975064 299.016115 
L 87.699197 297.69293 
L 89.423239 299.568893 
L 91.14719 298.559094 
L 92.871051 296.818061 
L 94.594729 295.259836 
L 96.318317 296.731009 
L 98.041814 294.258742 
L 99.765221 291.425211 
L 101.488445 287.947498 
L 103.211579 285.884374 
L 104.934622 287.285906 
L 106.657574 283.41646 
L 108.380345 281.488266 
L 110.103115 276.569848 
L 111.825704 276.89194 
L 113.548111 276.604669 
L 115.270609 274.202044 
L 116.992744 268.386994 
L 118.714879 269.361972 
L 120.437014 258.471812 
L 122.158785 259.377149 
L 125.602328 244.604485 
L 127.323918 237.888451 
L 129.045326 224.238753 
L 130.766734 211.925298 
L 132.487961 206.162479 
L 134.209006 197.418141 
L 135.930051 177.200397 
L 137.650914 159.08495 
L 139.371777 135.668058 
L 141.092459 108.660285 
L 142.812959 97.430623 
L 144.533459 61.674161 
L 146.253777 59.223657 
L 147.974096 58.897213 
L 149.694051 59.223657 
L 151.414187 58.897213 
L 153.133961 59.223657 
L 154.853734 58.897213 
L 156.573326 59.223657 
L 158.292918 58.897213 
L 160.012328 59.223657 
L 161.731738 58.897213 
L 163.450785 59.223657 
L 165.170014 58.897213 
L 166.888879 59.223657 
L 168.607744 227.625062 
L 170.326428 291.703777 
L 172.045111 297.527532 
L 173.763613 299.516662 
L 175.482115 300.08685 
L 177.200254 300.870315 
L 178.918574 301.231579 
L 180.636531 301.906229 
L 184.072264 302.402424 
L 185.790039 302.297962 
L 187.507633 303.142363 
L 189.225045 302.85074 
L 190.942457 266.084478 
L 192.659687 58.897213 
L 194.376918 59.223657 
L 196.093967 58.897213 
L 197.810834 59.223657 
L 199.52752 58.897213 
L 201.244205 59.223657 
L 202.960891 58.897213 
L 204.677213 59.223657 
L 206.393717 58.897213 
L 208.109857 59.223657 
L 209.825998 58.897213 
L 211.541957 59.223657 
L 213.257734 184.987167 
L 214.973512 187.951275 
L 216.689289 204.390978 
L 218.404703 215.955789 
L 220.120117 222.741465 
L 221.835531 253.514221 
L 223.550582 264.465317 
L 225.265633 264.286862 
L 226.980684 268.752611 
L 228.695553 265.670983 
L 230.41024 278.846249 
L 232.124746 288.021492 
L 233.839252 289.322914 
L 235.553758 280.356595 
L 237.2679 288.69179 
L 238.982043 290.772324 
L 240.696186 278.498042 
L 242.409965 272.996378 
L 244.123744 292.656992 
L 245.837523 302.824624 
L 247.551121 294.010645 
L 249.264537 291.233698 
L 250.977771 304.204393 
L 252.691006 309.466665 
L 254.40424 309.140221 
L 256.117111 315.538517 
L 257.829982 318.084777 
L 259.542854 319.999913 
L 261.255361 318.972704 
L 262.967869 319.046698 
L 264.680377 318.467805 
L 266.392521 320.300242 
L 268.104848 317.231671 
L 269.816811 322.537469 
L 271.528773 321.788825 
L 273.240555 324.609298 
L 274.952336 325.418878 
L 276.663936 326.602781 
L 278.375354 325.048909 
L 280.08659 324.700702 
L 281.797826 322.071743 
L 283.509062 326.498319 
L 285.220117 326.872641 
L 286.93099 327.960786 
L 288.641682 326.023887 
L 290.352373 326.576665 
L 292.062883 326.080471 
L 293.773211 325.301359 
L 295.483539 326.219753 
L 297.193686 324.295912 
L 298.903832 318.154419 
L 300.613797 320.056497 
L 302.32358 319.67347 
L 304.033363 315.477581 
L 305.742965 316.839939 
L 307.452385 317.767039 
L 309.161623 318.298054 
L 310.870861 321.806235 
L 312.5801 320.71809 
L 314.289156 315.873666 
L 315.998031 319.477604 
L 317.706725 318.672376 
L 319.415418 318.702844 
L 321.12393 309.906275 
L 322.83226 311.721302 
L 324.54059 312.343721 
L 326.248738 312.295843 
L 327.956887 311.494968 
L 329.664854 316.409033 
L 331.372639 316.335039 
L 333.080242 315.286067 
L 334.787846 315.891076 
L 336.495449 318.271938 
L 338.202689 317.101094 
L 339.90993 318.802953 
L 341.616988 318.924826 
L 343.324047 316.813823 
L 345.030924 321.183816 
L 346.737619 318.010783 
L 348.444314 317.201203 
L 350.150828 314.93786 
L 351.857342 314.163101 
L 353.563492 312.757217 
L 355.269643 314.829046 
L 356.975793 312.091272 
L 358.681762 313.196828 
L 360.387549 311.390506 
L 362.093154 311.621193 
L 363.79876 318.398163 
L 365.504184 317.370954 
L 367.209426 318.054309 
L 368.914668 322.350308 
L 370.619729 322.550527 
L 372.324789 322.563584 
L 374.029668 323.952058 
L 375.734365 323.225177 
L 377.439062 321.148995 
L 379.143396 323.882417 
L 380.847912 321.562491 
L 382.552064 321.771414 
L 385.960187 323.590794 
L 387.664158 322.158794 
L 389.367947 323.995584 
L 391.071555 323.943353 
L 392.775162 323.721371 
L 394.478588 323.912885 
L 396.181832 326.02824 
L 397.885076 323.965116 
L 399.588139 324.657176 
L 401.29102 325.823668 
L 402.9939 326.572313 
L 404.6966 325.349237 
L 406.399117 324.961857 
L 408.101635 323.216472 
L 409.803971 324.796459 
L 411.506125 321.936813 
L 413.208279 322.520059 
L 414.910252 328.53968 
L 416.612043 324.718113 
L 418.313834 324.339438 
L 420.015443 329.919448 
L 421.716871 325.553808 
L 423.418299 323.760545 
L 425.119545 328.530975 
L 426.820609 327.61258 
L 428.521674 325.62345 
L 430.222557 330.198014 
L 431.923258 329.610415 
L 433.623959 329.710524 
L 437.024816 330.56363 
L 438.725154 328.409102 
L 440.425311 332.443946 
L 443.82526 326.537492 
L 445.525053 330.498342 
L 447.224664 327.6474 
L 448.924275 328.113127 
L 450.623705 329.706172 
L 452.323135 329.701819 
L 454.022201 330.946658 
L 455.721268 331.460262 
L 457.420334 331.094645 
L 459.119037 332.156676 
L 460.81774 332.565818 
L 462.516443 330.341649 
L 464.214783 331.477673 
L 465.913123 331.84329 
L 467.611463 333.297052 
L 469.309439 333.048955 
L 471.007416 333.297052 
L 472.705393 333.314462 
L 474.403006 331.329685 
L 476.100619 330.742086 
L 477.798232 329.828044 
L 479.495482 330.541868 
L 481.192732 329.288324 
L 482.889801 330.289418 
L 484.586869 329.344907 
L 486.283756 330.058731 
L 487.980461 332.195849 
L 489.677166 329.762755 
L 491.373689 332.043508 
L 493.070031 330.820433 
L 494.766373 331.812822 
L 496.462352 331.982572 
L 498.158512 332.848736 
L 499.854309 332.544055 
L 501.550105 333.745368 
L 503.245721 331.808469 
L 504.941336 333.801952 
L 506.63677 332.187144 
L 508.332021 334.711641 
L 510.027092 331.016299 
L 511.722162 333.862888 
L 513.417051 331.560372 
L 515.111939 331.939046 
L 516.806465 331.273101 
L 518.501172 328.800835 
L 520.195516 330.250245 
L 521.889859 329.788871 
L 523.584021 331.542961 
L 525.278002 330.698561 
L 525.278002 330.698561 
" clip-path="url(#pf8b649203f)" style="fill: none; stroke: #00b945; stroke-width: 2; stroke-linecap: square"/>
   </g>
   <g id="patch_3">
    <path d="M 77.485 354.3975 
L 77.485 21.7575 
" style="fill: none; stroke: #000000; stroke-linejoin: miter; stroke-linecap: square"/>
   </g>
   <g id="patch_4">
    <path d="M 523.885 354.3975 
L 523.885 21.7575 
" style="fill: none; stroke: #000000; stroke-linejoin: miter; stroke-linecap: square"/>
   </g>
   <g id="patch_5">
    <path d="M 77.485 354.3975 
L 523.885 354.3975 
" style="fill: none; stroke: #000000; stroke-linejoin: miter; stroke-linecap: square"/>
   </g>
   <g id="patch_6">
    <path d="M 77.485 21.7575 
L 523.885 21.7575 
" style="fill: none; stroke: #000000; stroke-linejoin: miter; stroke-linecap: square"/>
   </g>
   <g id="text_18">
    <!-- Direct laser measurement at various alignments -->
    <g transform="translate(106.8075 15.7575) scale(0.16 -0.16)">
     <defs>
      <path id="DejaVuSans-44" d="M 1259 4147 
L 1259 519 
L 2022 519 
Q 2988 519 3436 956 
Q 3884 1394 3884 2338 
Q 3884 3275 3436 3711 
Q 2988 4147 2022 4147 
L 1259 4147 
z
M 628 4666 
L 1925 4666 
Q 3281 4666 3915 4102 
Q 4550 3538 4550 2338 
Q 4550 1131 3912 565 
Q 3275 0 1925 0 
L 628 0 
L 628 4666 
z
" transform="scale(0.015625)"/>
      <path id="DejaVuSans-72" d="M 2631 2963 
Q 2534 3019 2420 3045 
Q 2306 3072 2169 3072 
Q 1681 3072 1420 2755 
Q 1159 2438 1159 1844 
L 1159 0 
L 581 0 
L 581 3500 
L 1159 3500 
L 1159 2956 
Q 1341 3275 1631 3429 
Q 1922 3584 2338 3584 
Q 2397 3584 2469 3576 
Q 2541 3569 2628 3553 
L 2631 2963 
z
" transform="scale(0.015625)"/>
      <path id="DejaVuSans-63" d="M 3122 3366 
L 3122 2828 
Q 2878 2963 2633 3030 
Q 2388 3097 2138 3097 
Q 1578 3097 1268 2742 
Q 959 2388 959 1747 
Q 959 1106 1268 751 
Q 1578 397 2138 397 
Q 2388 397 2633 464 
Q 2878 531 3122 666 
L 3122 134 
Q 2881 22 2623 -34 
Q 2366 -91 2075 -91 
Q 1284 -91 818 406 
Q 353 903 353 1747 
Q 353 2603 823 3093 
Q 1294 3584 2113 3584 
Q 2378 3584 2631 3529 
Q 2884 3475 3122 3366 
z
" transform="scale(0.015625)"/>
      <path id="DejaVuSans-75" d="M 544 1381 
L 544 3500 
L 1119 3500 
L 1119 1403 
Q 1119 906 1312 657 
Q 1506 409 1894 409 
Q 2359 409 2629 706 
Q 2900 1003 2900 1516 
L 2900 3500 
L 3475 3500 
L 3475 0 
L 2900 0 
L 2900 538 
Q 2691 219 2414 64 
Q 2138 -91 1772 -91 
Q 1169 -91 856 284 
Q 544 659 544 1381 
z
M 1991 3584 
L 1991 3584 
z
" transform="scale(0.015625)"/>
      <path id="DejaVuSans-6f" d="M 1959 3097 
Q 1497 3097 1228 2736 
Q 959 2375 959 1747 
Q 959 1119 1226 758 
Q 1494 397 1959 397 
Q 2419 397 2687 759 
Q 2956 1122 2956 1747 
Q 2956 2369 2687 2733 
Q 2419 3097 1959 3097 
z
M 1959 3584 
Q 2709 3584 3137 3096 
Q 3566 2609 3566 1747 
Q 3566 888 3137 398 
Q 2709 -91 1959 -91 
Q 1206 -91 779 398 
Q 353 888 353 1747 
Q 353 2609 779 3096 
Q 1206 3584 1959 3584 
z
" transform="scale(0.015625)"/>
     </defs>
     <use xlink:href="#DejaVuSans-44"/>
     <use xlink:href="#DejaVuSans-69" transform="translate(77.001953 0)"/>
     <use xlink:href="#DejaVuSans-72" transform="translate(104.785156 0)"/>
     <use xlink:href="#DejaVuSans-65" transform="translate(143.648438 0)"/>
     <use xlink:href="#DejaVuSans-63" transform="translate(205.171875 0)"/>
     <use xlink:href="#DejaVuSans-74" transform="translate(260.152344 0)"/>
     <use xlink:href="#DejaVuSans-20" transform="translate(299.361328 0)"/>
     <use xlink:href="#DejaVuSans-6c" transform="translate(331.148438 0)"/>
     <use xlink:href="#DejaVuSans-61" transform="translate(358.931641 0)"/>
     <use xlink:href="#DejaVuSans-73" transform="translate(420.210938 0)"/>
     <use xlink:href="#DejaVuSans-65" transform="translate(472.310547 0)"/>
     <use xlink:href="#DejaVuSans-72" transform="translate(533.833984 0)"/>
     <use xlink:href="#DejaVuSans-20" transform="translate(574.947266 0)"/>
     <use xlink:href="#DejaVuSans-6d" transform="translate(606.734375 0)"/>
     <use xlink:href="#DejaVuSans-65" transform="translate(704.146484 0)"/>
     <use xlink:href="#DejaVuSans-61" transform="translate(765.669922 0)"/>
     <use xlink:href="#DejaVuSans-73" transform="translate(826.949219 0)"/>
     <use xlink:href="#DejaVuSans-75" transform="translate(879.048828 0)"/>
     <use xlink:href="#DejaVuSans-72" transform="translate(942.427734 0)"/>
     <use xlink:href="#DejaVuSans-65" transform="translate(981.291016 0)"/>
     <use xlink:href="#DejaVuSans-6d" transform="translate(1042.814453 0)"/>
     <use xlink:href="#DejaVuSans-65" transform="translate(1140.226562 0)"/>
     <use xlink:href="#DejaVuSans-6e" transform="translate(1201.75 0)"/>
     <use xlink:href="#DejaVuSans-74" transform="translate(1265.128906 0)"/>
     <use xlink:href="#DejaVuSans-20" transform="translate(1304.337891 0)"/>
     <use xlink:href="#DejaVuSans-61" transform="translate(1336.125 0)"/>
     <use xlink:href="#DejaVuSans-74" transform="translate(1397.404297 0)"/>
     <use xlink:href="#DejaVuSans-20" transform="translate(1436.613281 0)"/>
     <use xlink:href="#DejaVuSans-76" transform="translate(1468.400391 0)"/>
     <use xlink:href="#DejaVuSans-61" transform="translate(1527.580078 0)"/>
     <use xlink:href="#DejaVuSans-72" transform="translate(1588.859375 0)"/>
     <use xlink:href="#DejaVuSans-69" transform="translate(1629.972656 0)"/>
     <use xlink:href="#DejaVuSans-6f" transform="translate(1657.755859 0)"/>
     <use xlink:href="#DejaVuSans-75" transform="translate(1718.9375 0)"/>
     <use xlink:href="#DejaVuSans-73" transform="translate(1782.316406 0)"/>
     <use xlink:href="#DejaVuSans-20" transform="translate(1834.416016 0)"/>
     <use xlink:href="#DejaVuSans-61" transform="translate(1866.203125 0)"/>
     <use xlink:href="#DejaVuSans-6c" transform="translate(1927.482422 0)"/>
     <use xlink:href="#DejaVuSans-69" transform="translate(1955.265625 0)"/>
     <use xlink:href="#DejaVuSans-67" transform="translate(1983.048828 0)"/>
     <use xlink:href="#DejaVuSans-6e" transform="translate(2046.525391 0)"/>
     <use xlink:href="#DejaVuSans-6d" transform="translate(2109.904297 0)"/>
     <use xlink:href="#DejaVuSans-65" transform="translate(2207.316406 0)"/>
     <use xlink:href="#DejaVuSans-6e" transform="translate(2268.839844 0)"/>
     <use xlink:href="#DejaVuSans-74" transform="translate(2332.21875 0)"/>
     <use xlink:href="#DejaVuSans-73" transform="translate(2371.427734 0)"/>
    </g>
   </g>
   <g id="legend_1">
    <g id="line2d_141">
     <path d="M 334.875 42.715 
L 350.875 42.715 
L 366.875 42.715 
" style="fill: none; stroke: #0c5da5; stroke-width: 2; stroke-linecap: square"/>
    </g>
    <g id="text_19">
     <!-- ND4 + MM fiber -->
     <g transform="translate(379.675 48.315) scale(0.16 -0.16)">
      <defs>
       <path id="DejaVuSans-4e" d="M 628 4666 
L 1478 4666 
L 3547 763 
L 3547 4666 
L 4159 4666 
L 4159 0 
L 3309 0 
L 1241 3903 
L 1241 0 
L 628 0 
L 628 4666 
z
" transform="scale(0.015625)"/>
       <path id="DejaVuSans-2b" d="M 2944 4013 
L 2944 2272 
L 4684 2272 
L 4684 1741 
L 2944 1741 
L 2944 0 
L 2419 0 
L 2419 1741 
L 678 1741 
L 678 2272 
L 2419 2272 
L 2419 4013 
L 2944 4013 
z
" transform="scale(0.015625)"/>
       <path id="DejaVuSans-4d" d="M 628 4666 
L 1569 4666 
L 2759 1491 
L 3956 4666 
L 4897 4666 
L 4897 0 
L 4281 0 
L 4281 4097 
L 3078 897 
L 2444 897 
L 1241 4097 
L 1241 0 
L 628 0 
L 628 4666 
z
" transform="scale(0.015625)"/>
       <path id="DejaVuSans-66" d="M 2375 4863 
L 2375 4384 
L 1825 4384 
Q 1516 4384 1395 4259 
Q 1275 4134 1275 3809 
L 1275 3500 
L 2222 3500 
L 2222 3053 
L 1275 3053 
L 1275 0 
L 697 0 
L 697 3053 
L 147 3053 
L 147 3500 
L 697 3500 
L 697 3744 
Q 697 4328 969 4595 
Q 1241 4863 1831 4863 
L 2375 4863 
z
" transform="scale(0.015625)"/>
       <path id="DejaVuSans-62" d="M 3116 1747 
Q 3116 2381 2855 2742 
Q 2594 3103 2138 3103 
Q 1681 3103 1420 2742 
Q 1159 2381 1159 1747 
Q 1159 1113 1420 752 
Q 1681 391 2138 391 
Q 2594 391 2855 752 
Q 3116 1113 3116 1747 
z
M 1159 2969 
Q 1341 3281 1617 3432 
Q 1894 3584 2278 3584 
Q 2916 3584 3314 3078 
Q 3713 2572 3713 1747 
Q 3713 922 3314 415 
Q 2916 -91 2278 -91 
Q 1894 -91 1617 61 
Q 1341 213 1159 525 
L 1159 0 
L 581 0 
L 581 4863 
L 1159 4863 
L 1159 2969 
z
" transform="scale(0.015625)"/>
      </defs>
      <use xlink:href="#DejaVuSans-4e"/>
      <use xlink:href="#DejaVuSans-44" transform="translate(74.804688 0)"/>
      <use xlink:href="#DejaVuSans-34" transform="translate(151.806641 0)"/>
      <use xlink:href="#DejaVuSans-20" transform="translate(215.429688 0)"/>
      <use xlink:href="#DejaVuSans-2b" transform="translate(247.216797 0)"/>
      <use xlink:href="#DejaVuSans-20" transform="translate(331.005859 0)"/>
      <use xlink:href="#DejaVuSans-4d" transform="translate(362.792969 0)"/>
      <use xlink:href="#DejaVuSans-4d" transform="translate(449.072266 0)"/>
      <use xlink:href="#DejaVuSans-20" transform="translate(535.351562 0)"/>
      <use xlink:href="#DejaVuSans-66" transform="translate(567.138672 0)"/>
      <use xlink:href="#DejaVuSans-69" transform="translate(602.34375 0)"/>
      <use xlink:href="#DejaVuSans-62" transform="translate(630.126953 0)"/>
      <use xlink:href="#DejaVuSans-65" transform="translate(693.603516 0)"/>
      <use xlink:href="#DejaVuSans-72" transform="translate(755.126953 0)"/>
     </g>
    </g>
    <g id="line2d_142">
     <path d="M 334.875 66.2 
L 350.875 66.2 
L 366.875 66.2 
" style="fill: none; stroke: #00b945; stroke-width: 2; stroke-linecap: square"/>
    </g>
    <g id="text_20">
     <!-- ND4 + MM Fiber -->
     <g transform="translate(379.675 71.8) scale(0.16 -0.16)">
      <defs>
       <path id="DejaVuSans-46" d="M 628 4666 
L 3309 4666 
L 3309 4134 
L 1259 4134 
L 1259 2759 
L 3109 2759 
L 3109 2228 
L 1259 2228 
L 1259 0 
L 628 0 
L 628 4666 
z
" transform="scale(0.015625)"/>
      </defs>
      <use xlink:href="#DejaVuSans-4e"/>
      <use xlink:href="#DejaVuSans-44" transform="translate(74.804688 0)"/>
      <use xlink:href="#DejaVuSans-34" transform="translate(151.806641 0)"/>
      <use xlink:href="#DejaVuSans-20" transform="translate(215.429688 0)"/>
      <use xlink:href="#DejaVuSans-2b" transform="translate(247.216797 0)"/>
      <use xlink:href="#DejaVuSans-20" transform="translate(331.005859 0)"/>
      <use xlink:href="#DejaVuSans-4d" transform="translate(362.792969 0)"/>
      <use xlink:href="#DejaVuSans-4d" transform="translate(449.072266 0)"/>
      <use xlink:href="#DejaVuSans-20" transform="translate(535.351562 0)"/>
      <use xlink:href="#DejaVuSans-46" transform="translate(567.138672 0)"/>
      <use xlink:href="#DejaVuSans-69" transform="translate(617.408203 0)"/>
      <use xlink:href="#DejaVuSans-62" transform="translate(645.191406 0)"/>
      <use xlink:href="#DejaVuSans-65" transform="translate(708.667969 0)"/>
      <use xlink:href="#DejaVuSans-72" transform="translate(770.191406 0)"/>
     </g>
    </g>
   </g>
  </g>
 </g>
 <defs>
  <clipPath id="pf8b649203f">
   <rect x="77.485" y="21.7575" width="446.4" height="332.64"/>
  </clipPath>
 </defs>
</svg>
