<?xml version="1.0" encoding="utf-8" standalone="no"?>
<!DOCTYPE svg PUBLIC "-//W3C//DTD SVG 1.1//EN"
  "http://www.w3.org/Graphics/SVG/1.1/DTD/svg11.dtd">
<svg xmlns:xlink="http://www.w3.org/1999/xlink" width="517.3pt" height="396.4675pt" viewBox="0 0 517.3 396.4675" xmlns="http://www.w3.org/2000/svg" version="1.1">
 <metadata>
  <rdf:RDF xmlns:dc="http://purl.org/dc/elements/1.1/" xmlns:cc="http://creativecommons.org/ns#" xmlns:rdf="http://www.w3.org/1999/02/22-rdf-syntax-ns#">
   <cc:Work>
    <dc:type rdf:resource="http://purl.org/dc/dcmitype/StillImage"/>
    <dc:date>2025-01-20T19:44:18.511367</dc:date>
    <dc:format>image/svg+xml</dc:format>
    <dc:creator>
     <cc:Agent>
      <dc:title>Matplotlib v3.10.0, https://matplotlib.org/</dc:title>
     </cc:Agent>
    </dc:creator>
   </cc:Work>
  </rdf:RDF>
 </metadata>
 <defs>
  <style type="text/css">*{stroke-linejoin: round; stroke-linecap: butt}</style>
 </defs>
 <g id="figure_1">
  <g id="patch_1">
   <path d="M 0 396.4675 
L 517.3 396.4675 
L 517.3 0 
L 0 0 
z
" style="fill: #ffffff"/>
  </g>
  <g id="axes_1">
   <g id="patch_2">
    <path d="M 52.03 354.3975 
L 498.43 354.3975 
L 498.43 21.7575 
L 52.03 21.7575 
z
" style="fill: #ffffff"/>
   </g>
   <g id="matplotlib.axis_1">
    <g id="xtick_1">
     <g id="line2d_1">
      <defs>
       <path id="m999b24ea5f" d="M 0 0 
L 0 -6 
" style="stroke: #000000"/>
      </defs>
      <g>
       <use xlink:href="#m999b24ea5f" x="52.03" y="354.3975" style="stroke: #000000"/>
      </g>
     </g>
     <g id="line2d_2">
      <defs>
       <path id="m50311fb7f4" d="M 0 0 
L 0 6 
" style="stroke: #000000"/>
      </defs>
      <g>
       <use xlink:href="#m50311fb7f4" x="52.03" y="21.7575" style="stroke: #000000"/>
      </g>
     </g>
     <g id="text_1">
      <!-- 520 -->
      <g transform="translate(36.76 370.055) scale(0.16 -0.16)">
       <defs>
        <path id="DejaVuSans-35" d="M 691 4666 
L 3169 4666 
L 3169 4134 
L 1269 4134 
L 1269 2991 
Q 1406 3038 1543 3061 
Q 1681 3084 1819 3084 
Q 2600 3084 3056 2656 
Q 3513 2228 3513 1497 
Q 3513 744 3044 326 
Q 2575 -91 1722 -91 
Q 1428 -91 1123 -41 
Q 819 9 494 109 
L 494 744 
Q 775 591 1075 516 
Q 1375 441 1709 441 
Q 2250 441 2565 725 
Q 2881 1009 2881 1497 
Q 2881 1984 2565 2268 
Q 2250 2553 1709 2553 
Q 1456 2553 1204 2497 
Q 953 2441 691 2322 
L 691 4666 
z
" transform="scale(0.015625)"/>
        <path id="DejaVuSans-32" d="M 1228 531 
L 3431 531 
L 3431 0 
L 469 0 
L 469 531 
Q 828 903 1448 1529 
Q 2069 2156 2228 2338 
Q 2531 2678 2651 2914 
Q 2772 3150 2772 3378 
Q 2772 3750 2511 3984 
Q 2250 4219 1831 4219 
Q 1534 4219 1204 4116 
Q 875 4013 500 3803 
L 500 4441 
Q 881 4594 1212 4672 
Q 1544 4750 1819 4750 
Q 2544 4750 2975 4387 
Q 3406 4025 3406 3419 
Q 3406 3131 3298 2873 
Q 3191 2616 2906 2266 
Q 2828 2175 2409 1742 
Q 1991 1309 1228 531 
z
" transform="scale(0.015625)"/>
        <path id="DejaVuSans-30" d="M 2034 4250 
Q 1547 4250 1301 3770 
Q 1056 3291 1056 2328 
Q 1056 1369 1301 889 
Q 1547 409 2034 409 
Q 2525 409 2770 889 
Q 3016 1369 3016 2328 
Q 3016 3291 2770 3770 
Q 2525 4250 2034 4250 
z
M 2034 4750 
Q 2819 4750 3233 4129 
Q 3647 3509 3647 2328 
Q 3647 1150 3233 529 
Q 2819 -91 2034 -91 
Q 1250 -91 836 529 
Q 422 1150 422 2328 
Q 422 3509 836 4129 
Q 1250 4750 2034 4750 
z
" transform="scale(0.015625)"/>
       </defs>
       <use xlink:href="#DejaVuSans-35"/>
       <use xlink:href="#DejaVuSans-32" transform="translate(63.623047 0)"/>
       <use xlink:href="#DejaVuSans-30" transform="translate(127.246094 0)"/>
      </g>
     </g>
    </g>
    <g id="xtick_2">
     <g id="line2d_3">
      <g>
       <use xlink:href="#m999b24ea5f" x="141.31" y="354.3975" style="stroke: #000000"/>
      </g>
     </g>
     <g id="line2d_4">
      <g>
       <use xlink:href="#m50311fb7f4" x="141.31" y="21.7575" style="stroke: #000000"/>
      </g>
     </g>
     <g id="text_2">
      <!-- 530 -->
      <g transform="translate(126.04 370.055) scale(0.16 -0.16)">
       <defs>
        <path id="DejaVuSans-33" d="M 2597 2516 
Q 3050 2419 3304 2112 
Q 3559 1806 3559 1356 
Q 3559 666 3084 287 
Q 2609 -91 1734 -91 
Q 1441 -91 1130 -33 
Q 819 25 488 141 
L 488 750 
Q 750 597 1062 519 
Q 1375 441 1716 441 
Q 2309 441 2620 675 
Q 2931 909 2931 1356 
Q 2931 1769 2642 2001 
Q 2353 2234 1838 2234 
L 1294 2234 
L 1294 2753 
L 1863 2753 
Q 2328 2753 2575 2939 
Q 2822 3125 2822 3475 
Q 2822 3834 2567 4026 
Q 2313 4219 1838 4219 
Q 1578 4219 1281 4162 
Q 984 4106 628 3988 
L 628 4550 
Q 988 4650 1302 4700 
Q 1616 4750 1894 4750 
Q 2613 4750 3031 4423 
Q 3450 4097 3450 3541 
Q 3450 3153 3228 2886 
Q 3006 2619 2597 2516 
z
" transform="scale(0.015625)"/>
       </defs>
       <use xlink:href="#DejaVuSans-35"/>
       <use xlink:href="#DejaVuSans-33" transform="translate(63.623047 0)"/>
       <use xlink:href="#DejaVuSans-30" transform="translate(127.246094 0)"/>
      </g>
     </g>
    </g>
    <g id="xtick_3">
     <g id="line2d_5">
      <g>
       <use xlink:href="#m999b24ea5f" x="230.59" y="354.3975" style="stroke: #000000"/>
      </g>
     </g>
     <g id="line2d_6">
      <g>
       <use xlink:href="#m50311fb7f4" x="230.59" y="21.7575" style="stroke: #000000"/>
      </g>
     </g>
     <g id="text_3">
      <!-- 540 -->
      <g transform="translate(215.32 370.055) scale(0.16 -0.16)">
       <defs>
        <path id="DejaVuSans-34" d="M 2419 4116 
L 825 1625 
L 2419 1625 
L 2419 4116 
z
M 2253 4666 
L 3047 4666 
L 3047 1625 
L 3713 1625 
L 3713 1100 
L 3047 1100 
L 3047 0 
L 2419 0 
L 2419 1100 
L 313 1100 
L 313 1709 
L 2253 4666 
z
" transform="scale(0.015625)"/>
       </defs>
       <use xlink:href="#DejaVuSans-35"/>
       <use xlink:href="#DejaVuSans-34" transform="translate(63.623047 0)"/>
       <use xlink:href="#DejaVuSans-30" transform="translate(127.246094 0)"/>
      </g>
     </g>
    </g>
    <g id="xtick_4">
     <g id="line2d_7">
      <g>
       <use xlink:href="#m999b24ea5f" x="319.87" y="354.3975" style="stroke: #000000"/>
      </g>
     </g>
     <g id="line2d_8">
      <g>
       <use xlink:href="#m50311fb7f4" x="319.87" y="21.7575" style="stroke: #000000"/>
      </g>
     </g>
     <g id="text_4">
      <!-- 550 -->
      <g transform="translate(304.6 370.055) scale(0.16 -0.16)">
       <use xlink:href="#DejaVuSans-35"/>
       <use xlink:href="#DejaVuSans-35" transform="translate(63.623047 0)"/>
       <use xlink:href="#DejaVuSans-30" transform="translate(127.246094 0)"/>
      </g>
     </g>
    </g>
    <g id="xtick_5">
     <g id="line2d_9">
      <g>
       <use xlink:href="#m999b24ea5f" x="409.15" y="354.3975" style="stroke: #000000"/>
      </g>
     </g>
     <g id="line2d_10">
      <g>
       <use xlink:href="#m50311fb7f4" x="409.15" y="21.7575" style="stroke: #000000"/>
      </g>
     </g>
     <g id="text_5">
      <!-- 560 -->
      <g transform="translate(393.88 370.055) scale(0.16 -0.16)">
       <defs>
        <path id="DejaVuSans-36" d="M 2113 2584 
Q 1688 2584 1439 2293 
Q 1191 2003 1191 1497 
Q 1191 994 1439 701 
Q 1688 409 2113 409 
Q 2538 409 2786 701 
Q 3034 994 3034 1497 
Q 3034 2003 2786 2293 
Q 2538 2584 2113 2584 
z
M 3366 4563 
L 3366 3988 
Q 3128 4100 2886 4159 
Q 2644 4219 2406 4219 
Q 1781 4219 1451 3797 
Q 1122 3375 1075 2522 
Q 1259 2794 1537 2939 
Q 1816 3084 2150 3084 
Q 2853 3084 3261 2657 
Q 3669 2231 3669 1497 
Q 3669 778 3244 343 
Q 2819 -91 2113 -91 
Q 1303 -91 875 529 
Q 447 1150 447 2328 
Q 447 3434 972 4092 
Q 1497 4750 2381 4750 
Q 2619 4750 2861 4703 
Q 3103 4656 3366 4563 
z
" transform="scale(0.015625)"/>
       </defs>
       <use xlink:href="#DejaVuSans-35"/>
       <use xlink:href="#DejaVuSans-36" transform="translate(63.623047 0)"/>
       <use xlink:href="#DejaVuSans-30" transform="translate(127.246094 0)"/>
      </g>
     </g>
    </g>
    <g id="xtick_6">
     <g id="line2d_11">
      <g>
       <use xlink:href="#m999b24ea5f" x="498.43" y="354.3975" style="stroke: #000000"/>
      </g>
     </g>
     <g id="line2d_12">
      <g>
       <use xlink:href="#m50311fb7f4" x="498.43" y="21.7575" style="stroke: #000000"/>
      </g>
     </g>
     <g id="text_6">
      <!-- 570 -->
      <g transform="translate(483.16 370.055) scale(0.16 -0.16)">
       <defs>
        <path id="DejaVuSans-37" d="M 525 4666 
L 3525 4666 
L 3525 4397 
L 1831 0 
L 1172 0 
L 2766 4134 
L 525 4134 
L 525 4666 
z
" transform="scale(0.015625)"/>
       </defs>
       <use xlink:href="#DejaVuSans-35"/>
       <use xlink:href="#DejaVuSans-37" transform="translate(63.623047 0)"/>
       <use xlink:href="#DejaVuSans-30" transform="translate(127.246094 0)"/>
      </g>
     </g>
    </g>
    <g id="xtick_7">
     <g id="line2d_13">
      <defs>
       <path id="mb9a6597823" d="M 0 0 
L 0 -3 
" style="stroke: #000000"/>
      </defs>
      <g>
       <use xlink:href="#mb9a6597823" x="69.886" y="354.3975" style="stroke: #000000"/>
      </g>
     </g>
     <g id="line2d_14">
      <defs>
       <path id="m59aa3dda0a" d="M 0 0 
L 0 3 
" style="stroke: #000000"/>
      </defs>
      <g>
       <use xlink:href="#m59aa3dda0a" x="69.886" y="21.7575" style="stroke: #000000"/>
      </g>
     </g>
    </g>
    <g id="xtick_8">
     <g id="line2d_15">
      <g>
       <use xlink:href="#mb9a6597823" x="87.742" y="354.3975" style="stroke: #000000"/>
      </g>
     </g>
     <g id="line2d_16">
      <g>
       <use xlink:href="#m59aa3dda0a" x="87.742" y="21.7575" style="stroke: #000000"/>
      </g>
     </g>
    </g>
    <g id="xtick_9">
     <g id="line2d_17">
      <g>
       <use xlink:href="#mb9a6597823" x="105.598" y="354.3975" style="stroke: #000000"/>
      </g>
     </g>
     <g id="line2d_18">
      <g>
       <use xlink:href="#m59aa3dda0a" x="105.598" y="21.7575" style="stroke: #000000"/>
      </g>
     </g>
    </g>
    <g id="xtick_10">
     <g id="line2d_19">
      <g>
       <use xlink:href="#mb9a6597823" x="123.454" y="354.3975" style="stroke: #000000"/>
      </g>
     </g>
     <g id="line2d_20">
      <g>
       <use xlink:href="#m59aa3dda0a" x="123.454" y="21.7575" style="stroke: #000000"/>
      </g>
     </g>
    </g>
    <g id="xtick_11">
     <g id="line2d_21">
      <g>
       <use xlink:href="#mb9a6597823" x="159.166" y="354.3975" style="stroke: #000000"/>
      </g>
     </g>
     <g id="line2d_22">
      <g>
       <use xlink:href="#m59aa3dda0a" x="159.166" y="21.7575" style="stroke: #000000"/>
      </g>
     </g>
    </g>
    <g id="xtick_12">
     <g id="line2d_23">
      <g>
       <use xlink:href="#mb9a6597823" x="177.022" y="354.3975" style="stroke: #000000"/>
      </g>
     </g>
     <g id="line2d_24">
      <g>
       <use xlink:href="#m59aa3dda0a" x="177.022" y="21.7575" style="stroke: #000000"/>
      </g>
     </g>
    </g>
    <g id="xtick_13">
     <g id="line2d_25">
      <g>
       <use xlink:href="#mb9a6597823" x="194.878" y="354.3975" style="stroke: #000000"/>
      </g>
     </g>
     <g id="line2d_26">
      <g>
       <use xlink:href="#m59aa3dda0a" x="194.878" y="21.7575" style="stroke: #000000"/>
      </g>
     </g>
    </g>
    <g id="xtick_14">
     <g id="line2d_27">
      <g>
       <use xlink:href="#mb9a6597823" x="212.734" y="354.3975" style="stroke: #000000"/>
      </g>
     </g>
     <g id="line2d_28">
      <g>
       <use xlink:href="#m59aa3dda0a" x="212.734" y="21.7575" style="stroke: #000000"/>
      </g>
     </g>
    </g>
    <g id="xtick_15">
     <g id="line2d_29">
      <g>
       <use xlink:href="#mb9a6597823" x="248.446" y="354.3975" style="stroke: #000000"/>
      </g>
     </g>
     <g id="line2d_30">
      <g>
       <use xlink:href="#m59aa3dda0a" x="248.446" y="21.7575" style="stroke: #000000"/>
      </g>
     </g>
    </g>
    <g id="xtick_16">
     <g id="line2d_31">
      <g>
       <use xlink:href="#mb9a6597823" x="266.302" y="354.3975" style="stroke: #000000"/>
      </g>
     </g>
     <g id="line2d_32">
      <g>
       <use xlink:href="#m59aa3dda0a" x="266.302" y="21.7575" style="stroke: #000000"/>
      </g>
     </g>
    </g>
    <g id="xtick_17">
     <g id="line2d_33">
      <g>
       <use xlink:href="#mb9a6597823" x="284.158" y="354.3975" style="stroke: #000000"/>
      </g>
     </g>
     <g id="line2d_34">
      <g>
       <use xlink:href="#m59aa3dda0a" x="284.158" y="21.7575" style="stroke: #000000"/>
      </g>
     </g>
    </g>
    <g id="xtick_18">
     <g id="line2d_35">
      <g>
       <use xlink:href="#mb9a6597823" x="302.014" y="354.3975" style="stroke: #000000"/>
      </g>
     </g>
     <g id="line2d_36">
      <g>
       <use xlink:href="#m59aa3dda0a" x="302.014" y="21.7575" style="stroke: #000000"/>
      </g>
     </g>
    </g>
    <g id="xtick_19">
     <g id="line2d_37">
      <g>
       <use xlink:href="#mb9a6597823" x="337.726" y="354.3975" style="stroke: #000000"/>
      </g>
     </g>
     <g id="line2d_38">
      <g>
       <use xlink:href="#m59aa3dda0a" x="337.726" y="21.7575" style="stroke: #000000"/>
      </g>
     </g>
    </g>
    <g id="xtick_20">
     <g id="line2d_39">
      <g>
       <use xlink:href="#mb9a6597823" x="355.582" y="354.3975" style="stroke: #000000"/>
      </g>
     </g>
     <g id="line2d_40">
      <g>
       <use xlink:href="#m59aa3dda0a" x="355.582" y="21.7575" style="stroke: #000000"/>
      </g>
     </g>
    </g>
    <g id="xtick_21">
     <g id="line2d_41">
      <g>
       <use xlink:href="#mb9a6597823" x="373.438" y="354.3975" style="stroke: #000000"/>
      </g>
     </g>
     <g id="line2d_42">
      <g>
       <use xlink:href="#m59aa3dda0a" x="373.438" y="21.7575" style="stroke: #000000"/>
      </g>
     </g>
    </g>
    <g id="xtick_22">
     <g id="line2d_43">
      <g>
       <use xlink:href="#mb9a6597823" x="391.294" y="354.3975" style="stroke: #000000"/>
      </g>
     </g>
     <g id="line2d_44">
      <g>
       <use xlink:href="#m59aa3dda0a" x="391.294" y="21.7575" style="stroke: #000000"/>
      </g>
     </g>
    </g>
    <g id="xtick_23">
     <g id="line2d_45">
      <g>
       <use xlink:href="#mb9a6597823" x="427.006" y="354.3975" style="stroke: #000000"/>
      </g>
     </g>
     <g id="line2d_46">
      <g>
       <use xlink:href="#m59aa3dda0a" x="427.006" y="21.7575" style="stroke: #000000"/>
      </g>
     </g>
    </g>
    <g id="xtick_24">
     <g id="line2d_47">
      <g>
       <use xlink:href="#mb9a6597823" x="444.862" y="354.3975" style="stroke: #000000"/>
      </g>
     </g>
     <g id="line2d_48">
      <g>
       <use xlink:href="#m59aa3dda0a" x="444.862" y="21.7575" style="stroke: #000000"/>
      </g>
     </g>
    </g>
    <g id="xtick_25">
     <g id="line2d_49">
      <g>
       <use xlink:href="#mb9a6597823" x="462.718" y="354.3975" style="stroke: #000000"/>
      </g>
     </g>
     <g id="line2d_50">
      <g>
       <use xlink:href="#m59aa3dda0a" x="462.718" y="21.7575" style="stroke: #000000"/>
      </g>
     </g>
    </g>
    <g id="xtick_26">
     <g id="line2d_51">
      <g>
       <use xlink:href="#mb9a6597823" x="480.574" y="354.3975" style="stroke: #000000"/>
      </g>
     </g>
     <g id="line2d_52">
      <g>
       <use xlink:href="#m59aa3dda0a" x="480.574" y="21.7575" style="stroke: #000000"/>
      </g>
     </g>
    </g>
    <g id="text_7">
     <!-- Wavelength (nm) -->
     <g transform="translate(206.1225 389.54) scale(0.16 -0.16)">
      <defs>
       <path id="DejaVuSans-57" d="M 213 4666 
L 850 4666 
L 1831 722 
L 2809 4666 
L 3519 4666 
L 4500 722 
L 5478 4666 
L 6119 4666 
L 4947 0 
L 4153 0 
L 3169 4050 
L 2175 0 
L 1381 0 
L 213 4666 
z
" transform="scale(0.015625)"/>
       <path id="DejaVuSans-61" d="M 2194 1759 
Q 1497 1759 1228 1600 
Q 959 1441 959 1056 
Q 959 750 1161 570 
Q 1363 391 1709 391 
Q 2188 391 2477 730 
Q 2766 1069 2766 1631 
L 2766 1759 
L 2194 1759 
z
M 3341 1997 
L 3341 0 
L 2766 0 
L 2766 531 
Q 2569 213 2275 61 
Q 1981 -91 1556 -91 
Q 1019 -91 701 211 
Q 384 513 384 1019 
Q 384 1609 779 1909 
Q 1175 2209 1959 2209 
L 2766 2209 
L 2766 2266 
Q 2766 2663 2505 2880 
Q 2244 3097 1772 3097 
Q 1472 3097 1187 3025 
Q 903 2953 641 2809 
L 641 3341 
Q 956 3463 1253 3523 
Q 1550 3584 1831 3584 
Q 2591 3584 2966 3190 
Q 3341 2797 3341 1997 
z
" transform="scale(0.015625)"/>
       <path id="DejaVuSans-76" d="M 191 3500 
L 800 3500 
L 1894 563 
L 2988 3500 
L 3597 3500 
L 2284 0 
L 1503 0 
L 191 3500 
z
" transform="scale(0.015625)"/>
       <path id="DejaVuSans-65" d="M 3597 1894 
L 3597 1613 
L 953 1613 
Q 991 1019 1311 708 
Q 1631 397 2203 397 
Q 2534 397 2845 478 
Q 3156 559 3463 722 
L 3463 178 
Q 3153 47 2828 -22 
Q 2503 -91 2169 -91 
Q 1331 -91 842 396 
Q 353 884 353 1716 
Q 353 2575 817 3079 
Q 1281 3584 2069 3584 
Q 2775 3584 3186 3129 
Q 3597 2675 3597 1894 
z
M 3022 2063 
Q 3016 2534 2758 2815 
Q 2500 3097 2075 3097 
Q 1594 3097 1305 2825 
Q 1016 2553 972 2059 
L 3022 2063 
z
" transform="scale(0.015625)"/>
       <path id="DejaVuSans-6c" d="M 603 4863 
L 1178 4863 
L 1178 0 
L 603 0 
L 603 4863 
z
" transform="scale(0.015625)"/>
       <path id="DejaVuSans-6e" d="M 3513 2113 
L 3513 0 
L 2938 0 
L 2938 2094 
Q 2938 2591 2744 2837 
Q 2550 3084 2163 3084 
Q 1697 3084 1428 2787 
Q 1159 2491 1159 1978 
L 1159 0 
L 581 0 
L 581 3500 
L 1159 3500 
L 1159 2956 
Q 1366 3272 1645 3428 
Q 1925 3584 2291 3584 
Q 2894 3584 3203 3211 
Q 3513 2838 3513 2113 
z
" transform="scale(0.015625)"/>
       <path id="DejaVuSans-67" d="M 2906 1791 
Q 2906 2416 2648 2759 
Q 2391 3103 1925 3103 
Q 1463 3103 1205 2759 
Q 947 2416 947 1791 
Q 947 1169 1205 825 
Q 1463 481 1925 481 
Q 2391 481 2648 825 
Q 2906 1169 2906 1791 
z
M 3481 434 
Q 3481 -459 3084 -895 
Q 2688 -1331 1869 -1331 
Q 1566 -1331 1297 -1286 
Q 1028 -1241 775 -1147 
L 775 -588 
Q 1028 -725 1275 -790 
Q 1522 -856 1778 -856 
Q 2344 -856 2625 -561 
Q 2906 -266 2906 331 
L 2906 616 
Q 2728 306 2450 153 
Q 2172 0 1784 0 
Q 1141 0 747 490 
Q 353 981 353 1791 
Q 353 2603 747 3093 
Q 1141 3584 1784 3584 
Q 2172 3584 2450 3431 
Q 2728 3278 2906 2969 
L 2906 3500 
L 3481 3500 
L 3481 434 
z
" transform="scale(0.015625)"/>
       <path id="DejaVuSans-74" d="M 1172 4494 
L 1172 3500 
L 2356 3500 
L 2356 3053 
L 1172 3053 
L 1172 1153 
Q 1172 725 1289 603 
Q 1406 481 1766 481 
L 2356 481 
L 2356 0 
L 1766 0 
Q 1100 0 847 248 
Q 594 497 594 1153 
L 594 3053 
L 172 3053 
L 172 3500 
L 594 3500 
L 594 4494 
L 1172 4494 
z
" transform="scale(0.015625)"/>
       <path id="DejaVuSans-68" d="M 3513 2113 
L 3513 0 
L 2938 0 
L 2938 2094 
Q 2938 2591 2744 2837 
Q 2550 3084 2163 3084 
Q 1697 3084 1428 2787 
Q 1159 2491 1159 1978 
L 1159 0 
L 581 0 
L 581 4863 
L 1159 4863 
L 1159 2956 
Q 1366 3272 1645 3428 
Q 1925 3584 2291 3584 
Q 2894 3584 3203 3211 
Q 3513 2838 3513 2113 
z
" transform="scale(0.015625)"/>
       <path id="DejaVuSans-20" transform="scale(0.015625)"/>
       <path id="DejaVuSans-28" d="M 1984 4856 
Q 1566 4138 1362 3434 
Q 1159 2731 1159 2009 
Q 1159 1288 1364 580 
Q 1569 -128 1984 -844 
L 1484 -844 
Q 1016 -109 783 600 
Q 550 1309 550 2009 
Q 550 2706 781 3412 
Q 1013 4119 1484 4856 
L 1984 4856 
z
" transform="scale(0.015625)"/>
       <path id="DejaVuSans-6d" d="M 3328 2828 
Q 3544 3216 3844 3400 
Q 4144 3584 4550 3584 
Q 5097 3584 5394 3201 
Q 5691 2819 5691 2113 
L 5691 0 
L 5113 0 
L 5113 2094 
Q 5113 2597 4934 2840 
Q 4756 3084 4391 3084 
Q 3944 3084 3684 2787 
Q 3425 2491 3425 1978 
L 3425 0 
L 2847 0 
L 2847 2094 
Q 2847 2600 2669 2842 
Q 2491 3084 2119 3084 
Q 1678 3084 1418 2786 
Q 1159 2488 1159 1978 
L 1159 0 
L 581 0 
L 581 3500 
L 1159 3500 
L 1159 2956 
Q 1356 3278 1631 3431 
Q 1906 3584 2284 3584 
Q 2666 3584 2933 3390 
Q 3200 3197 3328 2828 
z
" transform="scale(0.015625)"/>
       <path id="DejaVuSans-29" d="M 513 4856 
L 1013 4856 
Q 1481 4119 1714 3412 
Q 1947 2706 1947 2009 
Q 1947 1309 1714 600 
Q 1481 -109 1013 -844 
L 513 -844 
Q 928 -128 1133 580 
Q 1338 1288 1338 2009 
Q 1338 2731 1133 3434 
Q 928 4138 513 4856 
z
" transform="scale(0.015625)"/>
      </defs>
      <use xlink:href="#DejaVuSans-57"/>
      <use xlink:href="#DejaVuSans-61" transform="translate(92.501953 0)"/>
      <use xlink:href="#DejaVuSans-76" transform="translate(153.78125 0)"/>
      <use xlink:href="#DejaVuSans-65" transform="translate(212.960938 0)"/>
      <use xlink:href="#DejaVuSans-6c" transform="translate(274.484375 0)"/>
      <use xlink:href="#DejaVuSans-65" transform="translate(302.267578 0)"/>
      <use xlink:href="#DejaVuSans-6e" transform="translate(363.791016 0)"/>
      <use xlink:href="#DejaVuSans-67" transform="translate(427.169922 0)"/>
      <use xlink:href="#DejaVuSans-74" transform="translate(490.646484 0)"/>
      <use xlink:href="#DejaVuSans-68" transform="translate(529.855469 0)"/>
      <use xlink:href="#DejaVuSans-20" transform="translate(593.234375 0)"/>
      <use xlink:href="#DejaVuSans-28" transform="translate(625.021484 0)"/>
      <use xlink:href="#DejaVuSans-6e" transform="translate(664.035156 0)"/>
      <use xlink:href="#DejaVuSans-6d" transform="translate(727.414062 0)"/>
      <use xlink:href="#DejaVuSans-29" transform="translate(824.826172 0)"/>
     </g>
    </g>
   </g>
   <g id="matplotlib.axis_2">
    <g id="ytick_1">
     <g id="line2d_53">
      <defs>
       <path id="mb4974a0e5b" d="M 0 0 
L 6 0 
" style="stroke: #000000"/>
      </defs>
      <g>
       <use xlink:href="#mb4974a0e5b" x="52.03" y="339.2775" style="stroke: #000000"/>
      </g>
     </g>
     <g id="line2d_54">
      <defs>
       <path id="md936abc2e3" d="M 0 0 
L -6 0 
" style="stroke: #000000"/>
      </defs>
      <g>
       <use xlink:href="#md936abc2e3" x="498.43" y="339.2775" style="stroke: #000000"/>
      </g>
     </g>
     <g id="text_8">
      <!-- 0.0 -->
      <g transform="translate(23.085 345.35625) scale(0.16 -0.16)">
       <defs>
        <path id="DejaVuSans-2e" d="M 684 794 
L 1344 794 
L 1344 0 
L 684 0 
L 684 794 
z
" transform="scale(0.015625)"/>
       </defs>
       <use xlink:href="#DejaVuSans-30"/>
       <use xlink:href="#DejaVuSans-2e" transform="translate(63.623047 0)"/>
       <use xlink:href="#DejaVuSans-30" transform="translate(95.410156 0)"/>
      </g>
     </g>
    </g>
    <g id="ytick_2">
     <g id="line2d_55">
      <g>
       <use xlink:href="#mb4974a0e5b" x="52.03" y="278.7975" style="stroke: #000000"/>
      </g>
     </g>
     <g id="line2d_56">
      <g>
       <use xlink:href="#md936abc2e3" x="498.43" y="278.7975" style="stroke: #000000"/>
      </g>
     </g>
     <g id="text_9">
      <!-- 0.2 -->
      <g transform="translate(23.085 284.87625) scale(0.16 -0.16)">
       <use xlink:href="#DejaVuSans-30"/>
       <use xlink:href="#DejaVuSans-2e" transform="translate(63.623047 0)"/>
       <use xlink:href="#DejaVuSans-32" transform="translate(95.410156 0)"/>
      </g>
     </g>
    </g>
    <g id="ytick_3">
     <g id="line2d_57">
      <g>
       <use xlink:href="#mb4974a0e5b" x="52.03" y="218.3175" style="stroke: #000000"/>
      </g>
     </g>
     <g id="line2d_58">
      <g>
       <use xlink:href="#md936abc2e3" x="498.43" y="218.3175" style="stroke: #000000"/>
      </g>
     </g>
     <g id="text_10">
      <!-- 0.4 -->
      <g transform="translate(23.085 224.39625) scale(0.16 -0.16)">
       <use xlink:href="#DejaVuSans-30"/>
       <use xlink:href="#DejaVuSans-2e" transform="translate(63.623047 0)"/>
       <use xlink:href="#DejaVuSans-34" transform="translate(95.410156 0)"/>
      </g>
     </g>
    </g>
    <g id="ytick_4">
     <g id="line2d_59">
      <g>
       <use xlink:href="#mb4974a0e5b" x="52.03" y="157.8375" style="stroke: #000000"/>
      </g>
     </g>
     <g id="line2d_60">
      <g>
       <use xlink:href="#md936abc2e3" x="498.43" y="157.8375" style="stroke: #000000"/>
      </g>
     </g>
     <g id="text_11">
      <!-- 0.6 -->
      <g transform="translate(23.085 163.91625) scale(0.16 -0.16)">
       <use xlink:href="#DejaVuSans-30"/>
       <use xlink:href="#DejaVuSans-2e" transform="translate(63.623047 0)"/>
       <use xlink:href="#DejaVuSans-36" transform="translate(95.410156 0)"/>
      </g>
     </g>
    </g>
    <g id="ytick_5">
     <g id="line2d_61">
      <g>
       <use xlink:href="#mb4974a0e5b" x="52.03" y="97.3575" style="stroke: #000000"/>
      </g>
     </g>
     <g id="line2d_62">
      <g>
       <use xlink:href="#md936abc2e3" x="498.43" y="97.3575" style="stroke: #000000"/>
      </g>
     </g>
     <g id="text_12">
      <!-- 0.8 -->
      <g transform="translate(23.085 103.43625) scale(0.16 -0.16)">
       <defs>
        <path id="DejaVuSans-38" d="M 2034 2216 
Q 1584 2216 1326 1975 
Q 1069 1734 1069 1313 
Q 1069 891 1326 650 
Q 1584 409 2034 409 
Q 2484 409 2743 651 
Q 3003 894 3003 1313 
Q 3003 1734 2745 1975 
Q 2488 2216 2034 2216 
z
M 1403 2484 
Q 997 2584 770 2862 
Q 544 3141 544 3541 
Q 544 4100 942 4425 
Q 1341 4750 2034 4750 
Q 2731 4750 3128 4425 
Q 3525 4100 3525 3541 
Q 3525 3141 3298 2862 
Q 3072 2584 2669 2484 
Q 3125 2378 3379 2068 
Q 3634 1759 3634 1313 
Q 3634 634 3220 271 
Q 2806 -91 2034 -91 
Q 1263 -91 848 271 
Q 434 634 434 1313 
Q 434 1759 690 2068 
Q 947 2378 1403 2484 
z
M 1172 3481 
Q 1172 3119 1398 2916 
Q 1625 2713 2034 2713 
Q 2441 2713 2670 2916 
Q 2900 3119 2900 3481 
Q 2900 3844 2670 4047 
Q 2441 4250 2034 4250 
Q 1625 4250 1398 4047 
Q 1172 3844 1172 3481 
z
" transform="scale(0.015625)"/>
       </defs>
       <use xlink:href="#DejaVuSans-30"/>
       <use xlink:href="#DejaVuSans-2e" transform="translate(63.623047 0)"/>
       <use xlink:href="#DejaVuSans-38" transform="translate(95.410156 0)"/>
      </g>
     </g>
    </g>
    <g id="ytick_6">
     <g id="line2d_63">
      <g>
       <use xlink:href="#mb4974a0e5b" x="52.03" y="36.8775" style="stroke: #000000"/>
      </g>
     </g>
     <g id="line2d_64">
      <g>
       <use xlink:href="#md936abc2e3" x="498.43" y="36.8775" style="stroke: #000000"/>
      </g>
     </g>
     <g id="text_13">
      <!-- 1.0 -->
      <g transform="translate(23.085 42.95625) scale(0.16 -0.16)">
       <defs>
        <path id="DejaVuSans-31" d="M 794 531 
L 1825 531 
L 1825 4091 
L 703 3866 
L 703 4441 
L 1819 4666 
L 2450 4666 
L 2450 531 
L 3481 531 
L 3481 0 
L 794 0 
L 794 531 
z
" transform="scale(0.015625)"/>
       </defs>
       <use xlink:href="#DejaVuSans-31"/>
       <use xlink:href="#DejaVuSans-2e" transform="translate(63.623047 0)"/>
       <use xlink:href="#DejaVuSans-30" transform="translate(95.410156 0)"/>
      </g>
     </g>
    </g>
    <g id="ytick_7">
     <g id="line2d_65">
      <defs>
       <path id="mea78a15506" d="M 0 0 
L 3 0 
" style="stroke: #000000"/>
      </defs>
      <g>
       <use xlink:href="#mea78a15506" x="52.03" y="354.3975" style="stroke: #000000"/>
      </g>
     </g>
     <g id="line2d_66">
      <defs>
       <path id="m001ae20fea" d="M 0 0 
L -3 0 
" style="stroke: #000000"/>
      </defs>
      <g>
       <use xlink:href="#m001ae20fea" x="498.43" y="354.3975" style="stroke: #000000"/>
      </g>
     </g>
    </g>
    <g id="ytick_8">
     <g id="line2d_67">
      <g>
       <use xlink:href="#mea78a15506" x="52.03" y="324.1575" style="stroke: #000000"/>
      </g>
     </g>
     <g id="line2d_68">
      <g>
       <use xlink:href="#m001ae20fea" x="498.43" y="324.1575" style="stroke: #000000"/>
      </g>
     </g>
    </g>
    <g id="ytick_9">
     <g id="line2d_69">
      <g>
       <use xlink:href="#mea78a15506" x="52.03" y="309.0375" style="stroke: #000000"/>
      </g>
     </g>
     <g id="line2d_70">
      <g>
       <use xlink:href="#m001ae20fea" x="498.43" y="309.0375" style="stroke: #000000"/>
      </g>
     </g>
    </g>
    <g id="ytick_10">
     <g id="line2d_71">
      <g>
       <use xlink:href="#mea78a15506" x="52.03" y="293.9175" style="stroke: #000000"/>
      </g>
     </g>
     <g id="line2d_72">
      <g>
       <use xlink:href="#m001ae20fea" x="498.43" y="293.9175" style="stroke: #000000"/>
      </g>
     </g>
    </g>
    <g id="ytick_11">
     <g id="line2d_73">
      <g>
       <use xlink:href="#mea78a15506" x="52.03" y="263.6775" style="stroke: #000000"/>
      </g>
     </g>
     <g id="line2d_74">
      <g>
       <use xlink:href="#m001ae20fea" x="498.43" y="263.6775" style="stroke: #000000"/>
      </g>
     </g>
    </g>
    <g id="ytick_12">
     <g id="line2d_75">
      <g>
       <use xlink:href="#mea78a15506" x="52.03" y="248.5575" style="stroke: #000000"/>
      </g>
     </g>
     <g id="line2d_76">
      <g>
       <use xlink:href="#m001ae20fea" x="498.43" y="248.5575" style="stroke: #000000"/>
      </g>
     </g>
    </g>
    <g id="ytick_13">
     <g id="line2d_77">
      <g>
       <use xlink:href="#mea78a15506" x="52.03" y="233.4375" style="stroke: #000000"/>
      </g>
     </g>
     <g id="line2d_78">
      <g>
       <use xlink:href="#m001ae20fea" x="498.43" y="233.4375" style="stroke: #000000"/>
      </g>
     </g>
    </g>
    <g id="ytick_14">
     <g id="line2d_79">
      <g>
       <use xlink:href="#mea78a15506" x="52.03" y="203.1975" style="stroke: #000000"/>
      </g>
     </g>
     <g id="line2d_80">
      <g>
       <use xlink:href="#m001ae20fea" x="498.43" y="203.1975" style="stroke: #000000"/>
      </g>
     </g>
    </g>
    <g id="ytick_15">
     <g id="line2d_81">
      <g>
       <use xlink:href="#mea78a15506" x="52.03" y="188.0775" style="stroke: #000000"/>
      </g>
     </g>
     <g id="line2d_82">
      <g>
       <use xlink:href="#m001ae20fea" x="498.43" y="188.0775" style="stroke: #000000"/>
      </g>
     </g>
    </g>
    <g id="ytick_16">
     <g id="line2d_83">
      <g>
       <use xlink:href="#mea78a15506" x="52.03" y="172.9575" style="stroke: #000000"/>
      </g>
     </g>
     <g id="line2d_84">
      <g>
       <use xlink:href="#m001ae20fea" x="498.43" y="172.9575" style="stroke: #000000"/>
      </g>
     </g>
    </g>
    <g id="ytick_17">
     <g id="line2d_85">
      <g>
       <use xlink:href="#mea78a15506" x="52.03" y="142.7175" style="stroke: #000000"/>
      </g>
     </g>
     <g id="line2d_86">
      <g>
       <use xlink:href="#m001ae20fea" x="498.43" y="142.7175" style="stroke: #000000"/>
      </g>
     </g>
    </g>
    <g id="ytick_18">
     <g id="line2d_87">
      <g>
       <use xlink:href="#mea78a15506" x="52.03" y="127.5975" style="stroke: #000000"/>
      </g>
     </g>
     <g id="line2d_88">
      <g>
       <use xlink:href="#m001ae20fea" x="498.43" y="127.5975" style="stroke: #000000"/>
      </g>
     </g>
    </g>
    <g id="ytick_19">
     <g id="line2d_89">
      <g>
       <use xlink:href="#mea78a15506" x="52.03" y="112.4775" style="stroke: #000000"/>
      </g>
     </g>
     <g id="line2d_90">
      <g>
       <use xlink:href="#m001ae20fea" x="498.43" y="112.4775" style="stroke: #000000"/>
      </g>
     </g>
    </g>
    <g id="ytick_20">
     <g id="line2d_91">
      <g>
       <use xlink:href="#mea78a15506" x="52.03" y="82.2375" style="stroke: #000000"/>
      </g>
     </g>
     <g id="line2d_92">
      <g>
       <use xlink:href="#m001ae20fea" x="498.43" y="82.2375" style="stroke: #000000"/>
      </g>
     </g>
    </g>
    <g id="ytick_21">
     <g id="line2d_93">
      <g>
       <use xlink:href="#mea78a15506" x="52.03" y="67.1175" style="stroke: #000000"/>
      </g>
     </g>
     <g id="line2d_94">
      <g>
       <use xlink:href="#m001ae20fea" x="498.43" y="67.1175" style="stroke: #000000"/>
      </g>
     </g>
    </g>
    <g id="ytick_22">
     <g id="line2d_95">
      <g>
       <use xlink:href="#mea78a15506" x="52.03" y="51.9975" style="stroke: #000000"/>
      </g>
     </g>
     <g id="line2d_96">
      <g>
       <use xlink:href="#m001ae20fea" x="498.43" y="51.9975" style="stroke: #000000"/>
      </g>
     </g>
    </g>
    <g id="ytick_23">
     <g id="line2d_97">
      <g>
       <use xlink:href="#mea78a15506" x="52.03" y="21.7575" style="stroke: #000000"/>
      </g>
     </g>
     <g id="line2d_98">
      <g>
       <use xlink:href="#m001ae20fea" x="498.43" y="21.7575" style="stroke: #000000"/>
      </g>
     </g>
    </g>
    <g id="text_14">
     <!-- Intensity -->
     <g transform="translate(15.7575 222.8975) rotate(-90) scale(0.16 -0.16)">
      <defs>
       <path id="DejaVuSans-49" d="M 628 4666 
L 1259 4666 
L 1259 0 
L 628 0 
L 628 4666 
z
" transform="scale(0.015625)"/>
       <path id="DejaVuSans-73" d="M 2834 3397 
L 2834 2853 
Q 2591 2978 2328 3040 
Q 2066 3103 1784 3103 
Q 1356 3103 1142 2972 
Q 928 2841 928 2578 
Q 928 2378 1081 2264 
Q 1234 2150 1697 2047 
L 1894 2003 
Q 2506 1872 2764 1633 
Q 3022 1394 3022 966 
Q 3022 478 2636 193 
Q 2250 -91 1575 -91 
Q 1294 -91 989 -36 
Q 684 19 347 128 
L 347 722 
Q 666 556 975 473 
Q 1284 391 1588 391 
Q 1994 391 2212 530 
Q 2431 669 2431 922 
Q 2431 1156 2273 1281 
Q 2116 1406 1581 1522 
L 1381 1569 
Q 847 1681 609 1914 
Q 372 2147 372 2553 
Q 372 3047 722 3315 
Q 1072 3584 1716 3584 
Q 2034 3584 2315 3537 
Q 2597 3491 2834 3397 
z
" transform="scale(0.015625)"/>
       <path id="DejaVuSans-69" d="M 603 3500 
L 1178 3500 
L 1178 0 
L 603 0 
L 603 3500 
z
M 603 4863 
L 1178 4863 
L 1178 4134 
L 603 4134 
L 603 4863 
z
" transform="scale(0.015625)"/>
       <path id="DejaVuSans-79" d="M 2059 -325 
Q 1816 -950 1584 -1140 
Q 1353 -1331 966 -1331 
L 506 -1331 
L 506 -850 
L 844 -850 
Q 1081 -850 1212 -737 
Q 1344 -625 1503 -206 
L 1606 56 
L 191 3500 
L 800 3500 
L 1894 763 
L 2988 3500 
L 3597 3500 
L 2059 -325 
z
" transform="scale(0.015625)"/>
      </defs>
      <use xlink:href="#DejaVuSans-49"/>
      <use xlink:href="#DejaVuSans-6e" transform="translate(29.492188 0)"/>
      <use xlink:href="#DejaVuSans-74" transform="translate(92.871094 0)"/>
      <use xlink:href="#DejaVuSans-65" transform="translate(132.080078 0)"/>
      <use xlink:href="#DejaVuSans-6e" transform="translate(193.603516 0)"/>
      <use xlink:href="#DejaVuSans-73" transform="translate(256.982422 0)"/>
      <use xlink:href="#DejaVuSans-69" transform="translate(309.082031 0)"/>
      <use xlink:href="#DejaVuSans-74" transform="translate(336.865234 0)"/>
      <use xlink:href="#DejaVuSans-79" transform="translate(376.074219 0)"/>
     </g>
    </g>
   </g>
   <g id="line2d_99">
    <path d="M 48.805152 338.093105 
L 53.967742 338.191414 
L 59.130332 337.962025 
L 64.292377 337.821583 
L 69.453877 337.854353 
L 74.615377 338.182051 
L 79.776332 337.751362 
L 84.937287 337.339399 
L 90.097152 337.470478 
L 95.257562 337.128735 
L 100.416883 336.885302 
L 105.576203 336.758904 
L 110.734979 337.194275 
L 115.893754 337.152142 
L 121.051984 336.768267 
L 126.210215 336.014561 
L 131.367355 336.033287 
L 136.525041 333.266577 
L 141.681637 320.153963 
L 146.838232 36.8775 
L 151.994283 36.94304 
L 157.150334 36.8775 
L 162.30584 140.561245 
L 167.461346 36.8775 
L 172.615762 36.94304 
L 177.770723 36.8775 
L 182.924594 36.94304 
L 188.078465 58.388553 
L 193.231791 337.156824 
L 198.385117 337.180231 
L 203.537898 337.816902 
L 208.690135 337.933937 
L 213.842371 338.261635 
L 218.994062 338.575289 
L 224.145754 337.133417 
L 229.2969 335.368527 
L 234.447502 334.362025 
L 239.597559 335.916252 
L 244.747615 334.282441 
L 249.897672 335.71027 
L 255.046639 334.352663 
L 260.19615 337.704548 
L 265.344572 336.220543 
L 270.492994 332.40988 
L 275.640871 327.391414 
L 280.788203 317.494925 
L 285.935535 319.306629 
L 291.082867 325.298826 
L 296.229109 330.654353 
L 301.375352 335.490244 
L 306.521594 336.74486 
L 311.666746 336.459295 
L 316.811898 336.74486 
L 321.957051 336.71209 
L 327.101658 337.362806 
L 332.245721 336.075419 
L 337.389238 335.640049 
L 342.532756 336.936798 
L 347.676273 330.382832 
L 352.818701 315.786213 
L 357.961129 315.664496 
L 363.103557 317.846031 
L 368.244895 313.988553 
L 373.386232 322.138878 
L 378.52757 332.559685 
L 383.668363 336.894665 
L 388.808611 336.660595 
L 393.948314 337.24577 
L 399.088018 336.819763 
L 404.227721 337.653053 
L 409.366334 337.802858 
L 414.504947 337.007019 
L 419.643561 337.840309 
L 424.781084 337.395575 
L 429.918607 336.54356 
L 435.056131 337.297266 
L 440.192564 337.353443 
L 445.329543 338.214821 
L 450.465432 337.980751 
L 455.60132 337.990114 
L 460.736664 338.116512 
L 465.872008 338.205458 
L 471.006807 337.461115 
L 476.141061 337.573469 
L 481.27477 337.517292 
L 486.408479 337.87776 
L 491.542187 337.756044 
L 496.675352 337.34408 
L 501.807971 337.919893 
" clip-path="url(#p10f9c9abed)" style="fill: none; stroke: #0c5da5; stroke-width: 2; stroke-linecap: square"/>
   </g>
   <g id="line2d_100">
    <path d="M 145.00723 334.488085 
L 145.246528 339.216874 
L 145.485812 338.610619 
L 145.725082 338.549994 
L 145.964337 339.216874 
L 146.203578 338.671245 
L 146.442804 338.428743 
L 146.682017 338.610619 
L 147.399568 338.125615 
L 147.877864 336.85248 
L 148.5952 333.336201 
L 149.551448 324.484878 
L 150.507467 313.208534 
L 150.746436 309.207251 
L 150.985391 307.691614 
L 151.224331 304.357211 
L 151.463257 297.385279 
L 151.702169 295.384637 
L 152.418818 282.107652 
L 152.896512 266.526899 
L 153.135338 262.889368 
L 153.37415 257.554324 
L 153.612947 247.732993 
L 154.806718 172.799874 
L 156.000132 76.284076 
L 156.238771 73.313426 
L 156.477397 65.189609 
L 156.716008 52.700756 
L 156.954605 47.608214 
L 157.193187 45.789449 
L 157.431755 47.608214 
L 157.670309 47.668839 
L 157.908849 37.241253 
L 158.147374 36.8775 
L 158.624381 43.48568 
L 158.862863 41.181911 
L 159.101331 50.457612 
L 159.339785 54.39827 
L 159.816649 69.372769 
L 160.05506 72.100916 
L 160.770206 90.349192 
L 161.00856 105.929946 
L 161.485224 119.510058 
L 161.96183 148.307171 
L 162.43838 174.497388 
L 162.914872 211.236441 
L 163.391307 244.156089 
L 164.582143 331.093057 
L 164.820268 337.094982 
L 165.296473 337.640611 
L 165.534555 337.579986 
L 166.010675 337.822488 
L 166.248713 337.701237 
L 166.486738 338.549994 
L 166.724747 338.307492 
L 166.962743 338.246866 
L 167.438691 338.671245 
L 167.676644 338.610619 
L 167.914582 338.307492 
L 168.152506 338.610619 
L 168.390416 339.095623 
L 168.628311 338.73187 
L 168.866192 338.73187 
L 169.104059 338.610619 
L 169.341911 338.671245 
L 169.579749 339.034998 
L 169.817573 338.671245 
L 170.055382 339.095623 
L 170.768725 338.792496 
L 171.006477 339.034998 
L 171.481939 338.792496 
L 171.719648 338.974372 
L 171.957343 338.671245 
L 172.195023 338.913747 
L 172.670342 338.792496 
L 172.907979 339.156249 
L 173.145603 338.73187 
L 173.383212 338.853121 
L 173.620807 338.792496 
L 173.858387 338.853121 
L 174.095953 339.095623 
L 174.333505 339.034998 
L 174.571042 339.2775 
L 174.808566 338.853121 
L 175.283569 339.156249 
L 175.521049 338.974372 
L 175.995967 339.2775 
L 176.470827 338.610619 
L 176.708236 339.216874 
L 176.94563 338.792496 
L 177.18301 338.610619 
L 177.420376 339.156249 
L 177.657727 339.034998 
L 177.895064 338.610619 
L 178.844269 339.034998 
L 179.081535 338.974372 
L 179.318786 338.671245 
L 179.556023 338.610619 
L 179.793245 338.671245 
L 180.030454 338.489368 
L 180.267648 339.156249 
L 180.504827 338.792496 
L 180.741992 339.095623 
L 180.979143 338.73187 
L 181.21628 339.034998 
L 181.453402 338.489368 
L 181.69051 338.73187 
L 181.927604 338.73187 
L 182.164684 338.913747 
L 182.401749 338.489368 
L 182.638799 338.792496 
L 182.875836 338.671245 
L 183.112858 338.307492 
L 183.349866 338.73187 
L 183.586859 338.428743 
L 183.823839 338.428743 
L 184.060804 338.549994 
L 184.297754 338.06499 
L 184.53469 337.883113 
L 184.771612 338.125615 
L 185.00852 337.155607 
L 185.245413 337.276858 
L 185.482292 337.579986 
L 185.956007 336.488727 
L 186.192843 336.731229 
L 186.429665 335.458093 
L 186.903266 335.215591 
L 187.376809 333.821205 
L 187.613559 333.154324 
L 188.087016 332.608695 
L 188.323724 331.45681 
L 188.797095 330.850555 
L 189.270409 329.516794 
L 189.507045 329.819922 
L 189.743666 328.061782 
L 189.980273 327.1524 
L 190.216866 327.091774 
L 190.453444 326.909898 
L 190.926558 325.93989 
L 191.163094 324.666754 
L 191.399615 324.18175 
L 191.636122 323.211742 
L 191.872614 323.757372 
L 192.345556 322.787364 
L 192.582006 321.271726 
L 192.818441 320.604846 
L 193.054862 321.514228 
L 193.764039 318.66483 
L 194.000403 320.059216 
L 194.473087 318.058575 
L 195.182006 317.391694 
L 195.418284 316.23981 
L 195.654547 316.785439 
L 195.890796 315.754806 
L 196.363252 317.149192 
L 196.599458 316.361061 
L 196.83565 316.23981 
L 197.071828 315.451678 
L 197.307991 316.724814 
L 197.54414 316.967316 
L 197.780274 316.542937 
L 198.016395 315.451678 
L 198.252501 316.482312 
L 198.488592 315.69418 
L 198.72467 315.451678 
L 198.960733 315.815431 
L 199.196781 316.482312 
L 199.432816 316.421686 
L 199.668836 316.724814 
L 200.140833 315.451678 
L 200.37681 314.966674 
L 200.612773 316.361061 
L 200.848722 315.997308 
L 201.084656 316.482312 
L 201.320576 316.361061 
L 201.556482 316.057933 
L 201.792373 315.936682 
L 202.264112 314.845423 
L 202.499961 316.482312 
L 202.735795 316.603563 
L 202.971614 315.69418 
L 203.20742 316.90669 
L 203.443211 316.664188 
L 203.678988 316.603563 
L 203.91475 316.846065 
L 204.150498 317.45232 
L 204.386232 316.603563 
L 204.621952 316.421686 
L 204.857657 317.573571 
L 205.093348 317.270443 
L 205.329024 316.23981 
L 205.564686 316.603563 
L 206.035968 315.754806 
L 206.271587 316.603563 
L 206.507192 316.846065 
L 206.742783 315.876057 
L 206.978359 316.724814 
L 207.213921 315.69418 
L 207.449469 316.118559 
L 207.685002 316.785439 
L 207.920521 316.300435 
L 208.156026 316.361061 
L 208.626993 315.209176 
L 208.862455 315.269802 
L 209.097902 316.482312 
L 209.333335 315.69418 
L 209.568754 315.391053 
L 210.274925 315.936682 
L 210.510287 314.906049 
L 210.980967 316.057933 
L 211.216286 316.057933 
L 211.922156 315.633555 
L 212.157417 316.300435 
L 212.627897 316.482312 
L 212.863116 317.088567 
L 213.09832 315.391053 
L 213.33351 315.209176 
L 213.568685 315.209176 
L 213.803846 315.451678 
L 214.038993 315.269802 
L 214.509244 315.451678 
L 214.744348 316.482312 
L 214.979438 315.269802 
L 215.214513 315.0273 
L 215.449574 314.117917 
L 215.919653 315.633555 
L 216.154671 315.209176 
L 216.624664 315.69418 
L 216.85964 314.784798 
L 217.0946 315.148551 
L 217.329547 314.299794 
L 217.564479 314.057291 
L 217.799397 315.876057 
L 218.034301 314.239168 
L 218.26919 314.057291 
L 218.738925 314.966674 
L 218.973772 313.754164 
L 219.208604 314.906049 
L 219.443421 313.208534 
L 219.678225 314.845423 
L 219.913014 315.148551 
L 220.147788 314.784798 
L 220.382549 313.632913 
L 220.617295 313.632913 
L 220.852027 315.512304 
L 221.086744 314.966674 
L 221.321447 314.724172 
L 221.556136 314.845423 
L 221.790811 315.269802 
L 222.025471 313.632913 
L 222.260117 313.451036 
L 222.494748 312.966032 
L 222.729365 313.147909 
L 222.963968 314.117917 
L 223.198557 313.572287 
L 223.433131 312.602279 
L 223.667691 312.784156 
L 223.902237 312.541654 
L 224.136768 312.844781 
L 224.371285 313.329785 
L 224.605788 313.087283 
L 224.840277 312.359777 
L 225.074751 312.966032 
L 225.30921 312.966032 
L 225.543656 313.147909 
L 225.778087 311.996024 
L 226.012504 313.026658 
L 226.246906 311.571646 
L 226.481295 312.05665 
L 226.950028 311.026016 
L 227.184373 311.268518 
L 227.418704 309.934757 
L 227.887323 311.874773 
L 228.121611 310.116634 
L 228.355885 312.117275 
L 228.590144 311.874773 
L 228.82439 311.268518 
L 229.05862 311.268518 
L 229.292837 310.29851 
L 229.527039 309.934757 
L 229.761227 311.753522 
L 229.9954 310.116634 
L 230.229559 309.63163 
L 230.463704 311.026016 
L 230.697835 310.601638 
L 230.931951 309.086 
L 231.166053 310.601638 
L 231.400141 311.268518 
L 231.868273 310.116634 
L 232.102317 308.479745 
L 232.336348 309.571004 
L 232.570364 308.904124 
L 232.804366 310.359136 
L 233.038353 308.904124 
L 233.272326 308.297869 
L 233.506285 309.63163 
L 233.740229 308.297869 
L 233.974159 308.782873 
L 234.208075 308.964749 
L 234.441977 308.41912 
L 234.675864 308.237243 
L 234.909737 307.267235 
L 235.143595 308.055367 
L 235.37744 309.267877 
L 235.61127 307.024733 
L 235.845085 307.87349 
L 236.312674 306.236602 
L 236.546446 307.752239 
L 236.780205 307.87349 
L 237.013949 306.054725 
L 237.247678 306.479104 
L 237.481394 306.479104 
L 237.715095 306.054725 
L 237.948782 306.964108 
L 238.182454 306.903482 
L 238.416112 307.630988 
L 238.649756 306.357853 
L 238.883386 306.418478 
L 239.117001 308.176618 
L 239.350602 307.388486 
L 239.584188 307.388486 
L 239.817761 305.509096 
L 240.284862 307.20661 
L 240.518392 304.963466 
L 240.751907 305.933474 
L 240.985407 304.357211 
L 241.218894 304.660339 
L 241.452366 305.630347 
L 241.685824 304.842215 
L 241.919267 304.963466 
L 242.152696 304.842215 
L 242.386111 303.811582 
L 242.852898 305.205968 
L 243.086269 305.569721 
L 243.55297 305.266594 
L 243.786299 304.720964 
L 244.252914 303.387203 
L 244.4862 303.811582 
L 244.952729 302.538446 
L 245.185972 303.508454 
L 245.419201 302.780948 
L 245.652415 303.629705 
L 245.885615 302.902199 
L 246.118801 303.144701 
L 246.58513 302.35657 
L 246.818272 302.114068 
L 247.051401 303.205327 
L 247.284515 303.265952 
L 247.517615 302.235319 
L 247.750701 302.659697 
L 247.983772 302.599072 
L 248.216829 303.872207 
L 248.449871 301.022809 
L 248.6829 301.81094 
L 249.148913 302.235319 
L 249.381899 301.689689 
L 249.61487 300.295303 
L 249.847827 301.568438 
L 250.080769 300.780307 
L 250.313697 301.022809 
L 250.546611 300.234677 
L 250.77951 301.447187 
L 251.012396 301.083434 
L 251.245266 301.447187 
L 251.478123 300.355928 
L 252.176607 300.416554 
L 252.409406 300.234677 
L 252.642191 300.295303 
L 252.874962 300.537805 
L 253.107718 299.507171 
L 253.34046 300.962183 
L 253.805901 299.264669 
L 254.0386 300.477179 
L 254.271285 298.476538 
L 254.503955 299.204044 
L 254.736611 298.415912 
L 254.969253 299.204044 
L 255.201881 298.476538 
L 255.434494 299.264669 
L 255.667093 298.052159 
L 255.899677 297.991534 
L 256.132247 299.082793 
L 256.364803 298.597789 
L 256.597345 299.082793 
L 256.829872 297.688406 
L 257.294884 299.325295 
L 257.527368 298.112785 
L 257.759838 298.17341 
L 258.224735 296.718398 
L 258.457162 297.203402 
L 258.689575 295.869641 
L 258.921974 296.29402 
L 259.154358 297.567155 
L 259.386728 297.50653 
L 259.619083 297.082151 
L 259.851424 297.142777 
L 260.083751 297.809657 
L 260.548362 295.445263 
L 260.780646 297.385279 
L 261.012916 297.627781 
L 261.245171 296.657773 
L 261.477412 296.415271 
L 261.709639 296.779024 
L 261.941851 297.385279 
L 262.638402 294.839008 
L 262.870557 295.990892 
L 263.102698 295.505888 
L 263.334825 295.445263 
L 263.566937 295.930267 
L 263.799035 295.990892 
L 264.031118 295.809016 
L 264.263187 293.929625 
L 264.495242 294.657131 
L 264.727283 294.960259 
L 264.959309 296.051518 
L 265.191321 293.505247 
L 265.423319 295.809016 
L 265.655302 295.990892 
L 265.887271 294.172127 
L 266.119226 294.172127 
L 266.351166 295.809016 
L 266.583092 294.354004 
L 266.815004 294.839008 
L 267.046901 294.232753 
L 267.278784 294.293378 
L 267.510653 294.899633 
L 267.742508 294.232753 
L 267.974348 294.475255 
L 268.206174 293.808374 
L 268.669783 294.717757 
L 269.133334 293.687123 
L 269.365088 295.020884 
L 269.828554 292.413988 
L 270.291962 293.262745 
L 270.523645 292.959617 
L 270.755314 292.898992 
L 270.986968 294.293378 
L 271.450233 293.141494 
L 271.681844 293.080868 
L 271.913441 293.444621 
L 272.145023 292.898992 
L 272.376592 292.838366 
L 272.608145 292.353362 
L 272.839685 294.354004 
L 273.07121 293.929625 
L 273.302721 292.292737 
L 273.534218 293.080868 
L 273.7657 294.414629 
L 274.228622 293.202119 
L 274.460061 293.808374 
L 274.691486 293.141494 
L 275.154293 295.142135 
L 275.385675 294.354004 
L 275.617043 295.142135 
L 275.848397 294.778382 
L 276.079736 292.959617 
L 276.311061 293.808374 
L 276.542371 292.232111 
L 276.773667 294.657131 
L 277.004949 293.444621 
L 277.46747 295.384637 
L 277.698709 293.262745 
L 277.929934 296.29402 
L 278.161144 297.142777 
L 278.39234 294.717757 
L 278.623522 294.53588 
L 278.854689 294.717757 
L 279.316981 293.808374 
L 279.548105 295.324012 
L 279.779216 293.202119 
L 280.010311 295.08151 
L 280.241393 295.566514 
L 280.47246 295.142135 
L 280.703513 295.08151 
L 280.934551 295.263386 
L 281.165576 295.930267 
L 281.396586 296.172769 
L 281.627581 294.899633 
L 281.858562 295.08151 
L 282.089529 295.020884 
L 282.320482 295.202761 
L 282.55142 295.08151 
L 282.782345 295.627139 
L 283.013254 293.990251 
L 283.24415 296.536522 
L 283.475031 294.050876 
L 283.705897 294.111502 
L 283.93675 294.53588 
L 284.167588 295.930267 
L 284.398412 294.657131 
L 284.629221 294.960259 
L 284.860017 294.293378 
L 285.090797 295.74839 
L 285.321564 294.839008 
L 285.552316 296.233394 
L 285.783054 294.960259 
L 286.013778 296.172769 
L 286.244487 296.233394 
L 286.475182 298.294661 
L 286.705863 297.021526 
L 286.936529 296.779024 
L 287.167181 297.688406 
L 287.397819 297.567155 
L 287.628442 298.415912 
L 287.859051 298.658414 
L 288.089646 300.477179 
L 288.320227 300.962183 
L 288.550793 300.537805 
L 288.781345 301.265311 
L 289.011882 303.993458 
L 289.242405 302.902199 
L 289.472914 303.872207 
L 289.703409 302.841574 
L 290.164355 305.872849 
L 290.394807 307.267235 
L 290.855667 308.540371 
L 291.086076 307.934116 
L 291.31647 309.692255 
L 291.777216 311.571646 
L 292.007568 311.389769 
L 292.237905 312.602279 
L 292.468227 312.662905 
L 292.698536 311.996024 
L 292.92883 314.966674 
L 293.15911 315.572929 
L 293.389376 314.663547 
L 293.619627 316.724814 
L 293.849864 316.967316 
L 294.080086 317.512945 
L 294.310295 317.027941 
L 294.540489 318.907332 
L 294.770668 318.907332 
L 295.000834 318.786081 
L 295.230985 318.846706 
L 295.461121 320.604846 
L 295.691244 319.87734 
L 295.921352 321.332352 
L 296.151446 321.211101 
L 296.381525 321.75673 
L 296.61159 320.847348 
L 296.841641 323.332993 
L 297.071677 323.757372 
L 297.3017 322.181109 
L 297.761701 324.060499 
L 297.99168 323.636121 
L 298.221645 323.454244 
L 298.451596 323.878623 
L 298.681532 324.969882 
L 298.911454 324.060499 
L 299.141362 323.757372 
L 299.371255 325.758013 
L 299.830999 324.848631 
L 300.060849 326.000515 
L 300.290686 325.576137 
L 300.520507 326.667396 
L 300.750315 326.364268 
L 300.980108 327.091774 
L 301.209887 326.303643 
L 301.439651 326.182392 
L 301.669402 326.546145 
L 301.899137 327.394902 
L 302.128859 327.698029 
L 302.358566 326.909898 
L 302.588259 327.334276 
L 302.817938 328.243659 
L 303.047602 327.81928 
L 303.277252 328.061782 
L 303.506888 328.122408 
L 303.736509 327.879906 
L 303.966116 327.81928 
L 304.195709 328.486161 
L 304.425288 327.81928 
L 304.654852 328.607412 
L 304.884401 328.243659 
L 305.113937 328.486161 
L 305.343458 329.274292 
L 305.572965 328.061782 
L 305.802458 327.758655 
L 306.031936 329.334918 
L 306.2614 328.122408 
L 306.490849 329.153041 
L 306.720285 329.516794 
L 306.949706 328.849914 
L 307.179112 328.971165 
L 307.408505 328.668037 
L 307.637883 328.910539 
L 307.867246 328.728663 
L 308.096596 329.153041 
L 308.325931 329.092416 
L 308.555252 328.607412 
L 308.784558 329.092416 
L 309.243128 328.849914 
L 309.472391 328.122408 
L 309.701641 329.03179 
L 309.930876 328.304284 
L 310.389302 329.456169 
L 310.618494 327.81928 
L 311.305984 328.486161 
L 311.535119 328.122408 
L 311.764239 328.122408 
L 312.222437 327.273651 
L 312.451514 327.455527 
L 312.680578 327.334276 
L 312.909626 327.81928 
L 313.138661 327.455527 
L 313.367681 326.788647 
L 313.596687 326.909898 
L 313.825678 326.424894 
L 314.054656 326.60677 
L 314.283618 327.031149 
L 314.512567 326.60677 
L 314.741501 326.60677 
L 314.970421 325.879264 
L 315.199327 326.424894 
L 315.428218 326.485519 
L 315.657095 325.93989 
L 315.885958 326.121766 
L 316.114806 326.970523 
L 316.34364 326.303643 
L 316.57246 326.667396 
L 317.030057 327.81928 
L 317.258833 326.667396 
L 317.716344 327.879906 
L 317.945078 327.031149 
L 318.173797 327.637404 
L 318.402503 327.031149 
L 318.631194 327.81928 
L 318.85987 327.879906 
L 319.088533 327.576778 
L 319.545814 328.607412 
L 319.774433 328.304284 
L 320.003039 329.638045 
L 320.231629 328.971165 
L 320.460206 329.03179 
L 320.688768 328.728663 
L 320.917315 329.880547 
L 321.145849 329.638045 
L 321.374368 329.941173 
L 321.602873 329.880547 
L 321.831363 330.365551 
L 322.05984 331.274934 
L 322.288301 330.426177 
L 322.745182 331.578061 
L 322.973601 331.396185 
L 323.202006 331.032432 
L 323.430396 331.881189 
L 323.658772 331.032432 
L 324.343814 332.608695 
L 324.572133 331.699312 
L 325.028727 333.578703 
L 325.257003 333.154324 
L 325.485265 332.244942 
L 325.713512 333.457452 
L 325.941745 333.699954 
L 326.169963 333.396826 
L 326.398167 333.336201 
L 326.626357 333.760579 
L 326.854533 333.21495 
L 327.082694 334.003081 
L 327.310841 334.063707 
L 327.538974 334.366834 
L 327.767092 334.124332 
L 327.995196 334.42746 
L 328.451361 333.457452 
L 328.679422 334.184958 
L 329.135501 334.306209 
L 329.591523 334.366834 
L 329.819513 334.548711 
L 330.047488 334.003081 
L 330.275449 334.548711 
L 330.503395 334.609336 
L 330.731328 335.033715 
L 330.959246 335.09434 
L 331.415038 334.669962 
L 331.642913 335.336842 
L 331.870774 334.973089 
L 332.09862 335.033715 
L 332.326452 335.518719 
L 332.55427 335.63997 
L 332.782074 335.154966 
L 333.237637 334.669962 
L 333.465398 335.336842 
L 333.693144 335.09434 
L 333.920876 335.276217 
L 334.376296 335.154966 
L 334.603985 335.336842 
L 334.83166 335.154966 
L 335.05932 335.579344 
L 335.286966 335.215591 
L 335.514598 335.458093 
L 335.742215 335.336842 
L 335.969818 335.579344 
L 336.197407 335.09434 
L 336.652541 335.943097 
L 337.107618 335.458093 
L 337.335135 335.943097 
L 337.562638 335.518719 
L 337.790127 335.63997 
L 338.017601 336.124974 
L 338.245061 336.185599 
L 338.472506 335.276217 
L 338.699937 335.397468 
L 338.927354 334.851838 
L 339.154757 336.003723 
L 339.382145 336.549352 
L 339.609519 335.336842 
L 339.836879 335.336842 
L 340.064224 335.943097 
L 340.518872 335.518719 
L 340.973462 335.63997 
L 341.427995 335.276217 
L 341.882471 336.246225 
L 342.109688 335.761221 
L 342.564078 335.943097 
L 342.791251 335.882472 
L 343.018411 335.579344 
L 343.245555 335.761221 
L 343.472686 335.761221 
L 343.926904 336.488727 
L 344.153992 335.761221 
L 344.608124 336.003723 
L 344.835169 335.276217 
L 345.062199 336.367476 
L 345.289215 335.63997 
L 345.516217 336.064348 
L 345.743205 335.943097 
L 345.970178 335.63997 
L 346.197137 336.246225 
L 346.424081 336.246225 
L 346.651011 336.064348 
L 346.877927 336.124974 
L 347.331716 336.003723 
L 347.785448 336.185599 
L 348.012292 335.882472 
L 348.239122 336.367476 
L 348.465938 335.882472 
L 348.692739 336.185599 
L 348.919526 336.185599 
L 349.146299 335.882472 
L 349.373057 336.185599 
L 349.599801 336.064348 
L 349.826531 335.518719 
L 350.053246 335.943097 
L 350.279948 335.579344 
L 350.959965 336.003723 
L 351.413239 335.579344 
L 351.866455 336.185599 
L 352.093041 336.124974 
L 352.319614 335.700595 
L 352.546172 336.30685 
L 352.772716 336.064348 
L 352.999245 335.458093 
L 353.22576 336.185599 
L 353.452261 335.518719 
L 353.905219 335.882472 
L 354.131677 335.63997 
L 354.358121 335.882472 
L 354.58455 335.821846 
L 354.810965 335.458093 
L 355.263751 335.458093 
L 355.490123 335.700595 
L 355.942824 335.276217 
L 356.169153 334.730587 
L 356.621768 335.943097 
L 356.848054 335.276217 
L 357.074326 335.518719 
L 357.300583 335.09434 
L 357.526826 335.336842 
L 357.753055 334.912464 
L 357.97927 335.033715 
L 358.20547 334.851838 
L 358.431655 334.42746 
L 358.657827 334.366834 
L 358.883984 334.973089 
L 359.110127 334.912464 
L 359.56237 333.942456 
L 359.78847 334.306209 
L 360.014555 334.306209 
L 360.240627 333.88183 
L 360.466684 333.760579 
L 360.692726 334.548711 
L 360.918755 333.88183 
L 361.144769 333.578703 
L 361.370768 333.88183 
L 361.596754 333.518077 
L 361.822725 332.790571 
L 362.048682 333.21495 
L 362.500552 332.608695 
L 362.726466 333.093699 
L 363.404122 331.45681 
L 363.629978 331.638687 
L 363.855821 332.66932 
L 364.081649 332.244942 
L 364.307462 332.123691 
L 364.533262 331.759938 
L 364.759047 331.881189 
L 364.984817 331.759938 
L 365.210574 332.426818 
L 365.436316 331.45681 
L 365.662043 332.184316 
L 365.887757 330.971806 
L 366.113456 331.032432 
L 366.339141 331.699312 
L 366.790467 330.365551 
L 367.241737 330.78993 
L 367.46735 331.45681 
L 367.692949 330.911181 
L 367.918534 331.153683 
L 368.144104 330.547428 
L 368.595202 330.78993 
L 369.046242 330.426177 
L 369.271741 331.032432 
L 369.497225 331.153683 
L 369.948151 329.941173 
L 370.399019 331.032432 
L 370.624432 330.608053 
L 371.075215 331.335559 
L 371.300585 331.274934 
L 371.52594 331.032432 
L 371.751282 331.214308 
L 371.976609 329.880547 
L 372.201921 331.153683 
L 372.427219 331.517436 
L 372.877773 330.547428 
L 373.103028 331.881189 
L 373.32827 331.032432 
L 373.553496 331.578061 
L 373.778709 331.699312 
L 374.003907 331.093057 
L 374.229091 331.578061 
L 374.45426 330.971806 
L 374.679415 331.093057 
L 375.129683 331.941814 
L 375.354795 331.759938 
L 375.579893 331.396185 
L 375.804976 331.941814 
L 376.030045 331.093057 
L 376.2551 332.184316 
L 376.480141 331.759938 
L 376.930179 332.305567 
L 377.155177 332.244942 
L 377.38016 331.638687 
L 377.605129 332.244942 
L 377.830084 332.123691 
L 378.279951 332.911822 
L 378.504863 331.941814 
L 378.72976 332.66932 
L 378.954643 332.911822 
L 379.179512 332.66932 
L 379.404367 333.457452 
L 379.629207 333.033073 
L 379.854033 333.093699 
L 380.078844 333.396826 
L 380.303642 333.336201 
L 380.528425 333.942456 
L 380.753193 333.699954 
L 380.977948 333.639328 
L 381.202688 334.063707 
L 381.427413 333.457452 
L 381.652125 334.124332 
L 381.876822 334.124332 
L 382.101505 333.396826 
L 382.550827 334.548711 
L 382.775467 333.88183 
L 383.224704 334.548711 
L 383.449301 333.942456 
L 383.673883 334.548711 
L 384.123005 334.973089 
L 384.57207 335.154966 
L 385.021078 335.033715 
L 385.24556 335.63997 
L 385.470028 335.215591 
L 386.143346 336.064348 
L 386.367757 335.579344 
L 386.592154 335.821846 
L 386.816536 336.30685 
L 387.040904 336.124974 
L 387.265257 336.367476 
L 387.489596 336.791854 
L 387.938232 335.943097 
L 388.162528 336.670603 
L 388.38681 336.973731 
L 388.611078 336.428101 
L 388.835331 336.731229 
L 389.05957 336.30685 
L 389.283795 336.791854 
L 389.508005 336.488727 
L 389.956383 337.640611 
L 390.18055 336.731229 
L 390.404703 336.973731 
L 390.628842 336.791854 
L 390.852967 337.51936 
L 391.077077 336.85248 
L 391.301173 337.51936 
L 391.525254 337.155607 
L 391.749322 337.398109 
L 391.973374 337.398109 
L 392.197413 337.094982 
L 392.645447 337.398109 
L 392.869443 337.094982 
L 393.093424 337.337484 
L 393.317391 337.398109 
L 393.541344 337.216233 
L 393.989206 337.458735 
L 394.213116 337.094982 
L 394.437012 337.155607 
L 394.660893 337.579986 
L 394.88476 337.761862 
L 395.108612 336.973731 
L 395.33245 337.51936 
L 395.556274 337.458735 
L 395.780084 337.701237 
L 396.003879 337.034356 
L 396.22766 337.579986 
L 396.675179 337.337484 
L 396.898917 337.822488 
L 397.122641 337.458735 
L 397.34635 337.51936 
L 397.570045 337.276858 
L 397.793726 337.216233 
L 398.017392 337.337484 
L 398.241044 337.701237 
L 398.464682 337.216233 
L 398.688305 337.155607 
L 398.911915 338.186241 
L 399.135509 337.579986 
L 399.35909 337.51936 
L 399.582656 338.186241 
L 399.806208 337.640611 
L 400.029746 337.51936 
L 400.253269 337.094982 
L 400.476778 337.458735 
L 400.700272 337.276858 
L 400.923753 337.337484 
L 401.147219 337.155607 
L 401.37067 337.155607 
L 401.594108 337.398109 
L 401.817531 337.822488 
L 402.264334 337.034356 
L 402.487714 337.51936 
L 402.71108 337.034356 
L 403.157769 337.640611 
L 403.381091 337.337484 
L 403.827694 337.701237 
L 404.27424 337.276858 
L 404.497491 337.276858 
L 404.720728 337.155607 
L 404.943951 337.276858 
L 405.167159 337.094982 
L 405.390353 337.276858 
L 405.613533 336.973731 
L 406.282986 337.458735 
L 406.506108 337.761862 
L 406.729216 337.337484 
L 407.17539 337.216233 
L 407.398455 337.761862 
L 407.621506 337.761862 
L 407.844542 337.216233 
L 408.067565 337.51936 
L 408.290573 337.398109 
L 408.513566 337.458735 
L 408.736545 336.791854 
L 408.95951 337.034356 
L 409.182461 337.51936 
L 409.405397 337.458735 
L 409.62832 337.579986 
L 410.074121 337.51936 
L 410.519865 337.579986 
L 410.742715 337.579986 
L 410.965551 337.822488 
L 411.188373 337.761862 
L 411.411181 337.458735 
L 411.856753 337.822488 
L 412.079517 337.761862 
L 412.302267 338.004364 
L 412.525003 337.579986 
L 412.747725 337.640611 
L 412.970432 337.51936 
L 413.193125 337.640611 
L 413.415804 337.943739 
L 413.861118 338.06499 
L 414.083754 337.822488 
L 414.306376 338.004364 
L 414.528983 337.761862 
L 414.751576 337.883113 
L 414.974154 338.428743 
L 415.196718 338.06499 
L 415.419268 338.004364 
L 415.641804 337.822488 
L 415.864325 338.246866 
L 416.086832 338.004364 
L 416.309324 337.943739 
L 416.531803 338.125615 
L 416.754267 338.06499 
L 416.976716 337.761862 
L 417.199152 338.06499 
L 417.643979 337.943739 
L 417.866372 338.549994 
L 418.08875 337.822488 
L 418.311113 338.307492 
L 418.533463 338.368117 
L 418.755798 337.883113 
L 418.978119 338.125615 
L 419.200425 338.06499 
L 419.422718 338.549994 
L 419.644995 338.246866 
L 419.867259 338.246866 
L 420.089508 338.004364 
L 420.311743 337.943739 
L 420.75617 338.06499 
L 420.978362 338.004364 
L 421.20054 338.428743 
L 421.422703 338.186241 
L 421.644852 337.761862 
L 421.866987 337.883113 
L 422.089107 337.761862 
L 422.311213 337.822488 
L 422.533305 338.246866 
L 422.977446 337.943739 
L 423.421529 338.125615 
L 423.643549 337.943739 
L 423.865555 338.246866 
L 424.087547 338.004364 
L 424.309524 337.579986 
L 424.531487 337.943739 
L 424.753436 338.06499 
L 424.97537 338.004364 
L 425.19729 338.246866 
L 425.419196 338.06499 
L 425.641087 337.701237 
L 425.862964 338.125615 
L 426.084827 337.458735 
L 426.306675 337.822488 
L 426.528509 337.579986 
L 426.750329 337.51936 
L 426.972135 337.883113 
L 427.415703 337.51936 
L 427.637465 337.822488 
L 428.080947 337.276858 
L 428.746063 337.701237 
L 428.96774 337.034356 
L 429.189402 337.155607 
L 429.41105 337.458735 
L 429.632684 337.216233 
L 430.075908 337.216233 
L 430.297499 337.458735 
L 430.519075 337.155607 
L 430.740638 337.337484 
L 430.962185 336.973731 
L 431.183719 337.094982 
L 431.405238 337.034356 
L 431.626743 337.094982 
L 431.848234 337.883113 
L 432.06971 336.791854 
L 432.291172 337.398109 
L 432.734053 337.094982 
L 432.955472 336.609978 
L 433.176876 337.337484 
L 433.398267 336.731229 
L 433.619643 336.973731 
L 433.841004 336.913105 
L 434.062352 336.609978 
L 434.283685 336.549352 
L 434.505004 336.609978 
L 434.726308 336.488727 
L 434.947598 336.791854 
L 435.168874 336.428101 
L 435.390136 336.488727 
L 435.611383 336.124974 
L 435.832616 336.367476 
L 436.053834 336.973731 
L 436.275039 336.124974 
L 436.496228 336.003723 
L 436.717404 336.246225 
L 437.601963 336.488727 
L 437.823068 335.882472 
L 438.044157 336.428101 
L 438.265233 336.488727 
L 438.486294 336.124974 
L 438.707341 336.791854 
L 438.928373 336.124974 
L 439.149391 336.124974 
L 439.370395 336.488727 
L 439.591385 335.943097 
L 440.033321 336.85248 
L 440.254267 336.064348 
L 440.4752 336.549352 
L 440.696118 336.731229 
L 440.917021 336.246225 
L 441.137911 336.30685 
L 441.358786 336.246225 
L 441.579646 336.973731 
L 441.800493 336.428101 
L 442.021325 336.185599 
L 442.242143 335.63997 
L 442.462946 336.488727 
L 442.90451 336.488727 
L 443.12527 336.246225 
L 443.346017 336.367476 
L 443.566748 335.943097 
L 443.787466 336.731229 
L 444.008169 336.367476 
L 444.670193 336.609978 
L 444.890839 337.094982 
L 445.111471 336.185599 
L 445.552691 336.913105 
L 445.77328 336.85248 
L 445.993854 337.034356 
L 446.214414 337.034356 
L 446.43496 336.609978 
L 446.655492 336.731229 
L 446.876009 336.30685 
L 447.096512 337.034356 
L 447.537474 336.549352 
L 447.97838 337.155607 
L 448.419228 336.791854 
L 448.639631 337.216233 
L 448.860019 337.216233 
L 449.080393 336.791854 
L 449.300753 336.85248 
L 449.521098 337.398109 
L 449.741429 336.913105 
L 449.961746 337.276858 
L 450.182048 337.398109 
L 450.402336 337.034356 
L 450.62261 337.458735 
L 450.84287 337.640611 
L 451.063115 337.51936 
L 451.283346 337.094982 
L 451.503562 337.458735 
L 451.723764 337.276858 
L 452.164126 337.398109 
L 452.384285 338.125615 
L 452.60443 337.458735 
L 452.60443 337.458735 
" clip-path="url(#p10f9c9abed)" style="fill: none; stroke: #00b945; stroke-width: 2; stroke-linecap: square"/>
   </g>
   <g id="patch_3">
    <path d="M 52.03 354.3975 
L 52.03 21.7575 
" style="fill: none; stroke: #000000; stroke-linejoin: miter; stroke-linecap: square"/>
   </g>
   <g id="patch_4">
    <path d="M 498.43 354.3975 
L 498.43 21.7575 
" style="fill: none; stroke: #000000; stroke-linejoin: miter; stroke-linecap: square"/>
   </g>
   <g id="patch_5">
    <path d="M 52.03 354.3975 
L 498.43 354.3975 
" style="fill: none; stroke: #000000; stroke-linejoin: miter; stroke-linecap: square"/>
   </g>
   <g id="patch_6">
    <path d="M 52.03 21.7575 
L 498.43 21.7575 
" style="fill: none; stroke: #000000; stroke-linejoin: miter; stroke-linecap: square"/>
   </g>
   <g id="text_15">
    <!-- Normalized comparison of laser line -->
    <g transform="translate(131.3275 15.7575) scale(0.16 -0.16)">
     <defs>
      <path id="DejaVuSans-4e" d="M 628 4666 
L 1478 4666 
L 3547 763 
L 3547 4666 
L 4159 4666 
L 4159 0 
L 3309 0 
L 1241 3903 
L 1241 0 
L 628 0 
L 628 4666 
z
" transform="scale(0.015625)"/>
      <path id="DejaVuSans-6f" d="M 1959 3097 
Q 1497 3097 1228 2736 
Q 959 2375 959 1747 
Q 959 1119 1226 758 
Q 1494 397 1959 397 
Q 2419 397 2687 759 
Q 2956 1122 2956 1747 
Q 2956 2369 2687 2733 
Q 2419 3097 1959 3097 
z
M 1959 3584 
Q 2709 3584 3137 3096 
Q 3566 2609 3566 1747 
Q 3566 888 3137 398 
Q 2709 -91 1959 -91 
Q 1206 -91 779 398 
Q 353 888 353 1747 
Q 353 2609 779 3096 
Q 1206 3584 1959 3584 
z
" transform="scale(0.015625)"/>
      <path id="DejaVuSans-72" d="M 2631 2963 
Q 2534 3019 2420 3045 
Q 2306 3072 2169 3072 
Q 1681 3072 1420 2755 
Q 1159 2438 1159 1844 
L 1159 0 
L 581 0 
L 581 3500 
L 1159 3500 
L 1159 2956 
Q 1341 3275 1631 3429 
Q 1922 3584 2338 3584 
Q 2397 3584 2469 3576 
Q 2541 3569 2628 3553 
L 2631 2963 
z
" transform="scale(0.015625)"/>
      <path id="DejaVuSans-7a" d="M 353 3500 
L 3084 3500 
L 3084 2975 
L 922 459 
L 3084 459 
L 3084 0 
L 275 0 
L 275 525 
L 2438 3041 
L 353 3041 
L 353 3500 
z
" transform="scale(0.015625)"/>
      <path id="DejaVuSans-64" d="M 2906 2969 
L 2906 4863 
L 3481 4863 
L 3481 0 
L 2906 0 
L 2906 525 
Q 2725 213 2448 61 
Q 2172 -91 1784 -91 
Q 1150 -91 751 415 
Q 353 922 353 1747 
Q 353 2572 751 3078 
Q 1150 3584 1784 3584 
Q 2172 3584 2448 3432 
Q 2725 3281 2906 2969 
z
M 947 1747 
Q 947 1113 1208 752 
Q 1469 391 1925 391 
Q 2381 391 2643 752 
Q 2906 1113 2906 1747 
Q 2906 2381 2643 2742 
Q 2381 3103 1925 3103 
Q 1469 3103 1208 2742 
Q 947 2381 947 1747 
z
" transform="scale(0.015625)"/>
      <path id="DejaVuSans-63" d="M 3122 3366 
L 3122 2828 
Q 2878 2963 2633 3030 
Q 2388 3097 2138 3097 
Q 1578 3097 1268 2742 
Q 959 2388 959 1747 
Q 959 1106 1268 751 
Q 1578 397 2138 397 
Q 2388 397 2633 464 
Q 2878 531 3122 666 
L 3122 134 
Q 2881 22 2623 -34 
Q 2366 -91 2075 -91 
Q 1284 -91 818 406 
Q 353 903 353 1747 
Q 353 2603 823 3093 
Q 1294 3584 2113 3584 
Q 2378 3584 2631 3529 
Q 2884 3475 3122 3366 
z
" transform="scale(0.015625)"/>
      <path id="DejaVuSans-70" d="M 1159 525 
L 1159 -1331 
L 581 -1331 
L 581 3500 
L 1159 3500 
L 1159 2969 
Q 1341 3281 1617 3432 
Q 1894 3584 2278 3584 
Q 2916 3584 3314 3078 
Q 3713 2572 3713 1747 
Q 3713 922 3314 415 
Q 2916 -91 2278 -91 
Q 1894 -91 1617 61 
Q 1341 213 1159 525 
z
M 3116 1747 
Q 3116 2381 2855 2742 
Q 2594 3103 2138 3103 
Q 1681 3103 1420 2742 
Q 1159 2381 1159 1747 
Q 1159 1113 1420 752 
Q 1681 391 2138 391 
Q 2594 391 2855 752 
Q 3116 1113 3116 1747 
z
" transform="scale(0.015625)"/>
      <path id="DejaVuSans-66" d="M 2375 4863 
L 2375 4384 
L 1825 4384 
Q 1516 4384 1395 4259 
Q 1275 4134 1275 3809 
L 1275 3500 
L 2222 3500 
L 2222 3053 
L 1275 3053 
L 1275 0 
L 697 0 
L 697 3053 
L 147 3053 
L 147 3500 
L 697 3500 
L 697 3744 
Q 697 4328 969 4595 
Q 1241 4863 1831 4863 
L 2375 4863 
z
" transform="scale(0.015625)"/>
     </defs>
     <use xlink:href="#DejaVuSans-4e"/>
     <use xlink:href="#DejaVuSans-6f" transform="translate(74.804688 0)"/>
     <use xlink:href="#DejaVuSans-72" transform="translate(135.986328 0)"/>
     <use xlink:href="#DejaVuSans-6d" transform="translate(175.349609 0)"/>
     <use xlink:href="#DejaVuSans-61" transform="translate(272.761719 0)"/>
     <use xlink:href="#DejaVuSans-6c" transform="translate(334.041016 0)"/>
     <use xlink:href="#DejaVuSans-69" transform="translate(361.824219 0)"/>
     <use xlink:href="#DejaVuSans-7a" transform="translate(389.607422 0)"/>
     <use xlink:href="#DejaVuSans-65" transform="translate(442.097656 0)"/>
     <use xlink:href="#DejaVuSans-64" transform="translate(503.621094 0)"/>
     <use xlink:href="#DejaVuSans-20" transform="translate(567.097656 0)"/>
     <use xlink:href="#DejaVuSans-63" transform="translate(598.884766 0)"/>
     <use xlink:href="#DejaVuSans-6f" transform="translate(653.865234 0)"/>
     <use xlink:href="#DejaVuSans-6d" transform="translate(715.046875 0)"/>
     <use xlink:href="#DejaVuSans-70" transform="translate(812.458984 0)"/>
     <use xlink:href="#DejaVuSans-61" transform="translate(875.935547 0)"/>
     <use xlink:href="#DejaVuSans-72" transform="translate(937.214844 0)"/>
     <use xlink:href="#DejaVuSans-69" transform="translate(978.328125 0)"/>
     <use xlink:href="#DejaVuSans-73" transform="translate(1006.111328 0)"/>
     <use xlink:href="#DejaVuSans-6f" transform="translate(1058.210938 0)"/>
     <use xlink:href="#DejaVuSans-6e" transform="translate(1119.392578 0)"/>
     <use xlink:href="#DejaVuSans-20" transform="translate(1182.771484 0)"/>
     <use xlink:href="#DejaVuSans-6f" transform="translate(1214.558594 0)"/>
     <use xlink:href="#DejaVuSans-66" transform="translate(1275.740234 0)"/>
     <use xlink:href="#DejaVuSans-20" transform="translate(1310.945312 0)"/>
     <use xlink:href="#DejaVuSans-6c" transform="translate(1342.732422 0)"/>
     <use xlink:href="#DejaVuSans-61" transform="translate(1370.515625 0)"/>
     <use xlink:href="#DejaVuSans-73" transform="translate(1431.794922 0)"/>
     <use xlink:href="#DejaVuSans-65" transform="translate(1483.894531 0)"/>
     <use xlink:href="#DejaVuSans-72" transform="translate(1545.417969 0)"/>
     <use xlink:href="#DejaVuSans-20" transform="translate(1586.53125 0)"/>
     <use xlink:href="#DejaVuSans-6c" transform="translate(1618.318359 0)"/>
     <use xlink:href="#DejaVuSans-69" transform="translate(1646.101562 0)"/>
     <use xlink:href="#DejaVuSans-6e" transform="translate(1673.884766 0)"/>
     <use xlink:href="#DejaVuSans-65" transform="translate(1737.263672 0)"/>
    </g>
   </g>
   <g id="legend_1">
    <g id="line2d_101">
     <path d="M 313.88 42.715 
L 329.88 42.715 
L 345.88 42.715 
" style="fill: none; stroke: #0c5da5; stroke-width: 2; stroke-linecap: square"/>
    </g>
    <g id="text_16">
     <!-- ND4 + Fiber -->
     <g transform="translate(358.68 48.315) scale(0.16 -0.16)">
      <defs>
       <path id="DejaVuSans-44" d="M 1259 4147 
L 1259 519 
L 2022 519 
Q 2988 519 3436 956 
Q 3884 1394 3884 2338 
Q 3884 3275 3436 3711 
Q 2988 4147 2022 4147 
L 1259 4147 
z
M 628 4666 
L 1925 4666 
Q 3281 4666 3915 4102 
Q 4550 3538 4550 2338 
Q 4550 1131 3912 565 
Q 3275 0 1925 0 
L 628 0 
L 628 4666 
z
" transform="scale(0.015625)"/>
       <path id="DejaVuSans-2b" d="M 2944 4013 
L 2944 2272 
L 4684 2272 
L 4684 1741 
L 2944 1741 
L 2944 0 
L 2419 0 
L 2419 1741 
L 678 1741 
L 678 2272 
L 2419 2272 
L 2419 4013 
L 2944 4013 
z
" transform="scale(0.015625)"/>
       <path id="DejaVuSans-46" d="M 628 4666 
L 3309 4666 
L 3309 4134 
L 1259 4134 
L 1259 2759 
L 3109 2759 
L 3109 2228 
L 1259 2228 
L 1259 0 
L 628 0 
L 628 4666 
z
" transform="scale(0.015625)"/>
       <path id="DejaVuSans-62" d="M 3116 1747 
Q 3116 2381 2855 2742 
Q 2594 3103 2138 3103 
Q 1681 3103 1420 2742 
Q 1159 2381 1159 1747 
Q 1159 1113 1420 752 
Q 1681 391 2138 391 
Q 2594 391 2855 752 
Q 3116 1113 3116 1747 
z
M 1159 2969 
Q 1341 3281 1617 3432 
Q 1894 3584 2278 3584 
Q 2916 3584 3314 3078 
Q 3713 2572 3713 1747 
Q 3713 922 3314 415 
Q 2916 -91 2278 -91 
Q 1894 -91 1617 61 
Q 1341 213 1159 525 
L 1159 0 
L 581 0 
L 581 4863 
L 1159 4863 
L 1159 2969 
z
" transform="scale(0.015625)"/>
      </defs>
      <use xlink:href="#DejaVuSans-4e"/>
      <use xlink:href="#DejaVuSans-44" transform="translate(74.804688 0)"/>
      <use xlink:href="#DejaVuSans-34" transform="translate(151.806641 0)"/>
      <use xlink:href="#DejaVuSans-20" transform="translate(215.429688 0)"/>
      <use xlink:href="#DejaVuSans-2b" transform="translate(247.216797 0)"/>
      <use xlink:href="#DejaVuSans-20" transform="translate(331.005859 0)"/>
      <use xlink:href="#DejaVuSans-46" transform="translate(362.792969 0)"/>
      <use xlink:href="#DejaVuSans-69" transform="translate(413.0625 0)"/>
      <use xlink:href="#DejaVuSans-62" transform="translate(440.845703 0)"/>
      <use xlink:href="#DejaVuSans-65" transform="translate(504.322266 0)"/>
      <use xlink:href="#DejaVuSans-72" transform="translate(565.845703 0)"/>
     </g>
    </g>
    <g id="line2d_102">
     <path d="M 313.88 66.2 
L 329.88 66.2 
L 345.88 66.2 
" style="fill: none; stroke: #00b945; stroke-width: 2; stroke-linecap: square"/>
    </g>
    <g id="text_17">
     <!-- Glass cover slip -->
     <g transform="translate(358.68 71.8) scale(0.16 -0.16)">
      <defs>
       <path id="DejaVuSans-47" d="M 3809 666 
L 3809 1919 
L 2778 1919 
L 2778 2438 
L 4434 2438 
L 4434 434 
Q 4069 175 3628 42 
Q 3188 -91 2688 -91 
Q 1594 -91 976 548 
Q 359 1188 359 2328 
Q 359 3472 976 4111 
Q 1594 4750 2688 4750 
Q 3144 4750 3555 4637 
Q 3966 4525 4313 4306 
L 4313 3634 
Q 3963 3931 3569 4081 
Q 3175 4231 2741 4231 
Q 1884 4231 1454 3753 
Q 1025 3275 1025 2328 
Q 1025 1384 1454 906 
Q 1884 428 2741 428 
Q 3075 428 3337 486 
Q 3600 544 3809 666 
z
" transform="scale(0.015625)"/>
      </defs>
      <use xlink:href="#DejaVuSans-47"/>
      <use xlink:href="#DejaVuSans-6c" transform="translate(77.490234 0)"/>
      <use xlink:href="#DejaVuSans-61" transform="translate(105.273438 0)"/>
      <use xlink:href="#DejaVuSans-73" transform="translate(166.552734 0)"/>
      <use xlink:href="#DejaVuSans-73" transform="translate(218.652344 0)"/>
      <use xlink:href="#DejaVuSans-20" transform="translate(270.751953 0)"/>
      <use xlink:href="#DejaVuSans-63" transform="translate(302.539062 0)"/>
      <use xlink:href="#DejaVuSans-6f" transform="translate(357.519531 0)"/>
      <use xlink:href="#DejaVuSans-76" transform="translate(418.701172 0)"/>
      <use xlink:href="#DejaVuSans-65" transform="translate(477.880859 0)"/>
      <use xlink:href="#DejaVuSans-72" transform="translate(539.404297 0)"/>
      <use xlink:href="#DejaVuSans-20" transform="translate(580.517578 0)"/>
      <use xlink:href="#DejaVuSans-73" transform="translate(612.304688 0)"/>
      <use xlink:href="#DejaVuSans-6c" transform="translate(664.404297 0)"/>
      <use xlink:href="#DejaVuSans-69" transform="translate(692.1875 0)"/>
      <use xlink:href="#DejaVuSans-70" transform="translate(719.970703 0)"/>
     </g>
    </g>
   </g>
  </g>
 </g>
 <defs>
  <clipPath id="p10f9c9abed">
   <rect x="52.03" y="21.7575" width="446.4" height="332.64"/>
  </clipPath>
 </defs>
</svg>
