<?xml version="1.0" encoding="utf-8" standalone="no"?>
<!DOCTYPE svg PUBLIC "-//W3C//DTD SVG 1.1//EN"
  "http://www.w3.org/Graphics/SVG/1.1/DTD/svg11.dtd">
<svg xmlns:xlink="http://www.w3.org/1999/xlink" width="517.3pt" height="396.4675pt" viewBox="0 0 517.3 396.4675" xmlns="http://www.w3.org/2000/svg" version="1.1">
 <metadata>
  <rdf:RDF xmlns:dc="http://purl.org/dc/elements/1.1/" xmlns:cc="http://creativecommons.org/ns#" xmlns:rdf="http://www.w3.org/1999/02/22-rdf-syntax-ns#">
   <cc:Work>
    <dc:type rdf:resource="http://purl.org/dc/dcmitype/StillImage"/>
    <dc:date>2025-01-20T22:54:05.361609</dc:date>
    <dc:format>image/svg+xml</dc:format>
    <dc:creator>
     <cc:Agent>
      <dc:title>Matplotlib v3.10.0, https://matplotlib.org/</dc:title>
     </cc:Agent>
    </dc:creator>
   </cc:Work>
  </rdf:RDF>
 </metadata>
 <defs>
  <style type="text/css">*{stroke-linejoin: round; stroke-linecap: butt}</style>
 </defs>
 <g id="figure_1">
  <g id="patch_1">
   <path d="M 0 396.4675 
L 517.3 396.4675 
L 517.3 0 
L 0 0 
z
" style="fill: #ffffff"/>
  </g>
  <g id="axes_1">
   <g id="patch_2">
    <path d="M 52.03 354.3975 
L 498.43 354.3975 
L 498.43 21.7575 
L 52.03 21.7575 
z
" style="fill: #ffffff"/>
   </g>
   <g id="matplotlib.axis_1">
    <g id="xtick_1">
     <g id="line2d_1">
      <defs>
       <path id="mfcfc3a194c" d="M 0 0 
L 0 -6 
" style="stroke: #000000"/>
      </defs>
      <g>
       <use xlink:href="#mfcfc3a194c" x="92.611818" y="354.3975" style="stroke: #000000"/>
      </g>
     </g>
     <g id="line2d_2">
      <defs>
       <path id="m8a8fb77e00" d="M 0 0 
L 0 6 
" style="stroke: #000000"/>
      </defs>
      <g>
       <use xlink:href="#m8a8fb77e00" x="92.611818" y="21.7575" style="stroke: #000000"/>
      </g>
     </g>
     <g id="text_1">
      <!-- 530 -->
      <g transform="translate(77.341818 370.055) scale(0.16 -0.16)">
       <defs>
        <path id="DejaVuSans-35" d="M 691 4666 
L 3169 4666 
L 3169 4134 
L 1269 4134 
L 1269 2991 
Q 1406 3038 1543 3061 
Q 1681 3084 1819 3084 
Q 2600 3084 3056 2656 
Q 3513 2228 3513 1497 
Q 3513 744 3044 326 
Q 2575 -91 1722 -91 
Q 1428 -91 1123 -41 
Q 819 9 494 109 
L 494 744 
Q 775 591 1075 516 
Q 1375 441 1709 441 
Q 2250 441 2565 725 
Q 2881 1009 2881 1497 
Q 2881 1984 2565 2268 
Q 2250 2553 1709 2553 
Q 1456 2553 1204 2497 
Q 953 2441 691 2322 
L 691 4666 
z
" transform="scale(0.015625)"/>
        <path id="DejaVuSans-33" d="M 2597 2516 
Q 3050 2419 3304 2112 
Q 3559 1806 3559 1356 
Q 3559 666 3084 287 
Q 2609 -91 1734 -91 
Q 1441 -91 1130 -33 
Q 819 25 488 141 
L 488 750 
Q 750 597 1062 519 
Q 1375 441 1716 441 
Q 2309 441 2620 675 
Q 2931 909 2931 1356 
Q 2931 1769 2642 2001 
Q 2353 2234 1838 2234 
L 1294 2234 
L 1294 2753 
L 1863 2753 
Q 2328 2753 2575 2939 
Q 2822 3125 2822 3475 
Q 2822 3834 2567 4026 
Q 2313 4219 1838 4219 
Q 1578 4219 1281 4162 
Q 984 4106 628 3988 
L 628 4550 
Q 988 4650 1302 4700 
Q 1616 4750 1894 4750 
Q 2613 4750 3031 4423 
Q 3450 4097 3450 3541 
Q 3450 3153 3228 2886 
Q 3006 2619 2597 2516 
z
" transform="scale(0.015625)"/>
        <path id="DejaVuSans-30" d="M 2034 4250 
Q 1547 4250 1301 3770 
Q 1056 3291 1056 2328 
Q 1056 1369 1301 889 
Q 1547 409 2034 409 
Q 2525 409 2770 889 
Q 3016 1369 3016 2328 
Q 3016 3291 2770 3770 
Q 2525 4250 2034 4250 
z
M 2034 4750 
Q 2819 4750 3233 4129 
Q 3647 3509 3647 2328 
Q 3647 1150 3233 529 
Q 2819 -91 2034 -91 
Q 1250 -91 836 529 
Q 422 1150 422 2328 
Q 422 3509 836 4129 
Q 1250 4750 2034 4750 
z
" transform="scale(0.015625)"/>
       </defs>
       <use xlink:href="#DejaVuSans-35"/>
       <use xlink:href="#DejaVuSans-33" transform="translate(63.623047 0)"/>
       <use xlink:href="#DejaVuSans-30" transform="translate(127.246094 0)"/>
      </g>
     </g>
    </g>
    <g id="xtick_2">
     <g id="line2d_3">
      <g>
       <use xlink:href="#mfcfc3a194c" x="173.775455" y="354.3975" style="stroke: #000000"/>
      </g>
     </g>
     <g id="line2d_4">
      <g>
       <use xlink:href="#m8a8fb77e00" x="173.775455" y="21.7575" style="stroke: #000000"/>
      </g>
     </g>
     <g id="text_2">
      <!-- 540 -->
      <g transform="translate(158.505455 370.055) scale(0.16 -0.16)">
       <defs>
        <path id="DejaVuSans-34" d="M 2419 4116 
L 825 1625 
L 2419 1625 
L 2419 4116 
z
M 2253 4666 
L 3047 4666 
L 3047 1625 
L 3713 1625 
L 3713 1100 
L 3047 1100 
L 3047 0 
L 2419 0 
L 2419 1100 
L 313 1100 
L 313 1709 
L 2253 4666 
z
" transform="scale(0.015625)"/>
       </defs>
       <use xlink:href="#DejaVuSans-35"/>
       <use xlink:href="#DejaVuSans-34" transform="translate(63.623047 0)"/>
       <use xlink:href="#DejaVuSans-30" transform="translate(127.246094 0)"/>
      </g>
     </g>
    </g>
    <g id="xtick_3">
     <g id="line2d_5">
      <g>
       <use xlink:href="#mfcfc3a194c" x="254.939091" y="354.3975" style="stroke: #000000"/>
      </g>
     </g>
     <g id="line2d_6">
      <g>
       <use xlink:href="#m8a8fb77e00" x="254.939091" y="21.7575" style="stroke: #000000"/>
      </g>
     </g>
     <g id="text_3">
      <!-- 550 -->
      <g transform="translate(239.669091 370.055) scale(0.16 -0.16)">
       <use xlink:href="#DejaVuSans-35"/>
       <use xlink:href="#DejaVuSans-35" transform="translate(63.623047 0)"/>
       <use xlink:href="#DejaVuSans-30" transform="translate(127.246094 0)"/>
      </g>
     </g>
    </g>
    <g id="xtick_4">
     <g id="line2d_7">
      <g>
       <use xlink:href="#mfcfc3a194c" x="336.102727" y="354.3975" style="stroke: #000000"/>
      </g>
     </g>
     <g id="line2d_8">
      <g>
       <use xlink:href="#m8a8fb77e00" x="336.102727" y="21.7575" style="stroke: #000000"/>
      </g>
     </g>
     <g id="text_4">
      <!-- 560 -->
      <g transform="translate(320.832727 370.055) scale(0.16 -0.16)">
       <defs>
        <path id="DejaVuSans-36" d="M 2113 2584 
Q 1688 2584 1439 2293 
Q 1191 2003 1191 1497 
Q 1191 994 1439 701 
Q 1688 409 2113 409 
Q 2538 409 2786 701 
Q 3034 994 3034 1497 
Q 3034 2003 2786 2293 
Q 2538 2584 2113 2584 
z
M 3366 4563 
L 3366 3988 
Q 3128 4100 2886 4159 
Q 2644 4219 2406 4219 
Q 1781 4219 1451 3797 
Q 1122 3375 1075 2522 
Q 1259 2794 1537 2939 
Q 1816 3084 2150 3084 
Q 2853 3084 3261 2657 
Q 3669 2231 3669 1497 
Q 3669 778 3244 343 
Q 2819 -91 2113 -91 
Q 1303 -91 875 529 
Q 447 1150 447 2328 
Q 447 3434 972 4092 
Q 1497 4750 2381 4750 
Q 2619 4750 2861 4703 
Q 3103 4656 3366 4563 
z
" transform="scale(0.015625)"/>
       </defs>
       <use xlink:href="#DejaVuSans-35"/>
       <use xlink:href="#DejaVuSans-36" transform="translate(63.623047 0)"/>
       <use xlink:href="#DejaVuSans-30" transform="translate(127.246094 0)"/>
      </g>
     </g>
    </g>
    <g id="xtick_5">
     <g id="line2d_9">
      <g>
       <use xlink:href="#mfcfc3a194c" x="417.266364" y="354.3975" style="stroke: #000000"/>
      </g>
     </g>
     <g id="line2d_10">
      <g>
       <use xlink:href="#m8a8fb77e00" x="417.266364" y="21.7575" style="stroke: #000000"/>
      </g>
     </g>
     <g id="text_5">
      <!-- 570 -->
      <g transform="translate(401.996364 370.055) scale(0.16 -0.16)">
       <defs>
        <path id="DejaVuSans-37" d="M 525 4666 
L 3525 4666 
L 3525 4397 
L 1831 0 
L 1172 0 
L 2766 4134 
L 525 4134 
L 525 4666 
z
" transform="scale(0.015625)"/>
       </defs>
       <use xlink:href="#DejaVuSans-35"/>
       <use xlink:href="#DejaVuSans-37" transform="translate(63.623047 0)"/>
       <use xlink:href="#DejaVuSans-30" transform="translate(127.246094 0)"/>
      </g>
     </g>
    </g>
    <g id="xtick_6">
     <g id="line2d_11">
      <g>
       <use xlink:href="#mfcfc3a194c" x="498.43" y="354.3975" style="stroke: #000000"/>
      </g>
     </g>
     <g id="line2d_12">
      <g>
       <use xlink:href="#m8a8fb77e00" x="498.43" y="21.7575" style="stroke: #000000"/>
      </g>
     </g>
     <g id="text_6">
      <!-- 580 -->
      <g transform="translate(483.16 370.055) scale(0.16 -0.16)">
       <defs>
        <path id="DejaVuSans-38" d="M 2034 2216 
Q 1584 2216 1326 1975 
Q 1069 1734 1069 1313 
Q 1069 891 1326 650 
Q 1584 409 2034 409 
Q 2484 409 2743 651 
Q 3003 894 3003 1313 
Q 3003 1734 2745 1975 
Q 2488 2216 2034 2216 
z
M 1403 2484 
Q 997 2584 770 2862 
Q 544 3141 544 3541 
Q 544 4100 942 4425 
Q 1341 4750 2034 4750 
Q 2731 4750 3128 4425 
Q 3525 4100 3525 3541 
Q 3525 3141 3298 2862 
Q 3072 2584 2669 2484 
Q 3125 2378 3379 2068 
Q 3634 1759 3634 1313 
Q 3634 634 3220 271 
Q 2806 -91 2034 -91 
Q 1263 -91 848 271 
Q 434 634 434 1313 
Q 434 1759 690 2068 
Q 947 2378 1403 2484 
z
M 1172 3481 
Q 1172 3119 1398 2916 
Q 1625 2713 2034 2713 
Q 2441 2713 2670 2916 
Q 2900 3119 2900 3481 
Q 2900 3844 2670 4047 
Q 2441 4250 2034 4250 
Q 1625 4250 1398 4047 
Q 1172 3844 1172 3481 
z
" transform="scale(0.015625)"/>
       </defs>
       <use xlink:href="#DejaVuSans-35"/>
       <use xlink:href="#DejaVuSans-38" transform="translate(63.623047 0)"/>
       <use xlink:href="#DejaVuSans-30" transform="translate(127.246094 0)"/>
      </g>
     </g>
    </g>
    <g id="xtick_7">
     <g id="line2d_13">
      <defs>
       <path id="mf6b2b5c0ea" d="M 0 0 
L 0 -3 
" style="stroke: #000000"/>
      </defs>
      <g>
       <use xlink:href="#mf6b2b5c0ea" x="60.146364" y="354.3975" style="stroke: #000000"/>
      </g>
     </g>
     <g id="line2d_14">
      <defs>
       <path id="ma5a124633b" d="M 0 0 
L 0 3 
" style="stroke: #000000"/>
      </defs>
      <g>
       <use xlink:href="#ma5a124633b" x="60.146364" y="21.7575" style="stroke: #000000"/>
      </g>
     </g>
    </g>
    <g id="xtick_8">
     <g id="line2d_15">
      <g>
       <use xlink:href="#mf6b2b5c0ea" x="76.379091" y="354.3975" style="stroke: #000000"/>
      </g>
     </g>
     <g id="line2d_16">
      <g>
       <use xlink:href="#ma5a124633b" x="76.379091" y="21.7575" style="stroke: #000000"/>
      </g>
     </g>
    </g>
    <g id="xtick_9">
     <g id="line2d_17">
      <g>
       <use xlink:href="#mf6b2b5c0ea" x="108.844545" y="354.3975" style="stroke: #000000"/>
      </g>
     </g>
     <g id="line2d_18">
      <g>
       <use xlink:href="#ma5a124633b" x="108.844545" y="21.7575" style="stroke: #000000"/>
      </g>
     </g>
    </g>
    <g id="xtick_10">
     <g id="line2d_19">
      <g>
       <use xlink:href="#mf6b2b5c0ea" x="125.077273" y="354.3975" style="stroke: #000000"/>
      </g>
     </g>
     <g id="line2d_20">
      <g>
       <use xlink:href="#ma5a124633b" x="125.077273" y="21.7575" style="stroke: #000000"/>
      </g>
     </g>
    </g>
    <g id="xtick_11">
     <g id="line2d_21">
      <g>
       <use xlink:href="#mf6b2b5c0ea" x="141.31" y="354.3975" style="stroke: #000000"/>
      </g>
     </g>
     <g id="line2d_22">
      <g>
       <use xlink:href="#ma5a124633b" x="141.31" y="21.7575" style="stroke: #000000"/>
      </g>
     </g>
    </g>
    <g id="xtick_12">
     <g id="line2d_23">
      <g>
       <use xlink:href="#mf6b2b5c0ea" x="157.542727" y="354.3975" style="stroke: #000000"/>
      </g>
     </g>
     <g id="line2d_24">
      <g>
       <use xlink:href="#ma5a124633b" x="157.542727" y="21.7575" style="stroke: #000000"/>
      </g>
     </g>
    </g>
    <g id="xtick_13">
     <g id="line2d_25">
      <g>
       <use xlink:href="#mf6b2b5c0ea" x="190.008182" y="354.3975" style="stroke: #000000"/>
      </g>
     </g>
     <g id="line2d_26">
      <g>
       <use xlink:href="#ma5a124633b" x="190.008182" y="21.7575" style="stroke: #000000"/>
      </g>
     </g>
    </g>
    <g id="xtick_14">
     <g id="line2d_27">
      <g>
       <use xlink:href="#mf6b2b5c0ea" x="206.240909" y="354.3975" style="stroke: #000000"/>
      </g>
     </g>
     <g id="line2d_28">
      <g>
       <use xlink:href="#ma5a124633b" x="206.240909" y="21.7575" style="stroke: #000000"/>
      </g>
     </g>
    </g>
    <g id="xtick_15">
     <g id="line2d_29">
      <g>
       <use xlink:href="#mf6b2b5c0ea" x="222.473636" y="354.3975" style="stroke: #000000"/>
      </g>
     </g>
     <g id="line2d_30">
      <g>
       <use xlink:href="#ma5a124633b" x="222.473636" y="21.7575" style="stroke: #000000"/>
      </g>
     </g>
    </g>
    <g id="xtick_16">
     <g id="line2d_31">
      <g>
       <use xlink:href="#mf6b2b5c0ea" x="238.706364" y="354.3975" style="stroke: #000000"/>
      </g>
     </g>
     <g id="line2d_32">
      <g>
       <use xlink:href="#ma5a124633b" x="238.706364" y="21.7575" style="stroke: #000000"/>
      </g>
     </g>
    </g>
    <g id="xtick_17">
     <g id="line2d_33">
      <g>
       <use xlink:href="#mf6b2b5c0ea" x="271.171818" y="354.3975" style="stroke: #000000"/>
      </g>
     </g>
     <g id="line2d_34">
      <g>
       <use xlink:href="#ma5a124633b" x="271.171818" y="21.7575" style="stroke: #000000"/>
      </g>
     </g>
    </g>
    <g id="xtick_18">
     <g id="line2d_35">
      <g>
       <use xlink:href="#mf6b2b5c0ea" x="287.404545" y="354.3975" style="stroke: #000000"/>
      </g>
     </g>
     <g id="line2d_36">
      <g>
       <use xlink:href="#ma5a124633b" x="287.404545" y="21.7575" style="stroke: #000000"/>
      </g>
     </g>
    </g>
    <g id="xtick_19">
     <g id="line2d_37">
      <g>
       <use xlink:href="#mf6b2b5c0ea" x="303.637273" y="354.3975" style="stroke: #000000"/>
      </g>
     </g>
     <g id="line2d_38">
      <g>
       <use xlink:href="#ma5a124633b" x="303.637273" y="21.7575" style="stroke: #000000"/>
      </g>
     </g>
    </g>
    <g id="xtick_20">
     <g id="line2d_39">
      <g>
       <use xlink:href="#mf6b2b5c0ea" x="319.87" y="354.3975" style="stroke: #000000"/>
      </g>
     </g>
     <g id="line2d_40">
      <g>
       <use xlink:href="#ma5a124633b" x="319.87" y="21.7575" style="stroke: #000000"/>
      </g>
     </g>
    </g>
    <g id="xtick_21">
     <g id="line2d_41">
      <g>
       <use xlink:href="#mf6b2b5c0ea" x="352.335455" y="354.3975" style="stroke: #000000"/>
      </g>
     </g>
     <g id="line2d_42">
      <g>
       <use xlink:href="#ma5a124633b" x="352.335455" y="21.7575" style="stroke: #000000"/>
      </g>
     </g>
    </g>
    <g id="xtick_22">
     <g id="line2d_43">
      <g>
       <use xlink:href="#mf6b2b5c0ea" x="368.568182" y="354.3975" style="stroke: #000000"/>
      </g>
     </g>
     <g id="line2d_44">
      <g>
       <use xlink:href="#ma5a124633b" x="368.568182" y="21.7575" style="stroke: #000000"/>
      </g>
     </g>
    </g>
    <g id="xtick_23">
     <g id="line2d_45">
      <g>
       <use xlink:href="#mf6b2b5c0ea" x="384.800909" y="354.3975" style="stroke: #000000"/>
      </g>
     </g>
     <g id="line2d_46">
      <g>
       <use xlink:href="#ma5a124633b" x="384.800909" y="21.7575" style="stroke: #000000"/>
      </g>
     </g>
    </g>
    <g id="xtick_24">
     <g id="line2d_47">
      <g>
       <use xlink:href="#mf6b2b5c0ea" x="401.033636" y="354.3975" style="stroke: #000000"/>
      </g>
     </g>
     <g id="line2d_48">
      <g>
       <use xlink:href="#ma5a124633b" x="401.033636" y="21.7575" style="stroke: #000000"/>
      </g>
     </g>
    </g>
    <g id="xtick_25">
     <g id="line2d_49">
      <g>
       <use xlink:href="#mf6b2b5c0ea" x="433.499091" y="354.3975" style="stroke: #000000"/>
      </g>
     </g>
     <g id="line2d_50">
      <g>
       <use xlink:href="#ma5a124633b" x="433.499091" y="21.7575" style="stroke: #000000"/>
      </g>
     </g>
    </g>
    <g id="xtick_26">
     <g id="line2d_51">
      <g>
       <use xlink:href="#mf6b2b5c0ea" x="449.731818" y="354.3975" style="stroke: #000000"/>
      </g>
     </g>
     <g id="line2d_52">
      <g>
       <use xlink:href="#ma5a124633b" x="449.731818" y="21.7575" style="stroke: #000000"/>
      </g>
     </g>
    </g>
    <g id="xtick_27">
     <g id="line2d_53">
      <g>
       <use xlink:href="#mf6b2b5c0ea" x="465.964545" y="354.3975" style="stroke: #000000"/>
      </g>
     </g>
     <g id="line2d_54">
      <g>
       <use xlink:href="#ma5a124633b" x="465.964545" y="21.7575" style="stroke: #000000"/>
      </g>
     </g>
    </g>
    <g id="xtick_28">
     <g id="line2d_55">
      <g>
       <use xlink:href="#mf6b2b5c0ea" x="482.197273" y="354.3975" style="stroke: #000000"/>
      </g>
     </g>
     <g id="line2d_56">
      <g>
       <use xlink:href="#ma5a124633b" x="482.197273" y="21.7575" style="stroke: #000000"/>
      </g>
     </g>
    </g>
    <g id="text_7">
     <!-- Wavelength (nm) -->
     <g transform="translate(206.1225 389.54) scale(0.16 -0.16)">
      <defs>
       <path id="DejaVuSans-57" d="M 213 4666 
L 850 4666 
L 1831 722 
L 2809 4666 
L 3519 4666 
L 4500 722 
L 5478 4666 
L 6119 4666 
L 4947 0 
L 4153 0 
L 3169 4050 
L 2175 0 
L 1381 0 
L 213 4666 
z
" transform="scale(0.015625)"/>
       <path id="DejaVuSans-61" d="M 2194 1759 
Q 1497 1759 1228 1600 
Q 959 1441 959 1056 
Q 959 750 1161 570 
Q 1363 391 1709 391 
Q 2188 391 2477 730 
Q 2766 1069 2766 1631 
L 2766 1759 
L 2194 1759 
z
M 3341 1997 
L 3341 0 
L 2766 0 
L 2766 531 
Q 2569 213 2275 61 
Q 1981 -91 1556 -91 
Q 1019 -91 701 211 
Q 384 513 384 1019 
Q 384 1609 779 1909 
Q 1175 2209 1959 2209 
L 2766 2209 
L 2766 2266 
Q 2766 2663 2505 2880 
Q 2244 3097 1772 3097 
Q 1472 3097 1187 3025 
Q 903 2953 641 2809 
L 641 3341 
Q 956 3463 1253 3523 
Q 1550 3584 1831 3584 
Q 2591 3584 2966 3190 
Q 3341 2797 3341 1997 
z
" transform="scale(0.015625)"/>
       <path id="DejaVuSans-76" d="M 191 3500 
L 800 3500 
L 1894 563 
L 2988 3500 
L 3597 3500 
L 2284 0 
L 1503 0 
L 191 3500 
z
" transform="scale(0.015625)"/>
       <path id="DejaVuSans-65" d="M 3597 1894 
L 3597 1613 
L 953 1613 
Q 991 1019 1311 708 
Q 1631 397 2203 397 
Q 2534 397 2845 478 
Q 3156 559 3463 722 
L 3463 178 
Q 3153 47 2828 -22 
Q 2503 -91 2169 -91 
Q 1331 -91 842 396 
Q 353 884 353 1716 
Q 353 2575 817 3079 
Q 1281 3584 2069 3584 
Q 2775 3584 3186 3129 
Q 3597 2675 3597 1894 
z
M 3022 2063 
Q 3016 2534 2758 2815 
Q 2500 3097 2075 3097 
Q 1594 3097 1305 2825 
Q 1016 2553 972 2059 
L 3022 2063 
z
" transform="scale(0.015625)"/>
       <path id="DejaVuSans-6c" d="M 603 4863 
L 1178 4863 
L 1178 0 
L 603 0 
L 603 4863 
z
" transform="scale(0.015625)"/>
       <path id="DejaVuSans-6e" d="M 3513 2113 
L 3513 0 
L 2938 0 
L 2938 2094 
Q 2938 2591 2744 2837 
Q 2550 3084 2163 3084 
Q 1697 3084 1428 2787 
Q 1159 2491 1159 1978 
L 1159 0 
L 581 0 
L 581 3500 
L 1159 3500 
L 1159 2956 
Q 1366 3272 1645 3428 
Q 1925 3584 2291 3584 
Q 2894 3584 3203 3211 
Q 3513 2838 3513 2113 
z
" transform="scale(0.015625)"/>
       <path id="DejaVuSans-67" d="M 2906 1791 
Q 2906 2416 2648 2759 
Q 2391 3103 1925 3103 
Q 1463 3103 1205 2759 
Q 947 2416 947 1791 
Q 947 1169 1205 825 
Q 1463 481 1925 481 
Q 2391 481 2648 825 
Q 2906 1169 2906 1791 
z
M 3481 434 
Q 3481 -459 3084 -895 
Q 2688 -1331 1869 -1331 
Q 1566 -1331 1297 -1286 
Q 1028 -1241 775 -1147 
L 775 -588 
Q 1028 -725 1275 -790 
Q 1522 -856 1778 -856 
Q 2344 -856 2625 -561 
Q 2906 -266 2906 331 
L 2906 616 
Q 2728 306 2450 153 
Q 2172 0 1784 0 
Q 1141 0 747 490 
Q 353 981 353 1791 
Q 353 2603 747 3093 
Q 1141 3584 1784 3584 
Q 2172 3584 2450 3431 
Q 2728 3278 2906 2969 
L 2906 3500 
L 3481 3500 
L 3481 434 
z
" transform="scale(0.015625)"/>
       <path id="DejaVuSans-74" d="M 1172 4494 
L 1172 3500 
L 2356 3500 
L 2356 3053 
L 1172 3053 
L 1172 1153 
Q 1172 725 1289 603 
Q 1406 481 1766 481 
L 2356 481 
L 2356 0 
L 1766 0 
Q 1100 0 847 248 
Q 594 497 594 1153 
L 594 3053 
L 172 3053 
L 172 3500 
L 594 3500 
L 594 4494 
L 1172 4494 
z
" transform="scale(0.015625)"/>
       <path id="DejaVuSans-68" d="M 3513 2113 
L 3513 0 
L 2938 0 
L 2938 2094 
Q 2938 2591 2744 2837 
Q 2550 3084 2163 3084 
Q 1697 3084 1428 2787 
Q 1159 2491 1159 1978 
L 1159 0 
L 581 0 
L 581 4863 
L 1159 4863 
L 1159 2956 
Q 1366 3272 1645 3428 
Q 1925 3584 2291 3584 
Q 2894 3584 3203 3211 
Q 3513 2838 3513 2113 
z
" transform="scale(0.015625)"/>
       <path id="DejaVuSans-20" transform="scale(0.015625)"/>
       <path id="DejaVuSans-28" d="M 1984 4856 
Q 1566 4138 1362 3434 
Q 1159 2731 1159 2009 
Q 1159 1288 1364 580 
Q 1569 -128 1984 -844 
L 1484 -844 
Q 1016 -109 783 600 
Q 550 1309 550 2009 
Q 550 2706 781 3412 
Q 1013 4119 1484 4856 
L 1984 4856 
z
" transform="scale(0.015625)"/>
       <path id="DejaVuSans-6d" d="M 3328 2828 
Q 3544 3216 3844 3400 
Q 4144 3584 4550 3584 
Q 5097 3584 5394 3201 
Q 5691 2819 5691 2113 
L 5691 0 
L 5113 0 
L 5113 2094 
Q 5113 2597 4934 2840 
Q 4756 3084 4391 3084 
Q 3944 3084 3684 2787 
Q 3425 2491 3425 1978 
L 3425 0 
L 2847 0 
L 2847 2094 
Q 2847 2600 2669 2842 
Q 2491 3084 2119 3084 
Q 1678 3084 1418 2786 
Q 1159 2488 1159 1978 
L 1159 0 
L 581 0 
L 581 3500 
L 1159 3500 
L 1159 2956 
Q 1356 3278 1631 3431 
Q 1906 3584 2284 3584 
Q 2666 3584 2933 3390 
Q 3200 3197 3328 2828 
z
" transform="scale(0.015625)"/>
       <path id="DejaVuSans-29" d="M 513 4856 
L 1013 4856 
Q 1481 4119 1714 3412 
Q 1947 2706 1947 2009 
Q 1947 1309 1714 600 
Q 1481 -109 1013 -844 
L 513 -844 
Q 928 -128 1133 580 
Q 1338 1288 1338 2009 
Q 1338 2731 1133 3434 
Q 928 4138 513 4856 
z
" transform="scale(0.015625)"/>
      </defs>
      <use xlink:href="#DejaVuSans-57"/>
      <use xlink:href="#DejaVuSans-61" transform="translate(92.501953 0)"/>
      <use xlink:href="#DejaVuSans-76" transform="translate(153.78125 0)"/>
      <use xlink:href="#DejaVuSans-65" transform="translate(212.960938 0)"/>
      <use xlink:href="#DejaVuSans-6c" transform="translate(274.484375 0)"/>
      <use xlink:href="#DejaVuSans-65" transform="translate(302.267578 0)"/>
      <use xlink:href="#DejaVuSans-6e" transform="translate(363.791016 0)"/>
      <use xlink:href="#DejaVuSans-67" transform="translate(427.169922 0)"/>
      <use xlink:href="#DejaVuSans-74" transform="translate(490.646484 0)"/>
      <use xlink:href="#DejaVuSans-68" transform="translate(529.855469 0)"/>
      <use xlink:href="#DejaVuSans-20" transform="translate(593.234375 0)"/>
      <use xlink:href="#DejaVuSans-28" transform="translate(625.021484 0)"/>
      <use xlink:href="#DejaVuSans-6e" transform="translate(664.035156 0)"/>
      <use xlink:href="#DejaVuSans-6d" transform="translate(727.414062 0)"/>
      <use xlink:href="#DejaVuSans-29" transform="translate(824.826172 0)"/>
     </g>
    </g>
   </g>
   <g id="matplotlib.axis_2">
    <g id="ytick_1">
     <g id="line2d_57">
      <defs>
       <path id="m5364e224aa" d="M 0 0 
L 6 0 
" style="stroke: #000000"/>
      </defs>
      <g>
       <use xlink:href="#m5364e224aa" x="52.03" y="339.2775" style="stroke: #000000"/>
      </g>
     </g>
     <g id="line2d_58">
      <defs>
       <path id="mfcb6fff872" d="M 0 0 
L -6 0 
" style="stroke: #000000"/>
      </defs>
      <g>
       <use xlink:href="#mfcb6fff872" x="498.43" y="339.2775" style="stroke: #000000"/>
      </g>
     </g>
     <g id="text_8">
      <!-- 0.0 -->
      <g transform="translate(23.085 345.35625) scale(0.16 -0.16)">
       <defs>
        <path id="DejaVuSans-2e" d="M 684 794 
L 1344 794 
L 1344 0 
L 684 0 
L 684 794 
z
" transform="scale(0.015625)"/>
       </defs>
       <use xlink:href="#DejaVuSans-30"/>
       <use xlink:href="#DejaVuSans-2e" transform="translate(63.623047 0)"/>
       <use xlink:href="#DejaVuSans-30" transform="translate(95.410156 0)"/>
      </g>
     </g>
    </g>
    <g id="ytick_2">
     <g id="line2d_59">
      <g>
       <use xlink:href="#m5364e224aa" x="52.03" y="278.7975" style="stroke: #000000"/>
      </g>
     </g>
     <g id="line2d_60">
      <g>
       <use xlink:href="#mfcb6fff872" x="498.43" y="278.7975" style="stroke: #000000"/>
      </g>
     </g>
     <g id="text_9">
      <!-- 0.2 -->
      <g transform="translate(23.085 284.87625) scale(0.16 -0.16)">
       <defs>
        <path id="DejaVuSans-32" d="M 1228 531 
L 3431 531 
L 3431 0 
L 469 0 
L 469 531 
Q 828 903 1448 1529 
Q 2069 2156 2228 2338 
Q 2531 2678 2651 2914 
Q 2772 3150 2772 3378 
Q 2772 3750 2511 3984 
Q 2250 4219 1831 4219 
Q 1534 4219 1204 4116 
Q 875 4013 500 3803 
L 500 4441 
Q 881 4594 1212 4672 
Q 1544 4750 1819 4750 
Q 2544 4750 2975 4387 
Q 3406 4025 3406 3419 
Q 3406 3131 3298 2873 
Q 3191 2616 2906 2266 
Q 2828 2175 2409 1742 
Q 1991 1309 1228 531 
z
" transform="scale(0.015625)"/>
       </defs>
       <use xlink:href="#DejaVuSans-30"/>
       <use xlink:href="#DejaVuSans-2e" transform="translate(63.623047 0)"/>
       <use xlink:href="#DejaVuSans-32" transform="translate(95.410156 0)"/>
      </g>
     </g>
    </g>
    <g id="ytick_3">
     <g id="line2d_61">
      <g>
       <use xlink:href="#m5364e224aa" x="52.03" y="218.3175" style="stroke: #000000"/>
      </g>
     </g>
     <g id="line2d_62">
      <g>
       <use xlink:href="#mfcb6fff872" x="498.43" y="218.3175" style="stroke: #000000"/>
      </g>
     </g>
     <g id="text_10">
      <!-- 0.4 -->
      <g transform="translate(23.085 224.39625) scale(0.16 -0.16)">
       <use xlink:href="#DejaVuSans-30"/>
       <use xlink:href="#DejaVuSans-2e" transform="translate(63.623047 0)"/>
       <use xlink:href="#DejaVuSans-34" transform="translate(95.410156 0)"/>
      </g>
     </g>
    </g>
    <g id="ytick_4">
     <g id="line2d_63">
      <g>
       <use xlink:href="#m5364e224aa" x="52.03" y="157.8375" style="stroke: #000000"/>
      </g>
     </g>
     <g id="line2d_64">
      <g>
       <use xlink:href="#mfcb6fff872" x="498.43" y="157.8375" style="stroke: #000000"/>
      </g>
     </g>
     <g id="text_11">
      <!-- 0.6 -->
      <g transform="translate(23.085 163.91625) scale(0.16 -0.16)">
       <use xlink:href="#DejaVuSans-30"/>
       <use xlink:href="#DejaVuSans-2e" transform="translate(63.623047 0)"/>
       <use xlink:href="#DejaVuSans-36" transform="translate(95.410156 0)"/>
      </g>
     </g>
    </g>
    <g id="ytick_5">
     <g id="line2d_65">
      <g>
       <use xlink:href="#m5364e224aa" x="52.03" y="97.3575" style="stroke: #000000"/>
      </g>
     </g>
     <g id="line2d_66">
      <g>
       <use xlink:href="#mfcb6fff872" x="498.43" y="97.3575" style="stroke: #000000"/>
      </g>
     </g>
     <g id="text_12">
      <!-- 0.8 -->
      <g transform="translate(23.085 103.43625) scale(0.16 -0.16)">
       <use xlink:href="#DejaVuSans-30"/>
       <use xlink:href="#DejaVuSans-2e" transform="translate(63.623047 0)"/>
       <use xlink:href="#DejaVuSans-38" transform="translate(95.410156 0)"/>
      </g>
     </g>
    </g>
    <g id="ytick_6">
     <g id="line2d_67">
      <g>
       <use xlink:href="#m5364e224aa" x="52.03" y="36.8775" style="stroke: #000000"/>
      </g>
     </g>
     <g id="line2d_68">
      <g>
       <use xlink:href="#mfcb6fff872" x="498.43" y="36.8775" style="stroke: #000000"/>
      </g>
     </g>
     <g id="text_13">
      <!-- 1.0 -->
      <g transform="translate(23.085 42.95625) scale(0.16 -0.16)">
       <defs>
        <path id="DejaVuSans-31" d="M 794 531 
L 1825 531 
L 1825 4091 
L 703 3866 
L 703 4441 
L 1819 4666 
L 2450 4666 
L 2450 531 
L 3481 531 
L 3481 0 
L 794 0 
L 794 531 
z
" transform="scale(0.015625)"/>
       </defs>
       <use xlink:href="#DejaVuSans-31"/>
       <use xlink:href="#DejaVuSans-2e" transform="translate(63.623047 0)"/>
       <use xlink:href="#DejaVuSans-30" transform="translate(95.410156 0)"/>
      </g>
     </g>
    </g>
    <g id="ytick_7">
     <g id="line2d_69">
      <defs>
       <path id="mc5a1e78629" d="M 0 0 
L 3 0 
" style="stroke: #000000"/>
      </defs>
      <g>
       <use xlink:href="#mc5a1e78629" x="52.03" y="354.3975" style="stroke: #000000"/>
      </g>
     </g>
     <g id="line2d_70">
      <defs>
       <path id="mc5be45b633" d="M 0 0 
L -3 0 
" style="stroke: #000000"/>
      </defs>
      <g>
       <use xlink:href="#mc5be45b633" x="498.43" y="354.3975" style="stroke: #000000"/>
      </g>
     </g>
    </g>
    <g id="ytick_8">
     <g id="line2d_71">
      <g>
       <use xlink:href="#mc5a1e78629" x="52.03" y="324.1575" style="stroke: #000000"/>
      </g>
     </g>
     <g id="line2d_72">
      <g>
       <use xlink:href="#mc5be45b633" x="498.43" y="324.1575" style="stroke: #000000"/>
      </g>
     </g>
    </g>
    <g id="ytick_9">
     <g id="line2d_73">
      <g>
       <use xlink:href="#mc5a1e78629" x="52.03" y="309.0375" style="stroke: #000000"/>
      </g>
     </g>
     <g id="line2d_74">
      <g>
       <use xlink:href="#mc5be45b633" x="498.43" y="309.0375" style="stroke: #000000"/>
      </g>
     </g>
    </g>
    <g id="ytick_10">
     <g id="line2d_75">
      <g>
       <use xlink:href="#mc5a1e78629" x="52.03" y="293.9175" style="stroke: #000000"/>
      </g>
     </g>
     <g id="line2d_76">
      <g>
       <use xlink:href="#mc5be45b633" x="498.43" y="293.9175" style="stroke: #000000"/>
      </g>
     </g>
    </g>
    <g id="ytick_11">
     <g id="line2d_77">
      <g>
       <use xlink:href="#mc5a1e78629" x="52.03" y="263.6775" style="stroke: #000000"/>
      </g>
     </g>
     <g id="line2d_78">
      <g>
       <use xlink:href="#mc5be45b633" x="498.43" y="263.6775" style="stroke: #000000"/>
      </g>
     </g>
    </g>
    <g id="ytick_12">
     <g id="line2d_79">
      <g>
       <use xlink:href="#mc5a1e78629" x="52.03" y="248.5575" style="stroke: #000000"/>
      </g>
     </g>
     <g id="line2d_80">
      <g>
       <use xlink:href="#mc5be45b633" x="498.43" y="248.5575" style="stroke: #000000"/>
      </g>
     </g>
    </g>
    <g id="ytick_13">
     <g id="line2d_81">
      <g>
       <use xlink:href="#mc5a1e78629" x="52.03" y="233.4375" style="stroke: #000000"/>
      </g>
     </g>
     <g id="line2d_82">
      <g>
       <use xlink:href="#mc5be45b633" x="498.43" y="233.4375" style="stroke: #000000"/>
      </g>
     </g>
    </g>
    <g id="ytick_14">
     <g id="line2d_83">
      <g>
       <use xlink:href="#mc5a1e78629" x="52.03" y="203.1975" style="stroke: #000000"/>
      </g>
     </g>
     <g id="line2d_84">
      <g>
       <use xlink:href="#mc5be45b633" x="498.43" y="203.1975" style="stroke: #000000"/>
      </g>
     </g>
    </g>
    <g id="ytick_15">
     <g id="line2d_85">
      <g>
       <use xlink:href="#mc5a1e78629" x="52.03" y="188.0775" style="stroke: #000000"/>
      </g>
     </g>
     <g id="line2d_86">
      <g>
       <use xlink:href="#mc5be45b633" x="498.43" y="188.0775" style="stroke: #000000"/>
      </g>
     </g>
    </g>
    <g id="ytick_16">
     <g id="line2d_87">
      <g>
       <use xlink:href="#mc5a1e78629" x="52.03" y="172.9575" style="stroke: #000000"/>
      </g>
     </g>
     <g id="line2d_88">
      <g>
       <use xlink:href="#mc5be45b633" x="498.43" y="172.9575" style="stroke: #000000"/>
      </g>
     </g>
    </g>
    <g id="ytick_17">
     <g id="line2d_89">
      <g>
       <use xlink:href="#mc5a1e78629" x="52.03" y="142.7175" style="stroke: #000000"/>
      </g>
     </g>
     <g id="line2d_90">
      <g>
       <use xlink:href="#mc5be45b633" x="498.43" y="142.7175" style="stroke: #000000"/>
      </g>
     </g>
    </g>
    <g id="ytick_18">
     <g id="line2d_91">
      <g>
       <use xlink:href="#mc5a1e78629" x="52.03" y="127.5975" style="stroke: #000000"/>
      </g>
     </g>
     <g id="line2d_92">
      <g>
       <use xlink:href="#mc5be45b633" x="498.43" y="127.5975" style="stroke: #000000"/>
      </g>
     </g>
    </g>
    <g id="ytick_19">
     <g id="line2d_93">
      <g>
       <use xlink:href="#mc5a1e78629" x="52.03" y="112.4775" style="stroke: #000000"/>
      </g>
     </g>
     <g id="line2d_94">
      <g>
       <use xlink:href="#mc5be45b633" x="498.43" y="112.4775" style="stroke: #000000"/>
      </g>
     </g>
    </g>
    <g id="ytick_20">
     <g id="line2d_95">
      <g>
       <use xlink:href="#mc5a1e78629" x="52.03" y="82.2375" style="stroke: #000000"/>
      </g>
     </g>
     <g id="line2d_96">
      <g>
       <use xlink:href="#mc5be45b633" x="498.43" y="82.2375" style="stroke: #000000"/>
      </g>
     </g>
    </g>
    <g id="ytick_21">
     <g id="line2d_97">
      <g>
       <use xlink:href="#mc5a1e78629" x="52.03" y="67.1175" style="stroke: #000000"/>
      </g>
     </g>
     <g id="line2d_98">
      <g>
       <use xlink:href="#mc5be45b633" x="498.43" y="67.1175" style="stroke: #000000"/>
      </g>
     </g>
    </g>
    <g id="ytick_22">
     <g id="line2d_99">
      <g>
       <use xlink:href="#mc5a1e78629" x="52.03" y="51.9975" style="stroke: #000000"/>
      </g>
     </g>
     <g id="line2d_100">
      <g>
       <use xlink:href="#mc5be45b633" x="498.43" y="51.9975" style="stroke: #000000"/>
      </g>
     </g>
    </g>
    <g id="ytick_23">
     <g id="line2d_101">
      <g>
       <use xlink:href="#mc5a1e78629" x="52.03" y="21.7575" style="stroke: #000000"/>
      </g>
     </g>
     <g id="line2d_102">
      <g>
       <use xlink:href="#mc5be45b633" x="498.43" y="21.7575" style="stroke: #000000"/>
      </g>
     </g>
    </g>
    <g id="text_14">
     <!-- Intensity -->
     <g transform="translate(15.7575 222.8975) rotate(-90) scale(0.16 -0.16)">
      <defs>
       <path id="DejaVuSans-49" d="M 628 4666 
L 1259 4666 
L 1259 0 
L 628 0 
L 628 4666 
z
" transform="scale(0.015625)"/>
       <path id="DejaVuSans-73" d="M 2834 3397 
L 2834 2853 
Q 2591 2978 2328 3040 
Q 2066 3103 1784 3103 
Q 1356 3103 1142 2972 
Q 928 2841 928 2578 
Q 928 2378 1081 2264 
Q 1234 2150 1697 2047 
L 1894 2003 
Q 2506 1872 2764 1633 
Q 3022 1394 3022 966 
Q 3022 478 2636 193 
Q 2250 -91 1575 -91 
Q 1294 -91 989 -36 
Q 684 19 347 128 
L 347 722 
Q 666 556 975 473 
Q 1284 391 1588 391 
Q 1994 391 2212 530 
Q 2431 669 2431 922 
Q 2431 1156 2273 1281 
Q 2116 1406 1581 1522 
L 1381 1569 
Q 847 1681 609 1914 
Q 372 2147 372 2553 
Q 372 3047 722 3315 
Q 1072 3584 1716 3584 
Q 2034 3584 2315 3537 
Q 2597 3491 2834 3397 
z
" transform="scale(0.015625)"/>
       <path id="DejaVuSans-69" d="M 603 3500 
L 1178 3500 
L 1178 0 
L 603 0 
L 603 3500 
z
M 603 4863 
L 1178 4863 
L 1178 4134 
L 603 4134 
L 603 4863 
z
" transform="scale(0.015625)"/>
       <path id="DejaVuSans-79" d="M 2059 -325 
Q 1816 -950 1584 -1140 
Q 1353 -1331 966 -1331 
L 506 -1331 
L 506 -850 
L 844 -850 
Q 1081 -850 1212 -737 
Q 1344 -625 1503 -206 
L 1606 56 
L 191 3500 
L 800 3500 
L 1894 763 
L 2988 3500 
L 3597 3500 
L 2059 -325 
z
" transform="scale(0.015625)"/>
      </defs>
      <use xlink:href="#DejaVuSans-49"/>
      <use xlink:href="#DejaVuSans-6e" transform="translate(29.492188 0)"/>
      <use xlink:href="#DejaVuSans-74" transform="translate(92.871094 0)"/>
      <use xlink:href="#DejaVuSans-65" transform="translate(132.080078 0)"/>
      <use xlink:href="#DejaVuSans-6e" transform="translate(193.603516 0)"/>
      <use xlink:href="#DejaVuSans-73" transform="translate(256.982422 0)"/>
      <use xlink:href="#DejaVuSans-69" transform="translate(309.082031 0)"/>
      <use xlink:href="#DejaVuSans-74" transform="translate(336.865234 0)"/>
      <use xlink:href="#DejaVuSans-79" transform="translate(376.074219 0)"/>
     </g>
    </g>
   </g>
   <g id="line2d_103">
    <path d="M 50.745966 337.920864 
L 55.436257 337.511926 
L 60.126548 338.083141 
L 64.816344 337.784551 
L 69.50614 337.609292 
L 74.19544 337.141934 
L 78.884741 337.038077 
L 83.57305 336.791416 
L 88.261855 337.732623 
L 92.94967 337.206845 
L 97.637484 254.9259 
L 102.324803 36.8775 
L 107.012122 67.340144 
L 111.698945 64.91248 
L 116.385769 194.370603 
L 121.071602 329.839468 
L 125.75793 337.83648 
L 130.443267 337.797533 
L 135.128604 338.219454 
L 139.813446 337.946828 
L 144.498288 337.888409 
L 149.182635 337.628765 
L 153.866486 336.895273 
L 158.550337 336.8758 
L 163.233693 336.33704 
L 167.917049 336.849836 
L 172.599909 337.408069 
L 177.282275 336.992639 
L 181.964144 336.09687 
L 186.646014 334.091126 
L 191.327884 334.590939 
L 196.008762 336.531773 
L 200.690137 337.635256 
L 205.37052 337.927355 
L 210.050904 338.109105 
L 214.730792 337.758587 
L 219.410185 338.01823 
L 224.089577 337.012113 
L 228.76897 336.298094 
L 233.447372 333.221321 
L 238.125774 331.566096 
L 242.804176 334.019724 
L 247.481587 334.194983 
L 252.158999 335.772316 
L 256.83641 337.284738 
L 261.513326 338.518043 
L 266.189746 338.563481 
L 270.865671 338.264891 
L 275.541596 338.531026 
L 280.217521 338.31682 
L 284.892456 338.128579 
L 289.56739 338.381731 
L 294.242324 338.323311 
L 298.916268 338.005248 
L 303.590211 338.479097 
L 308.264155 337.700167 
L 312.937603 338.277873 
L 317.610556 337.966302 
L 322.283013 338.55699 
L 326.955471 337.849462 
L 331.627928 338.654356 
L 336.299395 338.823124 
L 340.970861 338.212963 
L 345.642328 337.849462 
L 350.312804 338.686812 
L 354.983279 338.2584 
L 359.653755 338.13507 
L 364.32324 338.790669 
L 368.993221 338.582954 
L 373.662211 337.628765 
L 378.3312 338.531026 
L 382.999695 337.933846 
L 387.668189 338.368749 
L 392.336188 337.953319 
L 397.003691 338.433659 
L 401.6707 337.823498 
L 406.337708 338.186998 
L 411.004716 338.206472 
L 415.671229 338.582954 
L 420.337246 338.810142 
L 425.002768 338.777687 
L 429.66829 338.271382 
L 434.333317 338.453133 
L 438.997848 338.576463 
L 443.662379 338.154543 
L 448.326415 337.739114 
L 452.990451 338.290856 
L 457.653991 338.057177 
L 462.317037 338.725758 
L 466.980082 337.920864 
L 471.642631 338.816633 
L 476.304686 337.907882 
L 480.966245 338.466115 
L 485.627804 337.791042 
L 490.289363 338.063668 
L 494.950426 337.65473 
L 499.610994 337.771569 
" clip-path="url(#pb8c483461f)" style="fill: none; stroke: #0c5da5; stroke-width: 2; stroke-linecap: square"/>
   </g>
   <g id="line2d_104">
    <path d="M 50.745966 338.023447 
L 55.436257 338.425867 
L 60.126548 338.168505 
L 64.816344 338.322922 
L 69.50614 337.915823 
L 74.19544 337.836274 
L 78.884741 338.117033 
L 83.57305 338.210619 
L 88.261855 337.588271 
L 92.94967 337.72865 
L 97.637484 318.24403 
L 102.324803 95.635516 
L 107.012122 36.8775 
L 111.698945 36.900897 
L 116.385769 36.8775 
L 121.071602 300.228711 
L 125.75793 338.346319 
L 130.443267 338.037485 
L 135.128604 338.510094 
L 139.813446 338.07024 
L 144.498288 337.415137 
L 149.182635 336.848941 
L 153.866486 336.432483 
L 158.550337 336.348256 
L 163.233693 333.980528 
L 167.917049 332.600134 
L 172.599909 335.417074 
L 177.282275 337.106303 
L 181.964144 337.742688 
L 186.646014 337.508723 
L 191.327884 335.997308 
L 196.008762 333.02595 
L 200.690137 328.370043 
L 205.37052 326.287753 
L 210.050904 331.799973 
L 214.730792 335.197147 
L 219.410185 336.315501 
L 224.089577 336.961245 
L 228.76897 337.606989 
L 233.447372 338.449263 
L 238.125774 338.140429 
L 242.804176 337.723971 
L 247.481587 338.018767 
L 252.158999 337.761406 
L 256.83641 338.219977 
L 261.513326 338.40247 
L 266.189746 337.943898 
L 270.865671 338.304205 
L 275.541596 338.365036 
L 280.217521 338.758097 
L 284.892456 338.486698 
L 289.56739 338.650473 
L 294.242324 338.243374 
L 298.916268 338.290167 
L 303.590211 338.46798 
L 308.264155 337.986012 
L 312.937603 338.40715 
L 317.610556 338.519453 
L 322.283013 338.411829 
L 326.955471 338.425867 
L 331.627928 338.168505 
L 336.299395 338.561567 
L 340.970861 338.613039 
L 345.642328 338.584963 
L 350.312804 338.837645 
L 354.983279 338.556887 
L 359.653755 338.818928 
L 364.32324 338.589642 
L 368.993221 338.561567 
L 373.662211 338.355677 
L 378.3312 338.444584 
L 382.999695 338.439905 
L 387.668189 338.299526 
L 392.336188 338.584963 
L 397.003691 338.47266 
L 401.6707 338.701946 
L 406.337708 338.346319 
L 411.004716 338.715984 
L 415.671229 338.533491 
L 420.337246 338.594322 
L 425.002768 338.599001 
L 429.66829 338.458622 
L 434.333317 338.477339 
L 438.997848 338.580284 
L 443.662379 338.341639 
L 448.326415 338.491377 
L 452.990451 338.67387 
L 457.653991 338.290167 
L 462.317037 338.53817 
L 466.980082 338.725342 
L 471.642631 338.27145 
L 476.304686 338.191902 
L 480.966245 338.570925 
L 485.627804 338.889118 
L 490.289363 338.87508 
L 494.950426 338.748739 
L 499.610994 338.280808 
" clip-path="url(#pb8c483461f)" style="fill: none; stroke: #00b945; stroke-width: 2; stroke-linecap: square"/>
   </g>
   <g id="line2d_105">
    <path d="M 95.972936 334.488085 
L 96.19048 339.216874 
L 96.408011 338.610619 
L 96.625529 338.549994 
L 96.843034 339.216874 
L 97.060525 338.671245 
L 97.278004 338.428743 
L 97.49547 338.610619 
L 98.147789 338.125615 
L 98.582603 336.85248 
L 99.234727 333.336201 
L 100.104044 324.484878 
L 100.973152 313.208534 
L 101.190396 309.207251 
L 101.407628 307.691614 
L 101.624846 304.357211 
L 101.842052 297.385279 
L 102.059244 295.384637 
L 102.710744 282.107652 
L 103.145011 266.526899 
L 103.579227 257.554324 
L 104.013391 233.243498 
L 104.664539 188.441253 
L 105.098572 152.793458 
L 105.532554 104.293057 
L 105.966483 76.284076 
L 106.183428 73.313426 
L 106.400361 65.189609 
L 106.61728 52.700756 
L 106.834186 47.608214 
L 107.051079 45.789449 
L 107.267959 47.608214 
L 107.484826 47.668839 
L 107.70168 37.241253 
L 107.918522 36.8775 
L 108.352165 43.48568 
L 108.568967 41.181911 
L 108.785756 50.457612 
L 109.002532 54.39827 
L 109.436045 69.372769 
L 109.652782 72.100916 
L 110.302915 90.349192 
L 110.736272 113.69001 
L 110.95293 119.510058 
L 111.386209 148.307171 
L 111.819436 174.497388 
L 112.252611 211.236441 
L 112.685733 244.156089 
L 113.768312 331.093057 
L 113.984789 337.094982 
L 114.417703 337.640611 
L 114.634141 337.579986 
L 115.066977 337.822488 
L 115.283376 337.701237 
L 115.499761 338.549994 
L 115.716134 338.307492 
L 115.932494 338.246866 
L 116.365174 338.671245 
L 116.581494 338.610619 
L 116.797802 338.307492 
L 117.230378 339.095623 
L 117.446646 338.73187 
L 117.662902 338.73187 
L 117.879144 338.610619 
L 118.095374 338.671245 
L 118.31159 339.034998 
L 118.527794 338.671245 
L 118.743984 339.095623 
L 119.392477 338.792496 
L 119.608616 339.034998 
L 120.040853 338.792496 
L 120.256953 338.974372 
L 120.473039 338.671245 
L 120.689112 338.913747 
L 121.12122 338.792496 
L 121.337254 339.156249 
L 121.553275 338.73187 
L 121.769284 338.853121 
L 121.985279 338.792496 
L 122.201261 338.853121 
L 122.41723 339.095623 
L 122.633186 339.034998 
L 122.84913 339.2775 
L 123.06506 338.853121 
L 123.496881 339.156249 
L 123.712772 338.974372 
L 124.144515 339.2775 
L 124.576206 338.610619 
L 124.792032 339.216874 
L 125.223645 338.610619 
L 125.439432 339.156249 
L 125.655206 339.034998 
L 125.870967 338.610619 
L 126.733881 339.034998 
L 126.949577 338.974372 
L 127.16526 338.671245 
L 127.38093 338.610619 
L 127.596587 338.671245 
L 127.812231 338.489368 
L 128.027861 339.156249 
L 128.243479 338.792496 
L 128.459084 339.095623 
L 128.674676 338.73187 
L 128.890255 339.034998 
L 129.10582 338.489368 
L 129.321373 338.73187 
L 129.536913 338.73187 
L 129.75244 338.913747 
L 129.967953 338.489368 
L 130.183454 338.792496 
L 130.398942 338.671245 
L 130.614416 338.307492 
L 130.829878 338.73187 
L 131.045327 338.428743 
L 131.260762 338.428743 
L 131.476185 338.549994 
L 131.691595 338.06499 
L 131.906991 337.883113 
L 132.122375 338.125615 
L 132.337745 337.155607 
L 132.553103 337.276858 
L 132.768447 337.579986 
L 133.199098 336.488727 
L 133.414403 336.731229 
L 133.629696 335.458093 
L 134.060241 335.215591 
L 134.490735 333.821205 
L 134.705963 333.154324 
L 135.136379 332.608695 
L 135.351567 331.45681 
L 135.781905 330.850555 
L 136.21219 329.516794 
L 136.427314 329.819922 
L 136.857521 327.1524 
L 137.072606 327.091774 
L 137.287677 326.909898 
L 137.71778 325.93989 
L 137.932813 324.666754 
L 138.147832 324.18175 
L 138.362838 323.211742 
L 138.577831 323.757372 
L 139.007778 322.787364 
L 139.222733 321.271726 
L 139.437674 320.604846 
L 139.652602 321.514228 
L 140.297308 318.66483 
L 140.512184 320.059216 
L 140.941897 318.058575 
L 141.586369 317.391694 
L 141.801167 316.23981 
L 142.015952 316.785439 
L 142.230724 315.754806 
L 142.660229 317.149192 
L 142.874962 316.361061 
L 143.089682 316.23981 
L 143.304389 315.451678 
L 143.519083 316.724814 
L 143.733763 316.967316 
L 143.948431 316.542937 
L 144.163086 315.451678 
L 144.377728 316.482312 
L 144.592357 315.69418 
L 144.806972 315.451678 
L 145.021575 315.815431 
L 145.236165 316.482312 
L 145.450742 316.421686 
L 145.665305 316.724814 
L 146.094394 315.451678 
L 146.308919 314.966674 
L 146.52343 316.361061 
L 146.737929 315.997308 
L 146.952415 316.482312 
L 147.166887 316.361061 
L 147.810227 315.269802 
L 148.024648 314.845423 
L 148.239055 316.482312 
L 148.45345 316.603563 
L 148.667831 315.69418 
L 148.8822 316.90669 
L 149.096555 316.664188 
L 149.310898 316.603563 
L 149.525227 316.846065 
L 149.739544 317.45232 
L 149.953847 316.603563 
L 150.168138 316.421686 
L 150.382415 317.573571 
L 150.59668 317.270443 
L 150.810931 316.23981 
L 151.025169 316.603563 
L 151.453607 315.754806 
L 151.667807 316.603563 
L 151.881993 316.846065 
L 152.096166 315.876057 
L 152.310327 316.724814 
L 152.524474 315.69418 
L 152.952729 316.785439 
L 153.166838 316.300435 
L 153.380933 316.361061 
L 153.809084 315.209176 
L 154.023141 315.269802 
L 154.237184 316.482312 
L 154.451214 315.69418 
L 154.665231 315.391053 
L 155.307205 315.936682 
L 155.52117 314.906049 
L 155.949061 316.057933 
L 156.162987 316.057933 
L 156.804687 315.633555 
L 157.018561 316.300435 
L 157.44627 316.482312 
L 157.660105 317.088567 
L 157.873927 315.391053 
L 158.087736 315.209176 
L 158.301532 315.209176 
L 158.515315 315.451678 
L 158.729085 315.269802 
L 159.156586 315.451678 
L 159.370316 316.482312 
L 159.584034 315.269802 
L 159.797739 315.0273 
L 160.011431 314.117917 
L 160.438776 315.633555 
L 160.652428 315.209176 
L 161.079695 315.69418 
L 161.293309 314.784798 
L 161.506909 315.148551 
L 161.720497 314.299794 
L 161.934072 314.057291 
L 162.147634 315.876057 
L 162.361182 314.239168 
L 162.574718 314.057291 
L 163.00175 314.966674 
L 163.215247 313.754164 
L 163.42873 314.906049 
L 163.642201 313.208534 
L 163.855659 314.845423 
L 164.069103 315.148551 
L 164.282535 314.784798 
L 164.495953 313.632913 
L 164.709359 313.632913 
L 164.922751 315.512304 
L 165.349497 314.724172 
L 165.562851 314.845423 
L 165.776191 315.269802 
L 165.989519 313.632913 
L 166.202833 313.451036 
L 166.416135 312.966032 
L 166.629423 313.147909 
L 166.842699 314.117917 
L 167.055961 313.572287 
L 167.26921 312.602279 
L 167.482447 312.784156 
L 167.69567 312.541654 
L 168.122078 313.329785 
L 168.335262 313.087283 
L 168.548433 312.359777 
L 168.761592 312.966032 
L 168.974737 312.966032 
L 169.187869 313.147909 
L 169.400988 311.996024 
L 169.614094 313.026658 
L 169.827188 311.571646 
L 170.040268 312.05665 
L 170.466389 311.026016 
L 170.67943 311.268518 
L 170.892459 309.934757 
L 171.318476 311.874773 
L 171.531465 310.116634 
L 171.744441 312.117275 
L 171.957404 311.874773 
L 172.170354 311.268518 
L 172.383291 311.268518 
L 172.596215 310.29851 
L 172.809126 309.934757 
L 173.022024 311.753522 
L 173.234909 310.116634 
L 173.447781 309.63163 
L 173.66064 311.026016 
L 173.873486 310.601638 
L 174.086319 309.086 
L 174.299139 310.601638 
L 174.511946 311.268518 
L 174.937521 310.116634 
L 175.150289 308.479745 
L 175.363043 309.571004 
L 175.575785 308.904124 
L 175.788514 310.359136 
L 176.00123 308.904124 
L 176.213933 308.297869 
L 176.426623 309.63163 
L 176.639299 308.297869 
L 176.851963 308.782873 
L 177.064614 308.964749 
L 177.277252 308.41912 
L 177.489876 308.237243 
L 177.702488 307.267235 
L 178.127672 309.267877 
L 178.340245 307.024733 
L 178.552805 307.87349 
L 178.977885 306.236602 
L 179.190406 307.752239 
L 179.402913 307.87349 
L 179.615408 306.054725 
L 179.827889 306.479104 
L 180.040358 306.479104 
L 180.252814 306.054725 
L 180.465256 306.964108 
L 180.677686 306.903482 
L 180.890102 307.630988 
L 181.102506 306.357853 
L 181.314896 306.418478 
L 181.527274 308.176618 
L 181.739638 307.388486 
L 181.951989 307.388486 
L 182.164328 305.509096 
L 182.588966 307.20661 
L 182.801265 304.963466 
L 183.013552 305.933474 
L 183.225825 304.357211 
L 183.438085 304.660339 
L 183.650333 305.630347 
L 183.862567 304.842215 
L 184.074788 304.963466 
L 184.286996 304.842215 
L 184.499192 303.811582 
L 184.923543 305.205968 
L 185.1357 305.569721 
L 185.559973 305.266594 
L 186.196286 303.387203 
L 186.408364 303.811582 
L 186.832481 302.538446 
L 187.04452 303.508454 
L 187.256546 302.780948 
L 187.468559 303.629705 
L 187.680559 302.902199 
L 187.892546 303.144701 
L 188.52843 302.114068 
L 188.740365 303.205327 
L 188.952287 303.265952 
L 189.164196 302.235319 
L 189.376092 302.659697 
L 189.587974 302.599072 
L 189.799844 303.872207 
L 190.011701 301.022809 
L 190.223545 301.81094 
L 190.647194 302.235319 
L 190.858999 301.689689 
L 191.070791 300.295303 
L 191.28257 301.568438 
L 191.494335 300.780307 
L 191.706088 301.022809 
L 191.917828 300.234677 
L 192.129555 301.447187 
L 192.341269 301.083434 
L 192.552969 301.447187 
L 192.764657 300.355928 
L 193.399642 300.416554 
L 193.611278 300.234677 
L 193.822901 300.295303 
L 194.03451 300.537805 
L 194.246107 299.507171 
L 194.457691 300.962183 
L 194.880819 299.264669 
L 195.092364 300.477179 
L 195.303895 298.476538 
L 195.515414 299.204044 
L 195.726919 298.415912 
L 195.938412 299.204044 
L 196.149891 298.476538 
L 196.361358 299.264669 
L 196.572812 298.052159 
L 196.784252 297.991534 
L 196.995679 299.082793 
L 197.207094 298.597789 
L 197.418495 299.082793 
L 197.629884 297.688406 
L 198.052622 299.325295 
L 198.263971 298.112785 
L 198.475308 298.17341 
L 198.897941 296.718398 
L 199.109239 297.203402 
L 199.320523 295.869641 
L 199.531794 296.29402 
L 199.743053 297.567155 
L 199.954298 297.50653 
L 200.16553 297.082151 
L 200.376749 297.142777 
L 200.587956 297.809657 
L 201.010329 295.445263 
L 201.221496 297.385279 
L 201.432651 297.627781 
L 201.643792 296.657773 
L 201.85492 296.415271 
L 202.066035 296.779024 
L 202.277137 297.385279 
L 202.910366 294.839008 
L 203.121416 295.990892 
L 203.332453 295.505888 
L 203.543477 295.445263 
L 203.754488 295.930267 
L 203.965486 295.990892 
L 204.176471 295.809016 
L 204.387443 293.929625 
L 204.598402 294.657131 
L 204.809348 294.960259 
L 205.020281 296.051518 
L 205.231201 293.505247 
L 205.442108 295.809016 
L 205.653002 295.990892 
L 205.863883 294.172127 
L 206.074751 294.172127 
L 206.285606 295.809016 
L 206.496447 294.354004 
L 206.707276 294.839008 
L 206.918092 294.232753 
L 207.128895 294.293378 
L 207.339685 294.899633 
L 207.550462 294.232753 
L 207.761225 294.475255 
L 207.971976 293.808374 
L 208.393439 294.717757 
L 208.814849 293.687123 
L 209.025535 295.020884 
L 209.446867 292.413988 
L 209.868148 293.262745 
L 210.078768 292.959617 
L 210.289376 292.898992 
L 210.499971 294.293378 
L 210.921121 293.141494 
L 211.131676 293.080868 
L 211.342219 293.444621 
L 211.552748 292.898992 
L 211.763265 292.838366 
L 211.973769 292.353362 
L 212.184259 294.354004 
L 212.394737 293.929625 
L 212.605201 292.292737 
L 212.815653 293.080868 
L 213.026091 294.414629 
L 213.446929 293.202119 
L 213.657328 293.808374 
L 213.867715 293.141494 
L 214.288448 295.142135 
L 214.498796 294.354004 
L 214.70913 295.142135 
L 214.919452 294.778382 
L 215.12976 292.959617 
L 215.340055 293.808374 
L 215.550337 292.232111 
L 215.760607 294.657131 
L 215.970863 293.444621 
L 216.391337 295.384637 
L 216.601554 293.262745 
L 216.811758 296.29402 
L 217.021949 297.142777 
L 217.232127 294.717757 
L 217.442293 294.53588 
L 217.652445 294.717757 
L 218.07271 293.808374 
L 218.282823 295.324012 
L 218.492923 293.202119 
L 218.70301 295.08151 
L 218.913084 295.566514 
L 219.123145 295.142135 
L 219.333194 295.08151 
L 219.543229 295.263386 
L 219.753251 295.930267 
L 219.96326 296.172769 
L 220.173256 294.899633 
L 220.383239 295.08151 
L 220.593209 295.020884 
L 220.803166 295.202761 
L 221.01311 295.08151 
L 221.22304 295.627139 
L 221.432958 293.990251 
L 221.642863 296.536522 
L 221.852755 294.050876 
L 222.062634 294.111502 
L 222.2725 294.53588 
L 222.482353 295.930267 
L 222.692193 294.657131 
L 222.902019 294.960259 
L 223.111833 294.293378 
L 223.321634 295.74839 
L 223.531422 294.839008 
L 223.741197 296.233394 
L 223.950958 294.960259 
L 224.160707 296.172769 
L 224.370443 296.233394 
L 224.580166 298.294661 
L 224.789875 297.021526 
L 224.999572 296.779024 
L 225.209256 297.688406 
L 225.418926 297.567155 
L 225.628584 298.415912 
L 225.838229 298.658414 
L 226.04786 300.477179 
L 226.257479 300.962183 
L 226.467084 300.537805 
L 226.676677 301.265311 
L 226.886257 303.993458 
L 227.095823 302.902199 
L 227.305377 303.872207 
L 227.514917 302.841574 
L 227.933959 305.872849 
L 228.143461 307.267235 
L 228.562425 308.540371 
L 228.771887 307.934116 
L 229.190773 310.541012 
L 229.400196 311.571646 
L 229.609607 311.389769 
L 229.819004 312.602279 
L 230.028389 312.662905 
L 230.23776 311.996024 
L 230.447118 314.966674 
L 230.656464 315.572929 
L 230.865796 314.663547 
L 231.075115 316.724814 
L 231.284422 316.967316 
L 231.493715 317.512945 
L 231.702995 317.027941 
L 231.912262 318.907332 
L 232.121517 318.907332 
L 232.330758 318.786081 
L 232.539986 318.846706 
L 232.749201 320.604846 
L 232.958403 319.87734 
L 233.167592 321.332352 
L 233.376769 321.211101 
L 233.585932 321.75673 
L 233.795082 320.847348 
L 234.004219 323.332993 
L 234.213343 323.757372 
L 234.422454 322.181109 
L 234.840637 324.060499 
L 235.258768 323.454244 
L 235.467814 323.878623 
L 235.676847 324.969882 
L 235.885867 324.060499 
L 236.094874 323.757372 
L 236.303868 325.758013 
L 236.721817 324.848631 
L 236.930772 326.000515 
L 237.139714 325.576137 
L 237.348643 326.667396 
L 237.557559 326.364268 
L 237.766462 327.091774 
L 237.975352 326.303643 
L 238.184228 326.182392 
L 238.393092 326.546145 
L 238.601943 327.394902 
L 238.810781 327.698029 
L 239.019606 326.909898 
L 239.228417 327.334276 
L 239.437216 328.243659 
L 239.646002 327.81928 
L 239.854775 328.061782 
L 240.063534 328.122408 
L 240.272281 327.879906 
L 240.481015 327.81928 
L 240.689736 328.486161 
L 240.898443 327.81928 
L 241.107138 328.607412 
L 241.315819 328.243659 
L 241.524488 328.486161 
L 241.733144 329.274292 
L 241.941786 328.061782 
L 242.150416 327.758655 
L 242.359033 329.334918 
L 242.567636 328.122408 
L 242.776227 329.153041 
L 242.984804 329.516794 
L 243.193369 328.849914 
L 243.40192 328.971165 
L 243.610459 328.668037 
L 243.818984 328.910539 
L 244.027497 328.728663 
L 244.235996 329.153041 
L 244.444482 329.092416 
L 244.652956 328.607412 
L 244.861416 329.092416 
L 245.278298 328.849914 
L 245.486719 328.122408 
L 245.695128 329.03179 
L 245.903523 328.304284 
L 246.320275 329.456169 
L 246.528631 327.81928 
L 247.153622 328.486161 
L 247.361926 328.122408 
L 247.570217 328.122408 
L 247.986761 327.273651 
L 248.195013 327.455527 
L 248.403252 327.334276 
L 248.611478 327.81928 
L 248.819692 327.455527 
L 249.027892 326.788647 
L 249.236079 326.909898 
L 249.444253 326.424894 
L 249.652414 326.60677 
L 249.860562 327.031149 
L 250.068697 326.60677 
L 250.276819 326.60677 
L 250.484928 325.879264 
L 250.693024 326.424894 
L 250.901107 326.485519 
L 251.109177 325.93989 
L 251.317234 326.121766 
L 251.525278 326.970523 
L 251.733309 326.303643 
L 251.941327 326.667396 
L 252.357324 327.81928 
L 252.565303 326.667396 
L 252.981222 327.879906 
L 253.189162 327.031149 
L 253.397089 327.637404 
L 253.605002 327.031149 
L 253.812903 327.81928 
L 254.020791 327.879906 
L 254.228666 327.576778 
L 254.644376 328.607412 
L 254.852212 328.304284 
L 255.060035 329.638045 
L 255.267845 328.971165 
L 255.475641 329.03179 
L 255.683425 328.728663 
L 255.891196 329.880547 
L 256.098954 329.638045 
L 256.306698 329.941173 
L 256.51443 329.880547 
L 256.722149 330.365551 
L 256.929854 331.274934 
L 257.137547 330.426177 
L 257.552893 331.578061 
L 257.760547 331.396185 
L 257.968187 331.032432 
L 258.175815 331.881189 
L 258.383429 331.032432 
L 259.006195 332.608695 
L 259.213757 331.699312 
L 259.628843 333.578703 
L 259.836367 333.154324 
L 260.043877 332.244942 
L 260.251374 333.457452 
L 260.458859 333.699954 
L 260.66633 333.396826 
L 260.873789 333.336201 
L 261.081234 333.760579 
L 261.288666 333.21495 
L 261.496086 334.003081 
L 261.703492 334.063707 
L 261.910885 334.366834 
L 262.118266 334.124332 
L 262.325633 334.42746 
L 262.740328 333.457452 
L 262.947657 334.184958 
L 263.362274 334.306209 
L 263.776839 334.366834 
L 263.984103 334.548711 
L 264.191353 334.003081 
L 264.39859 334.548711 
L 264.605814 334.609336 
L 264.813025 335.033715 
L 265.020223 335.09434 
L 265.43458 334.669962 
L 265.641739 335.336842 
L 265.848886 334.973089 
L 266.056019 335.033715 
L 266.263139 335.518719 
L 266.470246 335.63997 
L 266.67734 335.154966 
L 267.091489 334.669962 
L 267.298543 335.336842 
L 267.505585 335.09434 
L 267.712614 335.276217 
L 268.126633 335.154966 
L 268.333623 335.336842 
L 268.5406 335.154966 
L 268.747564 335.579344 
L 268.954515 335.215591 
L 269.161452 335.458093 
L 269.368377 335.336842 
L 269.575289 335.579344 
L 269.782188 335.09434 
L 270.195946 335.943097 
L 270.609653 335.458093 
L 270.816487 335.943097 
L 271.023307 335.518719 
L 271.230115 335.63997 
L 271.43691 336.124974 
L 271.643691 336.185599 
L 271.85046 335.276217 
L 272.057216 335.397468 
L 272.263958 334.851838 
L 272.677405 336.549352 
L 272.884108 335.336842 
L 273.090799 335.336842 
L 273.297476 335.943097 
L 273.710792 335.518719 
L 274.124056 335.63997 
L 274.537268 335.276217 
L 274.950428 336.246225 
L 275.156989 335.761221 
L 275.570071 335.943097 
L 275.776592 335.882472 
L 275.9831 335.579344 
L 276.189596 335.761221 
L 276.396078 335.761221 
L 276.809004 336.488727 
L 277.015447 335.761221 
L 277.428295 336.003723 
L 277.634699 335.276217 
L 277.84109 336.367476 
L 278.047469 335.63997 
L 278.253834 336.064348 
L 278.460186 335.943097 
L 278.666525 335.63997 
L 278.872852 336.246225 
L 279.079165 336.246225 
L 279.285465 336.064348 
L 279.491752 336.124974 
L 279.904287 336.003723 
L 280.316771 336.185599 
L 280.522993 335.882472 
L 280.729202 336.367476 
L 280.935398 335.882472 
L 281.141581 336.185599 
L 281.347751 336.185599 
L 281.553908 335.882472 
L 281.760052 336.185599 
L 281.966183 336.064348 
L 282.172301 335.518719 
L 282.378406 335.943097 
L 282.584498 335.579344 
L 283.202696 336.003723 
L 283.614762 335.579344 
L 284.026777 336.185599 
L 284.232765 336.124974 
L 284.43874 335.700595 
L 284.644702 336.30685 
L 284.85065 336.064348 
L 285.056586 335.458093 
L 285.262509 336.185599 
L 285.468419 335.518719 
L 285.880199 335.882472 
L 286.08607 335.63997 
L 286.291928 335.882472 
L 286.497772 335.821846 
L 286.703604 335.458093 
L 287.115228 335.458093 
L 287.321021 335.700595 
L 287.732567 335.276217 
L 287.938321 334.730587 
L 288.349789 335.943097 
L 288.555504 335.276217 
L 288.761205 335.518719 
L 288.966894 335.09434 
L 289.172569 335.336842 
L 289.378232 334.912464 
L 289.583881 335.033715 
L 289.789518 334.851838 
L 289.995141 334.42746 
L 290.200752 334.366834 
L 290.406349 334.973089 
L 290.611934 334.912464 
L 291.023063 333.942456 
L 291.228609 334.306209 
L 291.434141 334.306209 
L 291.639661 333.88183 
L 291.845167 333.760579 
L 292.05066 334.548711 
L 292.461608 333.578703 
L 292.667062 333.88183 
L 292.872504 333.518077 
L 293.077932 332.790571 
L 293.283347 333.21495 
L 293.694139 332.608695 
L 293.899515 333.093699 
L 294.515565 331.45681 
L 294.720889 331.638687 
L 294.926201 332.66932 
L 295.131499 332.244942 
L 295.336784 332.123691 
L 295.542056 331.759938 
L 295.747315 331.881189 
L 295.952561 331.759938 
L 296.157794 332.426818 
L 296.363014 331.45681 
L 296.568221 332.184316 
L 296.773415 330.971806 
L 296.978596 331.032432 
L 297.183764 331.699312 
L 297.594061 330.365551 
L 298.004306 330.78993 
L 298.209409 331.45681 
L 298.414499 330.911181 
L 298.619576 331.153683 
L 298.82464 330.547428 
L 299.234729 330.78993 
L 299.644765 330.426177 
L 299.849764 331.032432 
L 300.05475 331.153683 
L 300.464683 329.941173 
L 300.874563 331.032432 
L 301.079484 330.608053 
L 301.489286 331.335559 
L 301.694168 331.274934 
L 301.899037 331.032432 
L 302.103892 331.214308 
L 302.308735 329.880547 
L 302.513565 331.153683 
L 302.718381 331.517436 
L 303.127976 330.547428 
L 303.332753 331.881189 
L 303.537518 331.032432 
L 303.742269 331.578061 
L 303.947008 331.699312 
L 304.151733 331.093057 
L 304.356446 331.578061 
L 304.561145 330.971806 
L 304.765832 331.093057 
L 305.175166 331.941814 
L 305.379813 331.759938 
L 305.584448 331.396185 
L 305.789069 331.941814 
L 305.993678 331.093057 
L 306.198273 332.184316 
L 306.402855 331.759938 
L 306.811981 332.305567 
L 307.016525 332.244942 
L 307.221055 331.638687 
L 307.425572 332.244942 
L 307.630077 332.123691 
L 308.039046 332.911822 
L 308.243511 331.941814 
L 308.447964 332.66932 
L 308.652403 332.911822 
L 308.856829 332.66932 
L 309.061242 333.457452 
L 309.265643 333.033073 
L 309.47003 333.093699 
L 309.674404 333.396826 
L 309.878765 333.336201 
L 310.083113 333.942456 
L 310.287448 333.699954 
L 310.491771 333.639328 
L 310.69608 334.063707 
L 310.900376 333.457452 
L 311.104659 334.124332 
L 311.308929 334.124332 
L 311.513186 333.396826 
L 311.921661 334.548711 
L 312.125879 333.88183 
L 312.534276 334.548711 
L 312.738455 333.942456 
L 312.942621 334.548711 
L 313.350914 334.973089 
L 313.759155 335.154966 
L 314.167343 335.033715 
L 314.371418 335.63997 
L 314.57548 335.215591 
L 315.187588 336.064348 
L 315.391597 335.579344 
L 315.595594 335.821846 
L 315.799578 336.30685 
L 316.003549 336.124974 
L 316.207507 336.367476 
L 316.411451 336.791854 
L 316.819302 335.943097 
L 317.023207 336.670603 
L 317.2271 336.973731 
L 317.43098 336.428101 
L 317.634846 336.731229 
L 317.8387 336.30685 
L 318.042541 336.791854 
L 318.246368 336.488727 
L 318.653984 337.640611 
L 318.857773 336.731229 
L 319.061549 336.973731 
L 319.265311 336.791854 
L 319.469061 337.51936 
L 319.672797 336.85248 
L 319.876521 337.51936 
L 320.080231 337.155607 
L 320.283929 337.398109 
L 320.487613 337.398109 
L 320.691285 337.094982 
L 321.098588 337.398109 
L 321.302221 337.094982 
L 321.50584 337.337484 
L 321.709447 337.398109 
L 321.91304 337.216233 
L 322.320188 337.458735 
L 322.523742 337.094982 
L 322.727283 337.155607 
L 323.134327 337.761862 
L 323.337829 336.973731 
L 323.541318 337.51936 
L 323.744795 337.458735 
L 323.948258 337.701237 
L 324.151708 337.034356 
L 324.355145 337.579986 
L 324.761981 337.337484 
L 324.965379 337.822488 
L 325.168764 337.458735 
L 325.372136 337.51936 
L 325.575495 337.276858 
L 325.778841 337.216233 
L 325.982175 337.337484 
L 326.185495 337.701237 
L 326.388802 337.216233 
L 326.592096 337.155607 
L 326.795377 338.186241 
L 326.998645 337.579986 
L 327.2019 337.51936 
L 327.405142 338.186241 
L 327.608371 337.640611 
L 327.811587 337.51936 
L 328.01479 337.094982 
L 328.21798 337.458735 
L 328.421157 337.276858 
L 328.624321 337.337484 
L 328.827472 337.155607 
L 329.030609 337.155607 
L 329.233734 337.398109 
L 329.436846 337.822488 
L 329.843031 337.034356 
L 330.046104 337.51936 
L 330.249164 337.034356 
L 330.655244 337.640611 
L 330.858265 337.337484 
L 331.264267 337.701237 
L 331.670218 337.276858 
L 331.873174 337.276858 
L 332.076116 337.155607 
L 332.279046 337.276858 
L 332.481963 337.094982 
L 332.684866 337.276858 
L 332.887757 336.973731 
L 333.496351 337.458735 
L 333.699189 337.761862 
L 333.902015 337.337484 
L 334.307627 337.216233 
L 334.510414 337.761862 
L 334.713187 337.761862 
L 334.915948 337.216233 
L 335.118695 337.51936 
L 335.32143 337.398109 
L 335.524151 337.458735 
L 335.72686 336.791854 
L 335.929555 337.034356 
L 336.132237 337.51936 
L 336.334907 337.458735 
L 336.537563 337.579986 
L 336.942837 337.51936 
L 337.348059 337.579986 
L 337.55065 337.579986 
L 337.753228 337.822488 
L 337.955794 337.761862 
L 338.158346 337.458735 
L 338.563411 337.822488 
L 338.765925 337.761862 
L 338.968425 338.004364 
L 339.170912 337.579986 
L 339.373386 337.640611 
L 339.575848 337.51936 
L 339.778296 337.640611 
L 339.980731 337.943739 
L 340.385562 338.06499 
L 340.587958 337.822488 
L 340.790341 338.004364 
L 340.992712 337.761862 
L 341.195069 337.883113 
L 341.397413 338.428743 
L 341.599744 338.06499 
L 341.802062 338.004364 
L 342.004367 337.822488 
L 342.206659 338.246866 
L 342.408938 338.004364 
L 342.611204 337.943739 
L 342.813457 338.125615 
L 343.015697 338.06499 
L 343.217924 337.761862 
L 343.420138 338.06499 
L 343.824527 337.943739 
L 344.026701 338.549994 
L 344.228863 337.822488 
L 344.431012 338.307492 
L 344.633148 338.368117 
L 344.835271 337.883113 
L 345.037381 338.125615 
L 345.239478 338.06499 
L 345.441561 338.549994 
L 345.643632 338.246866 
L 345.84569 338.246866 
L 346.047735 338.004364 
L 346.249767 337.943739 
L 346.653791 338.06499 
L 346.855784 338.004364 
L 347.057763 338.428743 
L 347.25973 338.186241 
L 347.461684 337.761862 
L 347.663624 337.883113 
L 347.865552 337.761862 
L 348.067467 337.822488 
L 348.269368 338.246866 
L 348.673132 337.943739 
L 349.076845 338.125615 
L 349.278681 337.943739 
L 349.480505 338.246866 
L 349.682315 338.004364 
L 349.884113 337.579986 
L 350.085897 337.943739 
L 350.287669 338.06499 
L 350.489427 338.004364 
L 350.691173 338.246866 
L 350.892905 338.06499 
L 351.094625 337.701237 
L 351.296331 338.125615 
L 351.498024 337.458735 
L 351.699705 337.822488 
L 351.901372 337.579986 
L 352.103026 337.51936 
L 352.304668 337.883113 
L 352.707911 337.51936 
L 352.909514 337.822488 
L 353.312679 337.276858 
L 353.91733 337.701237 
L 354.118854 337.034356 
L 354.320366 337.155607 
L 354.521864 337.458735 
L 354.723349 337.216233 
L 355.12628 337.216233 
L 355.327726 337.458735 
L 355.52916 337.155607 
L 355.73058 337.337484 
L 355.931987 336.973731 
L 356.133381 337.094982 
L 356.334762 337.034356 
L 356.53613 337.094982 
L 356.737485 337.883113 
L 356.938827 336.791854 
L 357.140156 337.398109 
L 357.542775 337.094982 
L 357.744065 336.609978 
L 357.945342 337.337484 
L 358.146606 336.731229 
L 358.347857 336.973731 
L 358.549095 336.913105 
L 358.75032 336.609978 
L 358.951532 336.549352 
L 359.152731 336.609978 
L 359.353916 336.488727 
L 359.555089 336.791854 
L 359.756249 336.428101 
L 359.957396 336.488727 
L 360.15853 336.124974 
L 360.359651 336.367476 
L 360.560758 336.973731 
L 360.761853 336.124974 
L 360.962935 336.003723 
L 361.164004 336.246225 
L 361.968149 336.488727 
L 362.169152 335.882472 
L 362.370143 336.428101 
L 362.571121 336.488727 
L 362.772085 336.124974 
L 362.973037 336.791854 
L 363.173976 336.124974 
L 363.374901 336.124974 
L 363.575814 336.488727 
L 363.776713 335.943097 
L 364.178473 336.85248 
L 364.379334 336.064348 
L 364.580181 336.549352 
L 364.781016 336.731229 
L 364.981838 336.246225 
L 365.182646 336.30685 
L 365.383441 336.246225 
L 365.584224 336.973731 
L 366.186493 335.63997 
L 366.387224 336.488727 
L 366.788645 336.488727 
L 366.989337 336.246225 
L 367.190015 336.367476 
L 367.39068 335.943097 
L 367.591333 336.731229 
L 367.791972 336.367476 
L 368.393812 336.609978 
L 368.594399 337.094982 
L 368.794973 336.185599 
L 369.196083 336.913105 
L 369.396618 336.85248 
L 369.59714 337.034356 
L 369.797649 337.034356 
L 369.998146 336.609978 
L 370.198629 336.731229 
L 370.399099 336.30685 
L 370.599556 337.034356 
L 371.000431 336.549352 
L 371.401254 337.155607 
L 371.802025 336.791854 
L 372.002391 337.216233 
L 372.202744 337.216233 
L 372.403084 336.791854 
L 372.603411 336.85248 
L 372.803725 337.398109 
L 373.004026 336.913105 
L 373.204314 337.276858 
L 373.404589 337.398109 
L 373.604851 337.034356 
L 374.005336 337.640611 
L 374.205559 337.51936 
L 374.405769 337.094982 
L 374.605966 337.458735 
L 374.806149 337.276858 
L 375.206478 337.398109 
L 375.406623 338.125615 
L 375.606755 337.458735 
L 375.606755 337.458735 
" clip-path="url(#pb8c483461f)" style="fill: none; stroke: #ff9500; stroke-width: 2; stroke-linecap: square"/>
   </g>
   <g id="patch_3">
    <path d="M 52.03 354.3975 
L 52.03 21.7575 
" style="fill: none; stroke: #000000; stroke-linejoin: miter; stroke-linecap: square"/>
   </g>
   <g id="patch_4">
    <path d="M 498.43 354.3975 
L 498.43 21.7575 
" style="fill: none; stroke: #000000; stroke-linejoin: miter; stroke-linecap: square"/>
   </g>
   <g id="patch_5">
    <path d="M 52.03 354.3975 
L 498.43 354.3975 
" style="fill: none; stroke: #000000; stroke-linejoin: miter; stroke-linecap: square"/>
   </g>
   <g id="patch_6">
    <path d="M 52.03 21.7575 
L 498.43 21.7575 
" style="fill: none; stroke: #000000; stroke-linejoin: miter; stroke-linecap: square"/>
   </g>
   <g id="text_15">
    <!-- Normalized comparison of laser line -->
    <g transform="translate(131.3275 15.7575) scale(0.16 -0.16)">
     <defs>
      <path id="DejaVuSans-4e" d="M 628 4666 
L 1478 4666 
L 3547 763 
L 3547 4666 
L 4159 4666 
L 4159 0 
L 3309 0 
L 1241 3903 
L 1241 0 
L 628 0 
L 628 4666 
z
" transform="scale(0.015625)"/>
      <path id="DejaVuSans-6f" d="M 1959 3097 
Q 1497 3097 1228 2736 
Q 959 2375 959 1747 
Q 959 1119 1226 758 
Q 1494 397 1959 397 
Q 2419 397 2687 759 
Q 2956 1122 2956 1747 
Q 2956 2369 2687 2733 
Q 2419 3097 1959 3097 
z
M 1959 3584 
Q 2709 3584 3137 3096 
Q 3566 2609 3566 1747 
Q 3566 888 3137 398 
Q 2709 -91 1959 -91 
Q 1206 -91 779 398 
Q 353 888 353 1747 
Q 353 2609 779 3096 
Q 1206 3584 1959 3584 
z
" transform="scale(0.015625)"/>
      <path id="DejaVuSans-72" d="M 2631 2963 
Q 2534 3019 2420 3045 
Q 2306 3072 2169 3072 
Q 1681 3072 1420 2755 
Q 1159 2438 1159 1844 
L 1159 0 
L 581 0 
L 581 3500 
L 1159 3500 
L 1159 2956 
Q 1341 3275 1631 3429 
Q 1922 3584 2338 3584 
Q 2397 3584 2469 3576 
Q 2541 3569 2628 3553 
L 2631 2963 
z
" transform="scale(0.015625)"/>
      <path id="DejaVuSans-7a" d="M 353 3500 
L 3084 3500 
L 3084 2975 
L 922 459 
L 3084 459 
L 3084 0 
L 275 0 
L 275 525 
L 2438 3041 
L 353 3041 
L 353 3500 
z
" transform="scale(0.015625)"/>
      <path id="DejaVuSans-64" d="M 2906 2969 
L 2906 4863 
L 3481 4863 
L 3481 0 
L 2906 0 
L 2906 525 
Q 2725 213 2448 61 
Q 2172 -91 1784 -91 
Q 1150 -91 751 415 
Q 353 922 353 1747 
Q 353 2572 751 3078 
Q 1150 3584 1784 3584 
Q 2172 3584 2448 3432 
Q 2725 3281 2906 2969 
z
M 947 1747 
Q 947 1113 1208 752 
Q 1469 391 1925 391 
Q 2381 391 2643 752 
Q 2906 1113 2906 1747 
Q 2906 2381 2643 2742 
Q 2381 3103 1925 3103 
Q 1469 3103 1208 2742 
Q 947 2381 947 1747 
z
" transform="scale(0.015625)"/>
      <path id="DejaVuSans-63" d="M 3122 3366 
L 3122 2828 
Q 2878 2963 2633 3030 
Q 2388 3097 2138 3097 
Q 1578 3097 1268 2742 
Q 959 2388 959 1747 
Q 959 1106 1268 751 
Q 1578 397 2138 397 
Q 2388 397 2633 464 
Q 2878 531 3122 666 
L 3122 134 
Q 2881 22 2623 -34 
Q 2366 -91 2075 -91 
Q 1284 -91 818 406 
Q 353 903 353 1747 
Q 353 2603 823 3093 
Q 1294 3584 2113 3584 
Q 2378 3584 2631 3529 
Q 2884 3475 3122 3366 
z
" transform="scale(0.015625)"/>
      <path id="DejaVuSans-70" d="M 1159 525 
L 1159 -1331 
L 581 -1331 
L 581 3500 
L 1159 3500 
L 1159 2969 
Q 1341 3281 1617 3432 
Q 1894 3584 2278 3584 
Q 2916 3584 3314 3078 
Q 3713 2572 3713 1747 
Q 3713 922 3314 415 
Q 2916 -91 2278 -91 
Q 1894 -91 1617 61 
Q 1341 213 1159 525 
z
M 3116 1747 
Q 3116 2381 2855 2742 
Q 2594 3103 2138 3103 
Q 1681 3103 1420 2742 
Q 1159 2381 1159 1747 
Q 1159 1113 1420 752 
Q 1681 391 2138 391 
Q 2594 391 2855 752 
Q 3116 1113 3116 1747 
z
" transform="scale(0.015625)"/>
      <path id="DejaVuSans-66" d="M 2375 4863 
L 2375 4384 
L 1825 4384 
Q 1516 4384 1395 4259 
Q 1275 4134 1275 3809 
L 1275 3500 
L 2222 3500 
L 2222 3053 
L 1275 3053 
L 1275 0 
L 697 0 
L 697 3053 
L 147 3053 
L 147 3500 
L 697 3500 
L 697 3744 
Q 697 4328 969 4595 
Q 1241 4863 1831 4863 
L 2375 4863 
z
" transform="scale(0.015625)"/>
     </defs>
     <use xlink:href="#DejaVuSans-4e"/>
     <use xlink:href="#DejaVuSans-6f" transform="translate(74.804688 0)"/>
     <use xlink:href="#DejaVuSans-72" transform="translate(135.986328 0)"/>
     <use xlink:href="#DejaVuSans-6d" transform="translate(175.349609 0)"/>
     <use xlink:href="#DejaVuSans-61" transform="translate(272.761719 0)"/>
     <use xlink:href="#DejaVuSans-6c" transform="translate(334.041016 0)"/>
     <use xlink:href="#DejaVuSans-69" transform="translate(361.824219 0)"/>
     <use xlink:href="#DejaVuSans-7a" transform="translate(389.607422 0)"/>
     <use xlink:href="#DejaVuSans-65" transform="translate(442.097656 0)"/>
     <use xlink:href="#DejaVuSans-64" transform="translate(503.621094 0)"/>
     <use xlink:href="#DejaVuSans-20" transform="translate(567.097656 0)"/>
     <use xlink:href="#DejaVuSans-63" transform="translate(598.884766 0)"/>
     <use xlink:href="#DejaVuSans-6f" transform="translate(653.865234 0)"/>
     <use xlink:href="#DejaVuSans-6d" transform="translate(715.046875 0)"/>
     <use xlink:href="#DejaVuSans-70" transform="translate(812.458984 0)"/>
     <use xlink:href="#DejaVuSans-61" transform="translate(875.935547 0)"/>
     <use xlink:href="#DejaVuSans-72" transform="translate(937.214844 0)"/>
     <use xlink:href="#DejaVuSans-69" transform="translate(978.328125 0)"/>
     <use xlink:href="#DejaVuSans-73" transform="translate(1006.111328 0)"/>
     <use xlink:href="#DejaVuSans-6f" transform="translate(1058.210938 0)"/>
     <use xlink:href="#DejaVuSans-6e" transform="translate(1119.392578 0)"/>
     <use xlink:href="#DejaVuSans-20" transform="translate(1182.771484 0)"/>
     <use xlink:href="#DejaVuSans-6f" transform="translate(1214.558594 0)"/>
     <use xlink:href="#DejaVuSans-66" transform="translate(1275.740234 0)"/>
     <use xlink:href="#DejaVuSans-20" transform="translate(1310.945312 0)"/>
     <use xlink:href="#DejaVuSans-6c" transform="translate(1342.732422 0)"/>
     <use xlink:href="#DejaVuSans-61" transform="translate(1370.515625 0)"/>
     <use xlink:href="#DejaVuSans-73" transform="translate(1431.794922 0)"/>
     <use xlink:href="#DejaVuSans-65" transform="translate(1483.894531 0)"/>
     <use xlink:href="#DejaVuSans-72" transform="translate(1545.417969 0)"/>
     <use xlink:href="#DejaVuSans-20" transform="translate(1586.53125 0)"/>
     <use xlink:href="#DejaVuSans-6c" transform="translate(1618.318359 0)"/>
     <use xlink:href="#DejaVuSans-69" transform="translate(1646.101562 0)"/>
     <use xlink:href="#DejaVuSans-6e" transform="translate(1673.884766 0)"/>
     <use xlink:href="#DejaVuSans-65" transform="translate(1737.263672 0)"/>
    </g>
   </g>
   <g id="legend_1">
    <g id="line2d_106">
     <path d="M 109.2375 163.4075 
L 125.2375 163.4075 
L 141.2375 163.4075 
" style="fill: none; stroke: #0c5da5; stroke-width: 2; stroke-linecap: square"/>
    </g>
    <g id="text_16">
     <!-- Verdi free space + 532 LP -->
     <g transform="translate(154.0375 169.0075) scale(0.16 -0.16)">
      <defs>
       <path id="DejaVuSans-56" d="M 1831 0 
L 50 4666 
L 709 4666 
L 2188 738 
L 3669 4666 
L 4325 4666 
L 2547 0 
L 1831 0 
z
" transform="scale(0.015625)"/>
       <path id="DejaVuSans-2b" d="M 2944 4013 
L 2944 2272 
L 4684 2272 
L 4684 1741 
L 2944 1741 
L 2944 0 
L 2419 0 
L 2419 1741 
L 678 1741 
L 678 2272 
L 2419 2272 
L 2419 4013 
L 2944 4013 
z
" transform="scale(0.015625)"/>
       <path id="DejaVuSans-4c" d="M 628 4666 
L 1259 4666 
L 1259 531 
L 3531 531 
L 3531 0 
L 628 0 
L 628 4666 
z
" transform="scale(0.015625)"/>
       <path id="DejaVuSans-50" d="M 1259 4147 
L 1259 2394 
L 2053 2394 
Q 2494 2394 2734 2622 
Q 2975 2850 2975 3272 
Q 2975 3691 2734 3919 
Q 2494 4147 2053 4147 
L 1259 4147 
z
M 628 4666 
L 2053 4666 
Q 2838 4666 3239 4311 
Q 3641 3956 3641 3272 
Q 3641 2581 3239 2228 
Q 2838 1875 2053 1875 
L 1259 1875 
L 1259 0 
L 628 0 
L 628 4666 
z
" transform="scale(0.015625)"/>
      </defs>
      <use xlink:href="#DejaVuSans-56"/>
      <use xlink:href="#DejaVuSans-65" transform="translate(60.658203 0)"/>
      <use xlink:href="#DejaVuSans-72" transform="translate(122.181641 0)"/>
      <use xlink:href="#DejaVuSans-64" transform="translate(161.544922 0)"/>
      <use xlink:href="#DejaVuSans-69" transform="translate(225.021484 0)"/>
      <use xlink:href="#DejaVuSans-20" transform="translate(252.804688 0)"/>
      <use xlink:href="#DejaVuSans-66" transform="translate(284.591797 0)"/>
      <use xlink:href="#DejaVuSans-72" transform="translate(319.796875 0)"/>
      <use xlink:href="#DejaVuSans-65" transform="translate(358.660156 0)"/>
      <use xlink:href="#DejaVuSans-65" transform="translate(420.183594 0)"/>
      <use xlink:href="#DejaVuSans-20" transform="translate(481.707031 0)"/>
      <use xlink:href="#DejaVuSans-73" transform="translate(513.494141 0)"/>
      <use xlink:href="#DejaVuSans-70" transform="translate(565.59375 0)"/>
      <use xlink:href="#DejaVuSans-61" transform="translate(629.070312 0)"/>
      <use xlink:href="#DejaVuSans-63" transform="translate(690.349609 0)"/>
      <use xlink:href="#DejaVuSans-65" transform="translate(745.330078 0)"/>
      <use xlink:href="#DejaVuSans-20" transform="translate(806.853516 0)"/>
      <use xlink:href="#DejaVuSans-2b" transform="translate(838.640625 0)"/>
      <use xlink:href="#DejaVuSans-20" transform="translate(922.429688 0)"/>
      <use xlink:href="#DejaVuSans-35" transform="translate(954.216797 0)"/>
      <use xlink:href="#DejaVuSans-33" transform="translate(1017.839844 0)"/>
      <use xlink:href="#DejaVuSans-32" transform="translate(1081.462891 0)"/>
      <use xlink:href="#DejaVuSans-20" transform="translate(1145.085938 0)"/>
      <use xlink:href="#DejaVuSans-4c" transform="translate(1176.873047 0)"/>
      <use xlink:href="#DejaVuSans-50" transform="translate(1232.585938 0)"/>
     </g>
    </g>
    <g id="line2d_107">
     <path d="M 109.2375 186.8925 
L 125.2375 186.8925 
L 141.2375 186.8925 
" style="fill: none; stroke: #00b945; stroke-width: 2; stroke-linecap: square"/>
    </g>
    <g id="text_17">
     <!-- Verdi free space + 532 LP -->
     <g transform="translate(154.0375 192.4925) scale(0.16 -0.16)">
      <use xlink:href="#DejaVuSans-56"/>
      <use xlink:href="#DejaVuSans-65" transform="translate(60.658203 0)"/>
      <use xlink:href="#DejaVuSans-72" transform="translate(122.181641 0)"/>
      <use xlink:href="#DejaVuSans-64" transform="translate(161.544922 0)"/>
      <use xlink:href="#DejaVuSans-69" transform="translate(225.021484 0)"/>
      <use xlink:href="#DejaVuSans-20" transform="translate(252.804688 0)"/>
      <use xlink:href="#DejaVuSans-66" transform="translate(284.591797 0)"/>
      <use xlink:href="#DejaVuSans-72" transform="translate(319.796875 0)"/>
      <use xlink:href="#DejaVuSans-65" transform="translate(358.660156 0)"/>
      <use xlink:href="#DejaVuSans-65" transform="translate(420.183594 0)"/>
      <use xlink:href="#DejaVuSans-20" transform="translate(481.707031 0)"/>
      <use xlink:href="#DejaVuSans-73" transform="translate(513.494141 0)"/>
      <use xlink:href="#DejaVuSans-70" transform="translate(565.59375 0)"/>
      <use xlink:href="#DejaVuSans-61" transform="translate(629.070312 0)"/>
      <use xlink:href="#DejaVuSans-63" transform="translate(690.349609 0)"/>
      <use xlink:href="#DejaVuSans-65" transform="translate(745.330078 0)"/>
      <use xlink:href="#DejaVuSans-20" transform="translate(806.853516 0)"/>
      <use xlink:href="#DejaVuSans-2b" transform="translate(838.640625 0)"/>
      <use xlink:href="#DejaVuSans-20" transform="translate(922.429688 0)"/>
      <use xlink:href="#DejaVuSans-35" transform="translate(954.216797 0)"/>
      <use xlink:href="#DejaVuSans-33" transform="translate(1017.839844 0)"/>
      <use xlink:href="#DejaVuSans-32" transform="translate(1081.462891 0)"/>
      <use xlink:href="#DejaVuSans-20" transform="translate(1145.085938 0)"/>
      <use xlink:href="#DejaVuSans-4c" transform="translate(1176.873047 0)"/>
      <use xlink:href="#DejaVuSans-50" transform="translate(1232.585938 0)"/>
     </g>
    </g>
    <g id="line2d_108">
     <path d="M 109.2375 210.3775 
L 125.2375 210.3775 
L 141.2375 210.3775 
" style="fill: none; stroke: #ff9500; stroke-width: 2; stroke-linecap: square"/>
    </g>
    <g id="text_18">
     <!-- WITec spectrometer after glass cover slip -->
     <g transform="translate(154.0375 215.9775) scale(0.16 -0.16)">
      <defs>
       <path id="DejaVuSans-54" d="M -19 4666 
L 3928 4666 
L 3928 4134 
L 2272 4134 
L 2272 0 
L 1638 0 
L 1638 4134 
L -19 4134 
L -19 4666 
z
" transform="scale(0.015625)"/>
      </defs>
      <use xlink:href="#DejaVuSans-57"/>
      <use xlink:href="#DejaVuSans-49" transform="translate(98.876953 0)"/>
      <use xlink:href="#DejaVuSans-54" transform="translate(128.369141 0)"/>
      <use xlink:href="#DejaVuSans-65" transform="translate(172.453125 0)"/>
      <use xlink:href="#DejaVuSans-63" transform="translate(233.976562 0)"/>
      <use xlink:href="#DejaVuSans-20" transform="translate(288.957031 0)"/>
      <use xlink:href="#DejaVuSans-73" transform="translate(320.744141 0)"/>
      <use xlink:href="#DejaVuSans-70" transform="translate(372.84375 0)"/>
      <use xlink:href="#DejaVuSans-65" transform="translate(436.320312 0)"/>
      <use xlink:href="#DejaVuSans-63" transform="translate(497.84375 0)"/>
      <use xlink:href="#DejaVuSans-74" transform="translate(552.824219 0)"/>
      <use xlink:href="#DejaVuSans-72" transform="translate(592.033203 0)"/>
      <use xlink:href="#DejaVuSans-6f" transform="translate(630.896484 0)"/>
      <use xlink:href="#DejaVuSans-6d" transform="translate(692.078125 0)"/>
      <use xlink:href="#DejaVuSans-65" transform="translate(789.490234 0)"/>
      <use xlink:href="#DejaVuSans-74" transform="translate(851.013672 0)"/>
      <use xlink:href="#DejaVuSans-65" transform="translate(890.222656 0)"/>
      <use xlink:href="#DejaVuSans-72" transform="translate(951.746094 0)"/>
      <use xlink:href="#DejaVuSans-20" transform="translate(992.859375 0)"/>
      <use xlink:href="#DejaVuSans-61" transform="translate(1024.646484 0)"/>
      <use xlink:href="#DejaVuSans-66" transform="translate(1085.925781 0)"/>
      <use xlink:href="#DejaVuSans-74" transform="translate(1119.380859 0)"/>
      <use xlink:href="#DejaVuSans-65" transform="translate(1158.589844 0)"/>
      <use xlink:href="#DejaVuSans-72" transform="translate(1220.113281 0)"/>
      <use xlink:href="#DejaVuSans-20" transform="translate(1261.226562 0)"/>
      <use xlink:href="#DejaVuSans-67" transform="translate(1293.013672 0)"/>
      <use xlink:href="#DejaVuSans-6c" transform="translate(1356.490234 0)"/>
      <use xlink:href="#DejaVuSans-61" transform="translate(1384.273438 0)"/>
      <use xlink:href="#DejaVuSans-73" transform="translate(1445.552734 0)"/>
      <use xlink:href="#DejaVuSans-73" transform="translate(1497.652344 0)"/>
      <use xlink:href="#DejaVuSans-20" transform="translate(1549.751953 0)"/>
      <use xlink:href="#DejaVuSans-63" transform="translate(1581.539062 0)"/>
      <use xlink:href="#DejaVuSans-6f" transform="translate(1636.519531 0)"/>
      <use xlink:href="#DejaVuSans-76" transform="translate(1697.701172 0)"/>
      <use xlink:href="#DejaVuSans-65" transform="translate(1756.880859 0)"/>
      <use xlink:href="#DejaVuSans-72" transform="translate(1818.404297 0)"/>
      <use xlink:href="#DejaVuSans-20" transform="translate(1859.517578 0)"/>
      <use xlink:href="#DejaVuSans-73" transform="translate(1891.304688 0)"/>
      <use xlink:href="#DejaVuSans-6c" transform="translate(1943.404297 0)"/>
      <use xlink:href="#DejaVuSans-69" transform="translate(1971.1875 0)"/>
      <use xlink:href="#DejaVuSans-70" transform="translate(1998.970703 0)"/>
     </g>
    </g>
   </g>
  </g>
 </g>
 <defs>
  <clipPath id="pb8c483461f">
   <rect x="52.03" y="21.7575" width="446.4" height="332.64"/>
  </clipPath>
 </defs>
</svg>
