<?xml version="1.0" encoding="utf-8" standalone="no"?>
<!DOCTYPE svg PUBLIC "-//W3C//DTD SVG 1.1//EN"
  "http://www.w3.org/Graphics/SVG/1.1/DTD/svg11.dtd">
<svg xmlns:xlink="http://www.w3.org/1999/xlink" width="527.485pt" height="396.4675pt" viewBox="0 0 527.485 396.4675" xmlns="http://www.w3.org/2000/svg" version="1.1">
 <metadata>
  <rdf:RDF xmlns:dc="http://purl.org/dc/elements/1.1/" xmlns:cc="http://creativecommons.org/ns#" xmlns:rdf="http://www.w3.org/1999/02/22-rdf-syntax-ns#">
   <cc:Work>
    <dc:type rdf:resource="http://purl.org/dc/dcmitype/StillImage"/>
    <dc:date>2025-01-20T19:44:19.013701</dc:date>
    <dc:format>image/svg+xml</dc:format>
    <dc:creator>
     <cc:Agent>
      <dc:title>Matplotlib v3.10.0, https://matplotlib.org/</dc:title>
     </cc:Agent>
    </dc:creator>
   </cc:Work>
  </rdf:RDF>
 </metadata>
 <defs>
  <style type="text/css">*{stroke-linejoin: round; stroke-linecap: butt}</style>
 </defs>
 <g id="figure_1">
  <g id="patch_1">
   <path d="M 0 396.4675 
L 527.485 396.4675 
L 527.485 0 
L 0 0 
z
" style="fill: #ffffff"/>
  </g>
  <g id="axes_1">
   <g id="patch_2">
    <path d="M 77.485 354.3975 
L 523.885 354.3975 
L 523.885 21.7575 
L 77.485 21.7575 
z
" style="fill: #ffffff"/>
   </g>
   <g id="matplotlib.axis_1">
    <g id="xtick_1">
     <g id="line2d_1">
      <defs>
       <path id="mf74790b0b8" d="M 0 0 
L 0 -6 
" style="stroke: #000000"/>
      </defs>
      <g>
       <use xlink:href="#mf74790b0b8" x="77.485" y="354.3975" style="stroke: #000000"/>
      </g>
     </g>
     <g id="line2d_2">
      <defs>
       <path id="m7f31406ea7" d="M 0 0 
L 0 6 
" style="stroke: #000000"/>
      </defs>
      <g>
       <use xlink:href="#m7f31406ea7" x="77.485" y="21.7575" style="stroke: #000000"/>
      </g>
     </g>
     <g id="text_1">
      <!-- 500 -->
      <g transform="translate(62.215 370.055) scale(0.16 -0.16)">
       <defs>
        <path id="DejaVuSans-35" d="M 691 4666 
L 3169 4666 
L 3169 4134 
L 1269 4134 
L 1269 2991 
Q 1406 3038 1543 3061 
Q 1681 3084 1819 3084 
Q 2600 3084 3056 2656 
Q 3513 2228 3513 1497 
Q 3513 744 3044 326 
Q 2575 -91 1722 -91 
Q 1428 -91 1123 -41 
Q 819 9 494 109 
L 494 744 
Q 775 591 1075 516 
Q 1375 441 1709 441 
Q 2250 441 2565 725 
Q 2881 1009 2881 1497 
Q 2881 1984 2565 2268 
Q 2250 2553 1709 2553 
Q 1456 2553 1204 2497 
Q 953 2441 691 2322 
L 691 4666 
z
" transform="scale(0.015625)"/>
        <path id="DejaVuSans-30" d="M 2034 4250 
Q 1547 4250 1301 3770 
Q 1056 3291 1056 2328 
Q 1056 1369 1301 889 
Q 1547 409 2034 409 
Q 2525 409 2770 889 
Q 3016 1369 3016 2328 
Q 3016 3291 2770 3770 
Q 2525 4250 2034 4250 
z
M 2034 4750 
Q 2819 4750 3233 4129 
Q 3647 3509 3647 2328 
Q 3647 1150 3233 529 
Q 2819 -91 2034 -91 
Q 1250 -91 836 529 
Q 422 1150 422 2328 
Q 422 3509 836 4129 
Q 1250 4750 2034 4750 
z
" transform="scale(0.015625)"/>
       </defs>
       <use xlink:href="#DejaVuSans-35"/>
       <use xlink:href="#DejaVuSans-30" transform="translate(63.623047 0)"/>
       <use xlink:href="#DejaVuSans-30" transform="translate(127.246094 0)"/>
      </g>
     </g>
    </g>
    <g id="xtick_2">
     <g id="line2d_3">
      <g>
       <use xlink:href="#mf74790b0b8" x="137.005" y="354.3975" style="stroke: #000000"/>
      </g>
     </g>
     <g id="line2d_4">
      <g>
       <use xlink:href="#m7f31406ea7" x="137.005" y="21.7575" style="stroke: #000000"/>
      </g>
     </g>
     <g id="text_2">
      <!-- 520 -->
      <g transform="translate(121.735 370.055) scale(0.16 -0.16)">
       <defs>
        <path id="DejaVuSans-32" d="M 1228 531 
L 3431 531 
L 3431 0 
L 469 0 
L 469 531 
Q 828 903 1448 1529 
Q 2069 2156 2228 2338 
Q 2531 2678 2651 2914 
Q 2772 3150 2772 3378 
Q 2772 3750 2511 3984 
Q 2250 4219 1831 4219 
Q 1534 4219 1204 4116 
Q 875 4013 500 3803 
L 500 4441 
Q 881 4594 1212 4672 
Q 1544 4750 1819 4750 
Q 2544 4750 2975 4387 
Q 3406 4025 3406 3419 
Q 3406 3131 3298 2873 
Q 3191 2616 2906 2266 
Q 2828 2175 2409 1742 
Q 1991 1309 1228 531 
z
" transform="scale(0.015625)"/>
       </defs>
       <use xlink:href="#DejaVuSans-35"/>
       <use xlink:href="#DejaVuSans-32" transform="translate(63.623047 0)"/>
       <use xlink:href="#DejaVuSans-30" transform="translate(127.246094 0)"/>
      </g>
     </g>
    </g>
    <g id="xtick_3">
     <g id="line2d_5">
      <g>
       <use xlink:href="#mf74790b0b8" x="196.525" y="354.3975" style="stroke: #000000"/>
      </g>
     </g>
     <g id="line2d_6">
      <g>
       <use xlink:href="#m7f31406ea7" x="196.525" y="21.7575" style="stroke: #000000"/>
      </g>
     </g>
     <g id="text_3">
      <!-- 540 -->
      <g transform="translate(181.255 370.055) scale(0.16 -0.16)">
       <defs>
        <path id="DejaVuSans-34" d="M 2419 4116 
L 825 1625 
L 2419 1625 
L 2419 4116 
z
M 2253 4666 
L 3047 4666 
L 3047 1625 
L 3713 1625 
L 3713 1100 
L 3047 1100 
L 3047 0 
L 2419 0 
L 2419 1100 
L 313 1100 
L 313 1709 
L 2253 4666 
z
" transform="scale(0.015625)"/>
       </defs>
       <use xlink:href="#DejaVuSans-35"/>
       <use xlink:href="#DejaVuSans-34" transform="translate(63.623047 0)"/>
       <use xlink:href="#DejaVuSans-30" transform="translate(127.246094 0)"/>
      </g>
     </g>
    </g>
    <g id="xtick_4">
     <g id="line2d_7">
      <g>
       <use xlink:href="#mf74790b0b8" x="256.045" y="354.3975" style="stroke: #000000"/>
      </g>
     </g>
     <g id="line2d_8">
      <g>
       <use xlink:href="#m7f31406ea7" x="256.045" y="21.7575" style="stroke: #000000"/>
      </g>
     </g>
     <g id="text_4">
      <!-- 560 -->
      <g transform="translate(240.775 370.055) scale(0.16 -0.16)">
       <defs>
        <path id="DejaVuSans-36" d="M 2113 2584 
Q 1688 2584 1439 2293 
Q 1191 2003 1191 1497 
Q 1191 994 1439 701 
Q 1688 409 2113 409 
Q 2538 409 2786 701 
Q 3034 994 3034 1497 
Q 3034 2003 2786 2293 
Q 2538 2584 2113 2584 
z
M 3366 4563 
L 3366 3988 
Q 3128 4100 2886 4159 
Q 2644 4219 2406 4219 
Q 1781 4219 1451 3797 
Q 1122 3375 1075 2522 
Q 1259 2794 1537 2939 
Q 1816 3084 2150 3084 
Q 2853 3084 3261 2657 
Q 3669 2231 3669 1497 
Q 3669 778 3244 343 
Q 2819 -91 2113 -91 
Q 1303 -91 875 529 
Q 447 1150 447 2328 
Q 447 3434 972 4092 
Q 1497 4750 2381 4750 
Q 2619 4750 2861 4703 
Q 3103 4656 3366 4563 
z
" transform="scale(0.015625)"/>
       </defs>
       <use xlink:href="#DejaVuSans-35"/>
       <use xlink:href="#DejaVuSans-36" transform="translate(63.623047 0)"/>
       <use xlink:href="#DejaVuSans-30" transform="translate(127.246094 0)"/>
      </g>
     </g>
    </g>
    <g id="xtick_5">
     <g id="line2d_9">
      <g>
       <use xlink:href="#mf74790b0b8" x="315.565" y="354.3975" style="stroke: #000000"/>
      </g>
     </g>
     <g id="line2d_10">
      <g>
       <use xlink:href="#m7f31406ea7" x="315.565" y="21.7575" style="stroke: #000000"/>
      </g>
     </g>
     <g id="text_5">
      <!-- 580 -->
      <g transform="translate(300.295 370.055) scale(0.16 -0.16)">
       <defs>
        <path id="DejaVuSans-38" d="M 2034 2216 
Q 1584 2216 1326 1975 
Q 1069 1734 1069 1313 
Q 1069 891 1326 650 
Q 1584 409 2034 409 
Q 2484 409 2743 651 
Q 3003 894 3003 1313 
Q 3003 1734 2745 1975 
Q 2488 2216 2034 2216 
z
M 1403 2484 
Q 997 2584 770 2862 
Q 544 3141 544 3541 
Q 544 4100 942 4425 
Q 1341 4750 2034 4750 
Q 2731 4750 3128 4425 
Q 3525 4100 3525 3541 
Q 3525 3141 3298 2862 
Q 3072 2584 2669 2484 
Q 3125 2378 3379 2068 
Q 3634 1759 3634 1313 
Q 3634 634 3220 271 
Q 2806 -91 2034 -91 
Q 1263 -91 848 271 
Q 434 634 434 1313 
Q 434 1759 690 2068 
Q 947 2378 1403 2484 
z
M 1172 3481 
Q 1172 3119 1398 2916 
Q 1625 2713 2034 2713 
Q 2441 2713 2670 2916 
Q 2900 3119 2900 3481 
Q 2900 3844 2670 4047 
Q 2441 4250 2034 4250 
Q 1625 4250 1398 4047 
Q 1172 3844 1172 3481 
z
" transform="scale(0.015625)"/>
       </defs>
       <use xlink:href="#DejaVuSans-35"/>
       <use xlink:href="#DejaVuSans-38" transform="translate(63.623047 0)"/>
       <use xlink:href="#DejaVuSans-30" transform="translate(127.246094 0)"/>
      </g>
     </g>
    </g>
    <g id="xtick_6">
     <g id="line2d_11">
      <g>
       <use xlink:href="#mf74790b0b8" x="375.085" y="354.3975" style="stroke: #000000"/>
      </g>
     </g>
     <g id="line2d_12">
      <g>
       <use xlink:href="#m7f31406ea7" x="375.085" y="21.7575" style="stroke: #000000"/>
      </g>
     </g>
     <g id="text_6">
      <!-- 600 -->
      <g transform="translate(359.815 370.055) scale(0.16 -0.16)">
       <use xlink:href="#DejaVuSans-36"/>
       <use xlink:href="#DejaVuSans-30" transform="translate(63.623047 0)"/>
       <use xlink:href="#DejaVuSans-30" transform="translate(127.246094 0)"/>
      </g>
     </g>
    </g>
    <g id="xtick_7">
     <g id="line2d_13">
      <g>
       <use xlink:href="#mf74790b0b8" x="434.605" y="354.3975" style="stroke: #000000"/>
      </g>
     </g>
     <g id="line2d_14">
      <g>
       <use xlink:href="#m7f31406ea7" x="434.605" y="21.7575" style="stroke: #000000"/>
      </g>
     </g>
     <g id="text_7">
      <!-- 620 -->
      <g transform="translate(419.335 370.055) scale(0.16 -0.16)">
       <use xlink:href="#DejaVuSans-36"/>
       <use xlink:href="#DejaVuSans-32" transform="translate(63.623047 0)"/>
       <use xlink:href="#DejaVuSans-30" transform="translate(127.246094 0)"/>
      </g>
     </g>
    </g>
    <g id="xtick_8">
     <g id="line2d_15">
      <g>
       <use xlink:href="#mf74790b0b8" x="494.125" y="354.3975" style="stroke: #000000"/>
      </g>
     </g>
     <g id="line2d_16">
      <g>
       <use xlink:href="#m7f31406ea7" x="494.125" y="21.7575" style="stroke: #000000"/>
      </g>
     </g>
     <g id="text_8">
      <!-- 640 -->
      <g transform="translate(478.855 370.055) scale(0.16 -0.16)">
       <use xlink:href="#DejaVuSans-36"/>
       <use xlink:href="#DejaVuSans-34" transform="translate(63.623047 0)"/>
       <use xlink:href="#DejaVuSans-30" transform="translate(127.246094 0)"/>
      </g>
     </g>
    </g>
    <g id="xtick_9">
     <g id="line2d_17">
      <defs>
       <path id="mddef5f9a37" d="M 0 0 
L 0 -3 
" style="stroke: #000000"/>
      </defs>
      <g>
       <use xlink:href="#mddef5f9a37" x="92.365" y="354.3975" style="stroke: #000000"/>
      </g>
     </g>
     <g id="line2d_18">
      <defs>
       <path id="ma22187d6f7" d="M 0 0 
L 0 3 
" style="stroke: #000000"/>
      </defs>
      <g>
       <use xlink:href="#ma22187d6f7" x="92.365" y="21.7575" style="stroke: #000000"/>
      </g>
     </g>
    </g>
    <g id="xtick_10">
     <g id="line2d_19">
      <g>
       <use xlink:href="#mddef5f9a37" x="107.245" y="354.3975" style="stroke: #000000"/>
      </g>
     </g>
     <g id="line2d_20">
      <g>
       <use xlink:href="#ma22187d6f7" x="107.245" y="21.7575" style="stroke: #000000"/>
      </g>
     </g>
    </g>
    <g id="xtick_11">
     <g id="line2d_21">
      <g>
       <use xlink:href="#mddef5f9a37" x="122.125" y="354.3975" style="stroke: #000000"/>
      </g>
     </g>
     <g id="line2d_22">
      <g>
       <use xlink:href="#ma22187d6f7" x="122.125" y="21.7575" style="stroke: #000000"/>
      </g>
     </g>
    </g>
    <g id="xtick_12">
     <g id="line2d_23">
      <g>
       <use xlink:href="#mddef5f9a37" x="151.885" y="354.3975" style="stroke: #000000"/>
      </g>
     </g>
     <g id="line2d_24">
      <g>
       <use xlink:href="#ma22187d6f7" x="151.885" y="21.7575" style="stroke: #000000"/>
      </g>
     </g>
    </g>
    <g id="xtick_13">
     <g id="line2d_25">
      <g>
       <use xlink:href="#mddef5f9a37" x="166.765" y="354.3975" style="stroke: #000000"/>
      </g>
     </g>
     <g id="line2d_26">
      <g>
       <use xlink:href="#ma22187d6f7" x="166.765" y="21.7575" style="stroke: #000000"/>
      </g>
     </g>
    </g>
    <g id="xtick_14">
     <g id="line2d_27">
      <g>
       <use xlink:href="#mddef5f9a37" x="181.645" y="354.3975" style="stroke: #000000"/>
      </g>
     </g>
     <g id="line2d_28">
      <g>
       <use xlink:href="#ma22187d6f7" x="181.645" y="21.7575" style="stroke: #000000"/>
      </g>
     </g>
    </g>
    <g id="xtick_15">
     <g id="line2d_29">
      <g>
       <use xlink:href="#mddef5f9a37" x="211.405" y="354.3975" style="stroke: #000000"/>
      </g>
     </g>
     <g id="line2d_30">
      <g>
       <use xlink:href="#ma22187d6f7" x="211.405" y="21.7575" style="stroke: #000000"/>
      </g>
     </g>
    </g>
    <g id="xtick_16">
     <g id="line2d_31">
      <g>
       <use xlink:href="#mddef5f9a37" x="226.285" y="354.3975" style="stroke: #000000"/>
      </g>
     </g>
     <g id="line2d_32">
      <g>
       <use xlink:href="#ma22187d6f7" x="226.285" y="21.7575" style="stroke: #000000"/>
      </g>
     </g>
    </g>
    <g id="xtick_17">
     <g id="line2d_33">
      <g>
       <use xlink:href="#mddef5f9a37" x="241.165" y="354.3975" style="stroke: #000000"/>
      </g>
     </g>
     <g id="line2d_34">
      <g>
       <use xlink:href="#ma22187d6f7" x="241.165" y="21.7575" style="stroke: #000000"/>
      </g>
     </g>
    </g>
    <g id="xtick_18">
     <g id="line2d_35">
      <g>
       <use xlink:href="#mddef5f9a37" x="270.925" y="354.3975" style="stroke: #000000"/>
      </g>
     </g>
     <g id="line2d_36">
      <g>
       <use xlink:href="#ma22187d6f7" x="270.925" y="21.7575" style="stroke: #000000"/>
      </g>
     </g>
    </g>
    <g id="xtick_19">
     <g id="line2d_37">
      <g>
       <use xlink:href="#mddef5f9a37" x="285.805" y="354.3975" style="stroke: #000000"/>
      </g>
     </g>
     <g id="line2d_38">
      <g>
       <use xlink:href="#ma22187d6f7" x="285.805" y="21.7575" style="stroke: #000000"/>
      </g>
     </g>
    </g>
    <g id="xtick_20">
     <g id="line2d_39">
      <g>
       <use xlink:href="#mddef5f9a37" x="300.685" y="354.3975" style="stroke: #000000"/>
      </g>
     </g>
     <g id="line2d_40">
      <g>
       <use xlink:href="#ma22187d6f7" x="300.685" y="21.7575" style="stroke: #000000"/>
      </g>
     </g>
    </g>
    <g id="xtick_21">
     <g id="line2d_41">
      <g>
       <use xlink:href="#mddef5f9a37" x="330.445" y="354.3975" style="stroke: #000000"/>
      </g>
     </g>
     <g id="line2d_42">
      <g>
       <use xlink:href="#ma22187d6f7" x="330.445" y="21.7575" style="stroke: #000000"/>
      </g>
     </g>
    </g>
    <g id="xtick_22">
     <g id="line2d_43">
      <g>
       <use xlink:href="#mddef5f9a37" x="345.325" y="354.3975" style="stroke: #000000"/>
      </g>
     </g>
     <g id="line2d_44">
      <g>
       <use xlink:href="#ma22187d6f7" x="345.325" y="21.7575" style="stroke: #000000"/>
      </g>
     </g>
    </g>
    <g id="xtick_23">
     <g id="line2d_45">
      <g>
       <use xlink:href="#mddef5f9a37" x="360.205" y="354.3975" style="stroke: #000000"/>
      </g>
     </g>
     <g id="line2d_46">
      <g>
       <use xlink:href="#ma22187d6f7" x="360.205" y="21.7575" style="stroke: #000000"/>
      </g>
     </g>
    </g>
    <g id="xtick_24">
     <g id="line2d_47">
      <g>
       <use xlink:href="#mddef5f9a37" x="389.965" y="354.3975" style="stroke: #000000"/>
      </g>
     </g>
     <g id="line2d_48">
      <g>
       <use xlink:href="#ma22187d6f7" x="389.965" y="21.7575" style="stroke: #000000"/>
      </g>
     </g>
    </g>
    <g id="xtick_25">
     <g id="line2d_49">
      <g>
       <use xlink:href="#mddef5f9a37" x="404.845" y="354.3975" style="stroke: #000000"/>
      </g>
     </g>
     <g id="line2d_50">
      <g>
       <use xlink:href="#ma22187d6f7" x="404.845" y="21.7575" style="stroke: #000000"/>
      </g>
     </g>
    </g>
    <g id="xtick_26">
     <g id="line2d_51">
      <g>
       <use xlink:href="#mddef5f9a37" x="419.725" y="354.3975" style="stroke: #000000"/>
      </g>
     </g>
     <g id="line2d_52">
      <g>
       <use xlink:href="#ma22187d6f7" x="419.725" y="21.7575" style="stroke: #000000"/>
      </g>
     </g>
    </g>
    <g id="xtick_27">
     <g id="line2d_53">
      <g>
       <use xlink:href="#mddef5f9a37" x="449.485" y="354.3975" style="stroke: #000000"/>
      </g>
     </g>
     <g id="line2d_54">
      <g>
       <use xlink:href="#ma22187d6f7" x="449.485" y="21.7575" style="stroke: #000000"/>
      </g>
     </g>
    </g>
    <g id="xtick_28">
     <g id="line2d_55">
      <g>
       <use xlink:href="#mddef5f9a37" x="464.365" y="354.3975" style="stroke: #000000"/>
      </g>
     </g>
     <g id="line2d_56">
      <g>
       <use xlink:href="#ma22187d6f7" x="464.365" y="21.7575" style="stroke: #000000"/>
      </g>
     </g>
    </g>
    <g id="xtick_29">
     <g id="line2d_57">
      <g>
       <use xlink:href="#mddef5f9a37" x="479.245" y="354.3975" style="stroke: #000000"/>
      </g>
     </g>
     <g id="line2d_58">
      <g>
       <use xlink:href="#ma22187d6f7" x="479.245" y="21.7575" style="stroke: #000000"/>
      </g>
     </g>
    </g>
    <g id="xtick_30">
     <g id="line2d_59">
      <g>
       <use xlink:href="#mddef5f9a37" x="509.005" y="354.3975" style="stroke: #000000"/>
      </g>
     </g>
     <g id="line2d_60">
      <g>
       <use xlink:href="#ma22187d6f7" x="509.005" y="21.7575" style="stroke: #000000"/>
      </g>
     </g>
    </g>
    <g id="xtick_31">
     <g id="line2d_61">
      <g>
       <use xlink:href="#mddef5f9a37" x="523.885" y="354.3975" style="stroke: #000000"/>
      </g>
     </g>
     <g id="line2d_62">
      <g>
       <use xlink:href="#ma22187d6f7" x="523.885" y="21.7575" style="stroke: #000000"/>
      </g>
     </g>
    </g>
    <g id="text_9">
     <!-- Wavelength (nm) -->
     <g transform="translate(231.5775 389.54) scale(0.16 -0.16)">
      <defs>
       <path id="DejaVuSans-57" d="M 213 4666 
L 850 4666 
L 1831 722 
L 2809 4666 
L 3519 4666 
L 4500 722 
L 5478 4666 
L 6119 4666 
L 4947 0 
L 4153 0 
L 3169 4050 
L 2175 0 
L 1381 0 
L 213 4666 
z
" transform="scale(0.015625)"/>
       <path id="DejaVuSans-61" d="M 2194 1759 
Q 1497 1759 1228 1600 
Q 959 1441 959 1056 
Q 959 750 1161 570 
Q 1363 391 1709 391 
Q 2188 391 2477 730 
Q 2766 1069 2766 1631 
L 2766 1759 
L 2194 1759 
z
M 3341 1997 
L 3341 0 
L 2766 0 
L 2766 531 
Q 2569 213 2275 61 
Q 1981 -91 1556 -91 
Q 1019 -91 701 211 
Q 384 513 384 1019 
Q 384 1609 779 1909 
Q 1175 2209 1959 2209 
L 2766 2209 
L 2766 2266 
Q 2766 2663 2505 2880 
Q 2244 3097 1772 3097 
Q 1472 3097 1187 3025 
Q 903 2953 641 2809 
L 641 3341 
Q 956 3463 1253 3523 
Q 1550 3584 1831 3584 
Q 2591 3584 2966 3190 
Q 3341 2797 3341 1997 
z
" transform="scale(0.015625)"/>
       <path id="DejaVuSans-76" d="M 191 3500 
L 800 3500 
L 1894 563 
L 2988 3500 
L 3597 3500 
L 2284 0 
L 1503 0 
L 191 3500 
z
" transform="scale(0.015625)"/>
       <path id="DejaVuSans-65" d="M 3597 1894 
L 3597 1613 
L 953 1613 
Q 991 1019 1311 708 
Q 1631 397 2203 397 
Q 2534 397 2845 478 
Q 3156 559 3463 722 
L 3463 178 
Q 3153 47 2828 -22 
Q 2503 -91 2169 -91 
Q 1331 -91 842 396 
Q 353 884 353 1716 
Q 353 2575 817 3079 
Q 1281 3584 2069 3584 
Q 2775 3584 3186 3129 
Q 3597 2675 3597 1894 
z
M 3022 2063 
Q 3016 2534 2758 2815 
Q 2500 3097 2075 3097 
Q 1594 3097 1305 2825 
Q 1016 2553 972 2059 
L 3022 2063 
z
" transform="scale(0.015625)"/>
       <path id="DejaVuSans-6c" d="M 603 4863 
L 1178 4863 
L 1178 0 
L 603 0 
L 603 4863 
z
" transform="scale(0.015625)"/>
       <path id="DejaVuSans-6e" d="M 3513 2113 
L 3513 0 
L 2938 0 
L 2938 2094 
Q 2938 2591 2744 2837 
Q 2550 3084 2163 3084 
Q 1697 3084 1428 2787 
Q 1159 2491 1159 1978 
L 1159 0 
L 581 0 
L 581 3500 
L 1159 3500 
L 1159 2956 
Q 1366 3272 1645 3428 
Q 1925 3584 2291 3584 
Q 2894 3584 3203 3211 
Q 3513 2838 3513 2113 
z
" transform="scale(0.015625)"/>
       <path id="DejaVuSans-67" d="M 2906 1791 
Q 2906 2416 2648 2759 
Q 2391 3103 1925 3103 
Q 1463 3103 1205 2759 
Q 947 2416 947 1791 
Q 947 1169 1205 825 
Q 1463 481 1925 481 
Q 2391 481 2648 825 
Q 2906 1169 2906 1791 
z
M 3481 434 
Q 3481 -459 3084 -895 
Q 2688 -1331 1869 -1331 
Q 1566 -1331 1297 -1286 
Q 1028 -1241 775 -1147 
L 775 -588 
Q 1028 -725 1275 -790 
Q 1522 -856 1778 -856 
Q 2344 -856 2625 -561 
Q 2906 -266 2906 331 
L 2906 616 
Q 2728 306 2450 153 
Q 2172 0 1784 0 
Q 1141 0 747 490 
Q 353 981 353 1791 
Q 353 2603 747 3093 
Q 1141 3584 1784 3584 
Q 2172 3584 2450 3431 
Q 2728 3278 2906 2969 
L 2906 3500 
L 3481 3500 
L 3481 434 
z
" transform="scale(0.015625)"/>
       <path id="DejaVuSans-74" d="M 1172 4494 
L 1172 3500 
L 2356 3500 
L 2356 3053 
L 1172 3053 
L 1172 1153 
Q 1172 725 1289 603 
Q 1406 481 1766 481 
L 2356 481 
L 2356 0 
L 1766 0 
Q 1100 0 847 248 
Q 594 497 594 1153 
L 594 3053 
L 172 3053 
L 172 3500 
L 594 3500 
L 594 4494 
L 1172 4494 
z
" transform="scale(0.015625)"/>
       <path id="DejaVuSans-68" d="M 3513 2113 
L 3513 0 
L 2938 0 
L 2938 2094 
Q 2938 2591 2744 2837 
Q 2550 3084 2163 3084 
Q 1697 3084 1428 2787 
Q 1159 2491 1159 1978 
L 1159 0 
L 581 0 
L 581 4863 
L 1159 4863 
L 1159 2956 
Q 1366 3272 1645 3428 
Q 1925 3584 2291 3584 
Q 2894 3584 3203 3211 
Q 3513 2838 3513 2113 
z
" transform="scale(0.015625)"/>
       <path id="DejaVuSans-20" transform="scale(0.015625)"/>
       <path id="DejaVuSans-28" d="M 1984 4856 
Q 1566 4138 1362 3434 
Q 1159 2731 1159 2009 
Q 1159 1288 1364 580 
Q 1569 -128 1984 -844 
L 1484 -844 
Q 1016 -109 783 600 
Q 550 1309 550 2009 
Q 550 2706 781 3412 
Q 1013 4119 1484 4856 
L 1984 4856 
z
" transform="scale(0.015625)"/>
       <path id="DejaVuSans-6d" d="M 3328 2828 
Q 3544 3216 3844 3400 
Q 4144 3584 4550 3584 
Q 5097 3584 5394 3201 
Q 5691 2819 5691 2113 
L 5691 0 
L 5113 0 
L 5113 2094 
Q 5113 2597 4934 2840 
Q 4756 3084 4391 3084 
Q 3944 3084 3684 2787 
Q 3425 2491 3425 1978 
L 3425 0 
L 2847 0 
L 2847 2094 
Q 2847 2600 2669 2842 
Q 2491 3084 2119 3084 
Q 1678 3084 1418 2786 
Q 1159 2488 1159 1978 
L 1159 0 
L 581 0 
L 581 3500 
L 1159 3500 
L 1159 2956 
Q 1356 3278 1631 3431 
Q 1906 3584 2284 3584 
Q 2666 3584 2933 3390 
Q 3200 3197 3328 2828 
z
" transform="scale(0.015625)"/>
       <path id="DejaVuSans-29" d="M 513 4856 
L 1013 4856 
Q 1481 4119 1714 3412 
Q 1947 2706 1947 2009 
Q 1947 1309 1714 600 
Q 1481 -109 1013 -844 
L 513 -844 
Q 928 -128 1133 580 
Q 1338 1288 1338 2009 
Q 1338 2731 1133 3434 
Q 928 4138 513 4856 
z
" transform="scale(0.015625)"/>
      </defs>
      <use xlink:href="#DejaVuSans-57"/>
      <use xlink:href="#DejaVuSans-61" transform="translate(92.501953 0)"/>
      <use xlink:href="#DejaVuSans-76" transform="translate(153.78125 0)"/>
      <use xlink:href="#DejaVuSans-65" transform="translate(212.960938 0)"/>
      <use xlink:href="#DejaVuSans-6c" transform="translate(274.484375 0)"/>
      <use xlink:href="#DejaVuSans-65" transform="translate(302.267578 0)"/>
      <use xlink:href="#DejaVuSans-6e" transform="translate(363.791016 0)"/>
      <use xlink:href="#DejaVuSans-67" transform="translate(427.169922 0)"/>
      <use xlink:href="#DejaVuSans-74" transform="translate(490.646484 0)"/>
      <use xlink:href="#DejaVuSans-68" transform="translate(529.855469 0)"/>
      <use xlink:href="#DejaVuSans-20" transform="translate(593.234375 0)"/>
      <use xlink:href="#DejaVuSans-28" transform="translate(625.021484 0)"/>
      <use xlink:href="#DejaVuSans-6e" transform="translate(664.035156 0)"/>
      <use xlink:href="#DejaVuSans-6d" transform="translate(727.414062 0)"/>
      <use xlink:href="#DejaVuSans-29" transform="translate(824.826172 0)"/>
     </g>
    </g>
   </g>
   <g id="matplotlib.axis_2">
    <g id="ytick_1">
     <g id="line2d_63">
      <defs>
       <path id="mca644676ff" d="M 0 0 
L 6 0 
" style="stroke: #000000"/>
      </defs>
      <g>
       <use xlink:href="#mca644676ff" x="77.485" y="334.919513" style="stroke: #000000"/>
      </g>
     </g>
     <g id="line2d_64">
      <defs>
       <path id="m6029687f04" d="M 0 0 
L -6 0 
" style="stroke: #000000"/>
      </defs>
      <g>
       <use xlink:href="#m6029687f04" x="523.885" y="334.919513" style="stroke: #000000"/>
      </g>
     </g>
     <g id="text_10">
      <!-- 0 -->
      <g transform="translate(63.805 340.998263) scale(0.16 -0.16)">
       <use xlink:href="#DejaVuSans-30"/>
      </g>
     </g>
    </g>
    <g id="ytick_2">
     <g id="line2d_65">
      <g>
       <use xlink:href="#mca644676ff" x="77.485" y="288.754393" style="stroke: #000000"/>
      </g>
     </g>
     <g id="line2d_66">
      <g>
       <use xlink:href="#m6029687f04" x="523.885" y="288.754393" style="stroke: #000000"/>
      </g>
     </g>
     <g id="text_11">
      <!-- 10000 -->
      <g transform="translate(23.085 294.833143) scale(0.16 -0.16)">
       <defs>
        <path id="DejaVuSans-31" d="M 794 531 
L 1825 531 
L 1825 4091 
L 703 3866 
L 703 4441 
L 1819 4666 
L 2450 4666 
L 2450 531 
L 3481 531 
L 3481 0 
L 794 0 
L 794 531 
z
" transform="scale(0.015625)"/>
       </defs>
       <use xlink:href="#DejaVuSans-31"/>
       <use xlink:href="#DejaVuSans-30" transform="translate(63.623047 0)"/>
       <use xlink:href="#DejaVuSans-30" transform="translate(127.246094 0)"/>
       <use xlink:href="#DejaVuSans-30" transform="translate(190.869141 0)"/>
       <use xlink:href="#DejaVuSans-30" transform="translate(254.492188 0)"/>
      </g>
     </g>
    </g>
    <g id="ytick_3">
     <g id="line2d_67">
      <g>
       <use xlink:href="#mca644676ff" x="77.485" y="242.589273" style="stroke: #000000"/>
      </g>
     </g>
     <g id="line2d_68">
      <g>
       <use xlink:href="#m6029687f04" x="523.885" y="242.589273" style="stroke: #000000"/>
      </g>
     </g>
     <g id="text_12">
      <!-- 20000 -->
      <g transform="translate(23.085 248.668023) scale(0.16 -0.16)">
       <use xlink:href="#DejaVuSans-32"/>
       <use xlink:href="#DejaVuSans-30" transform="translate(63.623047 0)"/>
       <use xlink:href="#DejaVuSans-30" transform="translate(127.246094 0)"/>
       <use xlink:href="#DejaVuSans-30" transform="translate(190.869141 0)"/>
       <use xlink:href="#DejaVuSans-30" transform="translate(254.492188 0)"/>
      </g>
     </g>
    </g>
    <g id="ytick_4">
     <g id="line2d_69">
      <g>
       <use xlink:href="#mca644676ff" x="77.485" y="196.424154" style="stroke: #000000"/>
      </g>
     </g>
     <g id="line2d_70">
      <g>
       <use xlink:href="#m6029687f04" x="523.885" y="196.424154" style="stroke: #000000"/>
      </g>
     </g>
     <g id="text_13">
      <!-- 30000 -->
      <g transform="translate(23.085 202.502904) scale(0.16 -0.16)">
       <defs>
        <path id="DejaVuSans-33" d="M 2597 2516 
Q 3050 2419 3304 2112 
Q 3559 1806 3559 1356 
Q 3559 666 3084 287 
Q 2609 -91 1734 -91 
Q 1441 -91 1130 -33 
Q 819 25 488 141 
L 488 750 
Q 750 597 1062 519 
Q 1375 441 1716 441 
Q 2309 441 2620 675 
Q 2931 909 2931 1356 
Q 2931 1769 2642 2001 
Q 2353 2234 1838 2234 
L 1294 2234 
L 1294 2753 
L 1863 2753 
Q 2328 2753 2575 2939 
Q 2822 3125 2822 3475 
Q 2822 3834 2567 4026 
Q 2313 4219 1838 4219 
Q 1578 4219 1281 4162 
Q 984 4106 628 3988 
L 628 4550 
Q 988 4650 1302 4700 
Q 1616 4750 1894 4750 
Q 2613 4750 3031 4423 
Q 3450 4097 3450 3541 
Q 3450 3153 3228 2886 
Q 3006 2619 2597 2516 
z
" transform="scale(0.015625)"/>
       </defs>
       <use xlink:href="#DejaVuSans-33"/>
       <use xlink:href="#DejaVuSans-30" transform="translate(63.623047 0)"/>
       <use xlink:href="#DejaVuSans-30" transform="translate(127.246094 0)"/>
       <use xlink:href="#DejaVuSans-30" transform="translate(190.869141 0)"/>
       <use xlink:href="#DejaVuSans-30" transform="translate(254.492188 0)"/>
      </g>
     </g>
    </g>
    <g id="ytick_5">
     <g id="line2d_71">
      <g>
       <use xlink:href="#mca644676ff" x="77.485" y="150.259034" style="stroke: #000000"/>
      </g>
     </g>
     <g id="line2d_72">
      <g>
       <use xlink:href="#m6029687f04" x="523.885" y="150.259034" style="stroke: #000000"/>
      </g>
     </g>
     <g id="text_14">
      <!-- 40000 -->
      <g transform="translate(23.085 156.337784) scale(0.16 -0.16)">
       <use xlink:href="#DejaVuSans-34"/>
       <use xlink:href="#DejaVuSans-30" transform="translate(63.623047 0)"/>
       <use xlink:href="#DejaVuSans-30" transform="translate(127.246094 0)"/>
       <use xlink:href="#DejaVuSans-30" transform="translate(190.869141 0)"/>
       <use xlink:href="#DejaVuSans-30" transform="translate(254.492188 0)"/>
      </g>
     </g>
    </g>
    <g id="ytick_6">
     <g id="line2d_73">
      <g>
       <use xlink:href="#mca644676ff" x="77.485" y="104.093914" style="stroke: #000000"/>
      </g>
     </g>
     <g id="line2d_74">
      <g>
       <use xlink:href="#m6029687f04" x="523.885" y="104.093914" style="stroke: #000000"/>
      </g>
     </g>
     <g id="text_15">
      <!-- 50000 -->
      <g transform="translate(23.085 110.172664) scale(0.16 -0.16)">
       <use xlink:href="#DejaVuSans-35"/>
       <use xlink:href="#DejaVuSans-30" transform="translate(63.623047 0)"/>
       <use xlink:href="#DejaVuSans-30" transform="translate(127.246094 0)"/>
       <use xlink:href="#DejaVuSans-30" transform="translate(190.869141 0)"/>
       <use xlink:href="#DejaVuSans-30" transform="translate(254.492188 0)"/>
      </g>
     </g>
    </g>
    <g id="ytick_7">
     <g id="line2d_75">
      <g>
       <use xlink:href="#mca644676ff" x="77.485" y="57.928795" style="stroke: #000000"/>
      </g>
     </g>
     <g id="line2d_76">
      <g>
       <use xlink:href="#m6029687f04" x="523.885" y="57.928795" style="stroke: #000000"/>
      </g>
     </g>
     <g id="text_16">
      <!-- 60000 -->
      <g transform="translate(23.085 64.007545) scale(0.16 -0.16)">
       <use xlink:href="#DejaVuSans-36"/>
       <use xlink:href="#DejaVuSans-30" transform="translate(63.623047 0)"/>
       <use xlink:href="#DejaVuSans-30" transform="translate(127.246094 0)"/>
       <use xlink:href="#DejaVuSans-30" transform="translate(190.869141 0)"/>
       <use xlink:href="#DejaVuSans-30" transform="translate(254.492188 0)"/>
      </g>
     </g>
    </g>
    <g id="ytick_8">
     <g id="line2d_77">
      <defs>
       <path id="md760dac396" d="M 0 0 
L 3 0 
" style="stroke: #000000"/>
      </defs>
      <g>
       <use xlink:href="#md760dac396" x="77.485" y="353.385561" style="stroke: #000000"/>
      </g>
     </g>
     <g id="line2d_78">
      <defs>
       <path id="m704fe395d7" d="M 0 0 
L -3 0 
" style="stroke: #000000"/>
      </defs>
      <g>
       <use xlink:href="#m704fe395d7" x="523.885" y="353.385561" style="stroke: #000000"/>
      </g>
     </g>
    </g>
    <g id="ytick_9">
     <g id="line2d_79">
      <g>
       <use xlink:href="#md760dac396" x="77.485" y="344.152537" style="stroke: #000000"/>
      </g>
     </g>
     <g id="line2d_80">
      <g>
       <use xlink:href="#m704fe395d7" x="523.885" y="344.152537" style="stroke: #000000"/>
      </g>
     </g>
    </g>
    <g id="ytick_10">
     <g id="line2d_81">
      <g>
       <use xlink:href="#md760dac396" x="77.485" y="325.686489" style="stroke: #000000"/>
      </g>
     </g>
     <g id="line2d_82">
      <g>
       <use xlink:href="#m704fe395d7" x="523.885" y="325.686489" style="stroke: #000000"/>
      </g>
     </g>
    </g>
    <g id="ytick_11">
     <g id="line2d_83">
      <g>
       <use xlink:href="#md760dac396" x="77.485" y="316.453465" style="stroke: #000000"/>
      </g>
     </g>
     <g id="line2d_84">
      <g>
       <use xlink:href="#m704fe395d7" x="523.885" y="316.453465" style="stroke: #000000"/>
      </g>
     </g>
    </g>
    <g id="ytick_12">
     <g id="line2d_85">
      <g>
       <use xlink:href="#md760dac396" x="77.485" y="307.220441" style="stroke: #000000"/>
      </g>
     </g>
     <g id="line2d_86">
      <g>
       <use xlink:href="#m704fe395d7" x="523.885" y="307.220441" style="stroke: #000000"/>
      </g>
     </g>
    </g>
    <g id="ytick_13">
     <g id="line2d_87">
      <g>
       <use xlink:href="#md760dac396" x="77.485" y="297.987417" style="stroke: #000000"/>
      </g>
     </g>
     <g id="line2d_88">
      <g>
       <use xlink:href="#m704fe395d7" x="523.885" y="297.987417" style="stroke: #000000"/>
      </g>
     </g>
    </g>
    <g id="ytick_14">
     <g id="line2d_89">
      <g>
       <use xlink:href="#md760dac396" x="77.485" y="279.521369" style="stroke: #000000"/>
      </g>
     </g>
     <g id="line2d_90">
      <g>
       <use xlink:href="#m704fe395d7" x="523.885" y="279.521369" style="stroke: #000000"/>
      </g>
     </g>
    </g>
    <g id="ytick_15">
     <g id="line2d_91">
      <g>
       <use xlink:href="#md760dac396" x="77.485" y="270.288345" style="stroke: #000000"/>
      </g>
     </g>
     <g id="line2d_92">
      <g>
       <use xlink:href="#m704fe395d7" x="523.885" y="270.288345" style="stroke: #000000"/>
      </g>
     </g>
    </g>
    <g id="ytick_16">
     <g id="line2d_93">
      <g>
       <use xlink:href="#md760dac396" x="77.485" y="261.055321" style="stroke: #000000"/>
      </g>
     </g>
     <g id="line2d_94">
      <g>
       <use xlink:href="#m704fe395d7" x="523.885" y="261.055321" style="stroke: #000000"/>
      </g>
     </g>
    </g>
    <g id="ytick_17">
     <g id="line2d_95">
      <g>
       <use xlink:href="#md760dac396" x="77.485" y="251.822297" style="stroke: #000000"/>
      </g>
     </g>
     <g id="line2d_96">
      <g>
       <use xlink:href="#m704fe395d7" x="523.885" y="251.822297" style="stroke: #000000"/>
      </g>
     </g>
    </g>
    <g id="ytick_18">
     <g id="line2d_97">
      <g>
       <use xlink:href="#md760dac396" x="77.485" y="233.356249" style="stroke: #000000"/>
      </g>
     </g>
     <g id="line2d_98">
      <g>
       <use xlink:href="#m704fe395d7" x="523.885" y="233.356249" style="stroke: #000000"/>
      </g>
     </g>
    </g>
    <g id="ytick_19">
     <g id="line2d_99">
      <g>
       <use xlink:href="#md760dac396" x="77.485" y="224.123225" style="stroke: #000000"/>
      </g>
     </g>
     <g id="line2d_100">
      <g>
       <use xlink:href="#m704fe395d7" x="523.885" y="224.123225" style="stroke: #000000"/>
      </g>
     </g>
    </g>
    <g id="ytick_20">
     <g id="line2d_101">
      <g>
       <use xlink:href="#md760dac396" x="77.485" y="214.890202" style="stroke: #000000"/>
      </g>
     </g>
     <g id="line2d_102">
      <g>
       <use xlink:href="#m704fe395d7" x="523.885" y="214.890202" style="stroke: #000000"/>
      </g>
     </g>
    </g>
    <g id="ytick_21">
     <g id="line2d_103">
      <g>
       <use xlink:href="#md760dac396" x="77.485" y="205.657178" style="stroke: #000000"/>
      </g>
     </g>
     <g id="line2d_104">
      <g>
       <use xlink:href="#m704fe395d7" x="523.885" y="205.657178" style="stroke: #000000"/>
      </g>
     </g>
    </g>
    <g id="ytick_22">
     <g id="line2d_105">
      <g>
       <use xlink:href="#md760dac396" x="77.485" y="187.19113" style="stroke: #000000"/>
      </g>
     </g>
     <g id="line2d_106">
      <g>
       <use xlink:href="#m704fe395d7" x="523.885" y="187.19113" style="stroke: #000000"/>
      </g>
     </g>
    </g>
    <g id="ytick_23">
     <g id="line2d_107">
      <g>
       <use xlink:href="#md760dac396" x="77.485" y="177.958106" style="stroke: #000000"/>
      </g>
     </g>
     <g id="line2d_108">
      <g>
       <use xlink:href="#m704fe395d7" x="523.885" y="177.958106" style="stroke: #000000"/>
      </g>
     </g>
    </g>
    <g id="ytick_24">
     <g id="line2d_109">
      <g>
       <use xlink:href="#md760dac396" x="77.485" y="168.725082" style="stroke: #000000"/>
      </g>
     </g>
     <g id="line2d_110">
      <g>
       <use xlink:href="#m704fe395d7" x="523.885" y="168.725082" style="stroke: #000000"/>
      </g>
     </g>
    </g>
    <g id="ytick_25">
     <g id="line2d_111">
      <g>
       <use xlink:href="#md760dac396" x="77.485" y="159.492058" style="stroke: #000000"/>
      </g>
     </g>
     <g id="line2d_112">
      <g>
       <use xlink:href="#m704fe395d7" x="523.885" y="159.492058" style="stroke: #000000"/>
      </g>
     </g>
    </g>
    <g id="ytick_26">
     <g id="line2d_113">
      <g>
       <use xlink:href="#md760dac396" x="77.485" y="141.02601" style="stroke: #000000"/>
      </g>
     </g>
     <g id="line2d_114">
      <g>
       <use xlink:href="#m704fe395d7" x="523.885" y="141.02601" style="stroke: #000000"/>
      </g>
     </g>
    </g>
    <g id="ytick_27">
     <g id="line2d_115">
      <g>
       <use xlink:href="#md760dac396" x="77.485" y="131.792986" style="stroke: #000000"/>
      </g>
     </g>
     <g id="line2d_116">
      <g>
       <use xlink:href="#m704fe395d7" x="523.885" y="131.792986" style="stroke: #000000"/>
      </g>
     </g>
    </g>
    <g id="ytick_28">
     <g id="line2d_117">
      <g>
       <use xlink:href="#md760dac396" x="77.485" y="122.559962" style="stroke: #000000"/>
      </g>
     </g>
     <g id="line2d_118">
      <g>
       <use xlink:href="#m704fe395d7" x="523.885" y="122.559962" style="stroke: #000000"/>
      </g>
     </g>
    </g>
    <g id="ytick_29">
     <g id="line2d_119">
      <g>
       <use xlink:href="#md760dac396" x="77.485" y="113.326938" style="stroke: #000000"/>
      </g>
     </g>
     <g id="line2d_120">
      <g>
       <use xlink:href="#m704fe395d7" x="523.885" y="113.326938" style="stroke: #000000"/>
      </g>
     </g>
    </g>
    <g id="ytick_30">
     <g id="line2d_121">
      <g>
       <use xlink:href="#md760dac396" x="77.485" y="94.86089" style="stroke: #000000"/>
      </g>
     </g>
     <g id="line2d_122">
      <g>
       <use xlink:href="#m704fe395d7" x="523.885" y="94.86089" style="stroke: #000000"/>
      </g>
     </g>
    </g>
    <g id="ytick_31">
     <g id="line2d_123">
      <g>
       <use xlink:href="#md760dac396" x="77.485" y="85.627866" style="stroke: #000000"/>
      </g>
     </g>
     <g id="line2d_124">
      <g>
       <use xlink:href="#m704fe395d7" x="523.885" y="85.627866" style="stroke: #000000"/>
      </g>
     </g>
    </g>
    <g id="ytick_32">
     <g id="line2d_125">
      <g>
       <use xlink:href="#md760dac396" x="77.485" y="76.394842" style="stroke: #000000"/>
      </g>
     </g>
     <g id="line2d_126">
      <g>
       <use xlink:href="#m704fe395d7" x="523.885" y="76.394842" style="stroke: #000000"/>
      </g>
     </g>
    </g>
    <g id="ytick_33">
     <g id="line2d_127">
      <g>
       <use xlink:href="#md760dac396" x="77.485" y="67.161819" style="stroke: #000000"/>
      </g>
     </g>
     <g id="line2d_128">
      <g>
       <use xlink:href="#m704fe395d7" x="523.885" y="67.161819" style="stroke: #000000"/>
      </g>
     </g>
    </g>
    <g id="ytick_34">
     <g id="line2d_129">
      <g>
       <use xlink:href="#md760dac396" x="77.485" y="48.695771" style="stroke: #000000"/>
      </g>
     </g>
     <g id="line2d_130">
      <g>
       <use xlink:href="#m704fe395d7" x="523.885" y="48.695771" style="stroke: #000000"/>
      </g>
     </g>
    </g>
    <g id="ytick_35">
     <g id="line2d_131">
      <g>
       <use xlink:href="#md760dac396" x="77.485" y="39.462747" style="stroke: #000000"/>
      </g>
     </g>
     <g id="line2d_132">
      <g>
       <use xlink:href="#m704fe395d7" x="523.885" y="39.462747" style="stroke: #000000"/>
      </g>
     </g>
    </g>
    <g id="ytick_36">
     <g id="line2d_133">
      <g>
       <use xlink:href="#md760dac396" x="77.485" y="30.229723" style="stroke: #000000"/>
      </g>
     </g>
     <g id="line2d_134">
      <g>
       <use xlink:href="#m704fe395d7" x="523.885" y="30.229723" style="stroke: #000000"/>
      </g>
     </g>
    </g>
    <g id="text_17">
     <!-- Intensity -->
     <g transform="translate(15.7575 222.8975) rotate(-90) scale(0.16 -0.16)">
      <defs>
       <path id="DejaVuSans-49" d="M 628 4666 
L 1259 4666 
L 1259 0 
L 628 0 
L 628 4666 
z
" transform="scale(0.015625)"/>
       <path id="DejaVuSans-73" d="M 2834 3397 
L 2834 2853 
Q 2591 2978 2328 3040 
Q 2066 3103 1784 3103 
Q 1356 3103 1142 2972 
Q 928 2841 928 2578 
Q 928 2378 1081 2264 
Q 1234 2150 1697 2047 
L 1894 2003 
Q 2506 1872 2764 1633 
Q 3022 1394 3022 966 
Q 3022 478 2636 193 
Q 2250 -91 1575 -91 
Q 1294 -91 989 -36 
Q 684 19 347 128 
L 347 722 
Q 666 556 975 473 
Q 1284 391 1588 391 
Q 1994 391 2212 530 
Q 2431 669 2431 922 
Q 2431 1156 2273 1281 
Q 2116 1406 1581 1522 
L 1381 1569 
Q 847 1681 609 1914 
Q 372 2147 372 2553 
Q 372 3047 722 3315 
Q 1072 3584 1716 3584 
Q 2034 3584 2315 3537 
Q 2597 3491 2834 3397 
z
" transform="scale(0.015625)"/>
       <path id="DejaVuSans-69" d="M 603 3500 
L 1178 3500 
L 1178 0 
L 603 0 
L 603 3500 
z
M 603 4863 
L 1178 4863 
L 1178 4134 
L 603 4134 
L 603 4863 
z
" transform="scale(0.015625)"/>
       <path id="DejaVuSans-79" d="M 2059 -325 
Q 1816 -950 1584 -1140 
Q 1353 -1331 966 -1331 
L 506 -1331 
L 506 -850 
L 844 -850 
Q 1081 -850 1212 -737 
Q 1344 -625 1503 -206 
L 1606 56 
L 191 3500 
L 800 3500 
L 1894 763 
L 2988 3500 
L 3597 3500 
L 2059 -325 
z
" transform="scale(0.015625)"/>
      </defs>
      <use xlink:href="#DejaVuSans-49"/>
      <use xlink:href="#DejaVuSans-6e" transform="translate(29.492188 0)"/>
      <use xlink:href="#DejaVuSans-74" transform="translate(92.871094 0)"/>
      <use xlink:href="#DejaVuSans-65" transform="translate(132.080078 0)"/>
      <use xlink:href="#DejaVuSans-6e" transform="translate(193.603516 0)"/>
      <use xlink:href="#DejaVuSans-73" transform="translate(256.982422 0)"/>
      <use xlink:href="#DejaVuSans-69" transform="translate(309.082031 0)"/>
      <use xlink:href="#DejaVuSans-74" transform="translate(336.865234 0)"/>
      <use xlink:href="#DejaVuSans-79" transform="translate(376.074219 0)"/>
     </g>
    </g>
   </g>
   <g id="line2d_135">
    <path d="M 77.352584 335.330382 
L 79.077262 334.89643 
L 80.801849 334.656372 
L 82.526345 334.89643 
L 84.25075 334.730236 
L 85.975064 334.808716 
L 87.699197 334.39323 
L 89.423239 334.490177 
L 91.14719 334.402463 
L 92.871051 334.573274 
L 94.594729 334.296284 
L 98.041814 334.781017 
L 101.488445 334.702537 
L 103.211579 334.864115 
L 104.934622 334.734852 
L 106.657574 334.942595 
L 108.380345 335.034926 
L 110.103115 334.494794 
L 111.825704 335.053392 
L 113.548111 334.707153 
L 116.992744 334.79025 
L 123.880738 334.933362 
L 125.602328 334.656372 
L 127.323918 334.679454 
L 129.045326 334.39323 
L 130.766734 334.674838 
L 132.487961 334.531726 
L 135.930051 334.776401 
L 137.650914 334.370148 
L 139.371777 334.439395 
L 141.092459 334.060841 
L 142.812959 333.950045 
L 146.253777 334.397847 
L 149.694051 333.913113 
L 151.414187 333.973128 
L 153.133961 333.428379 
L 154.853734 333.834632 
L 156.573326 333.280651 
L 158.292918 333.686904 
L 160.012328 333.553025 
L 161.731738 333.728453 
L 163.450785 332.588174 
L 165.170014 332.417363 
L 166.888879 331.166288 
L 168.607744 101.582532 
L 170.326428 36.8775 
L 175.482115 36.923665 
L 180.636531 36.8775 
L 182.354488 55.546674 
L 184.072264 332.69897 
L 185.790039 333.913113 
L 187.507633 334.531726 
L 189.225045 334.60559 
L 190.942457 335.50581 
L 192.659687 335.191887 
L 194.376918 334.365531 
L 196.093967 334.550192 
L 197.810834 334.508643 
L 199.52752 334.730236 
L 201.244205 332.666655 
L 202.960891 333.359132 
L 206.393717 335.524276 
L 208.109857 334.023909 
L 209.825998 331.586391 
L 211.541957 326.619024 
L 213.257734 328.414847 
L 214.973512 332.934413 
L 216.689289 332.643572 
L 218.404703 333.636122 
L 220.120117 335.145722 
L 221.835531 334.873348 
L 223.550582 334.268585 
L 225.265633 334.725619 
L 226.980684 334.656372 
L 228.695553 334.120856 
L 230.41024 334.748702 
L 232.124746 333.488394 
L 233.839252 329.116557 
L 235.553758 325.732654 
L 237.2679 326.494378 
L 238.982043 325.547993 
L 240.696186 327.279185 
L 242.409965 331.789518 
L 244.123744 333.511477 
L 245.837523 334.3009 
L 247.551121 333.077524 
L 249.264537 334.10239 
L 250.977771 334.517876 
L 252.691006 334.522493 
L 254.40424 334.702537 
L 256.117111 334.434779 
L 257.829982 334.767168 
L 259.542854 334.693304 
L 261.255361 334.444012 
L 262.967869 334.831799 
L 264.680377 334.444012 
L 266.392521 334.614823 
L 268.104848 335.034926 
L 269.816811 334.600973 
L 271.528773 334.716386 
L 273.240555 334.619439 
L 274.952336 334.757935 
L 276.663936 334.564041 
L 278.375354 334.859498 
L 280.08659 334.471711 
L 283.509062 334.517876 
L 285.220117 335.044159 
L 288.641682 334.564041 
L 290.352373 334.868731 
L 292.062883 334.744085 
L 293.773211 334.864115 
L 295.483539 334.517876 
L 297.193686 334.937979 
L 298.903832 334.947212 
L 302.32358 334.614823 
L 305.742965 334.587124 
L 307.452385 334.919513 
L 309.161623 334.707153 
L 310.870861 335.067241 
L 314.289156 334.757935 
L 315.998031 334.771784 
L 317.706725 334.993377 
L 319.415418 334.947212 
L 321.12393 334.291667 
L 322.83226 334.753318 
L 324.54059 333.760768 
L 326.248738 332.638956 
L 327.956887 333.774618 
L 329.664854 332.814383 
L 331.372639 333.040592 
L 333.080242 334.273201 
L 334.787846 334.993377 
L 336.495449 334.762551 
L 338.202689 334.730236 
L 339.90993 335.058008 
L 341.616988 334.979527 
L 343.324047 334.734852 
L 345.030924 335.030309 
L 346.737619 334.8041 
L 348.444314 334.965678 
L 350.150828 334.781017 
L 351.857342 334.776401 
L 353.563492 334.310133 
L 355.269643 334.365531 
L 360.387549 334.827182 
L 362.093154 334.961061 
L 363.79876 334.836415 
L 365.504184 334.947212 
L 367.209426 334.59174 
L 368.914668 335.145722 
L 370.619729 334.993377 
L 372.324789 335.039542 
L 374.029668 334.970294 
L 377.439062 335.076474 
L 379.143396 334.831799 
L 380.847912 334.98876 
L 382.552064 334.919513 
L 384.256217 335.021076 
L 385.960187 334.864115 
L 387.664158 334.947212 
L 389.367947 334.402463 
L 392.775162 334.383997 
L 394.478588 334.670221 
L 396.181832 334.310133 
L 397.885076 334.845649 
L 399.588139 334.494794 
L 401.29102 335.122639 
L 406.399117 334.702537 
L 408.101635 335.039542 
L 411.506125 334.891814 
L 413.208279 335.136489 
L 414.910252 335.178037 
L 416.612043 334.753318 
L 418.313834 334.596357 
L 420.015443 334.771784 
L 421.716871 335.302683 
L 423.418299 334.757935 
L 425.119545 334.633289 
L 428.521674 334.984144 
L 431.923258 334.873348 
L 435.324479 335.104173 
L 437.024816 335.159571 
L 438.725154 334.993377 
L 440.425311 335.316533 
L 442.125285 334.882581 
L 443.82526 335.099557 
L 445.525053 334.928746 
L 447.224664 334.877964 
L 450.623705 335.062625 
L 454.022201 334.734852 
L 455.721268 335.330382 
L 457.420334 334.799483 
L 459.119037 335.062625 
L 460.81774 334.942595 
L 462.516443 335.18727 
L 465.913123 334.841032 
L 467.611463 335.048775 
L 469.309439 335.058008 
L 471.007416 335.362698 
L 472.705393 334.974911 
L 474.403006 334.716386 
L 476.100619 335.3073 
L 477.798232 335.325766 
L 479.495482 335.067241 
L 481.192732 334.942595 
L 484.586869 334.997993 
L 486.283756 334.771784 
L 487.980461 334.71177 
L 489.677166 334.947212 
L 491.373689 334.831799 
L 493.070031 334.540959 
L 494.766373 334.610206 
L 496.462352 335.191887 
L 498.158512 335.131872 
L 499.854309 334.864115 
L 501.550105 335.048775 
L 503.245721 335.00261 
L 504.941336 335.362698 
L 506.63677 335.173421 
L 508.332021 335.182654 
L 510.027092 334.956445 
L 511.722162 334.845649 
L 513.417051 335.251902 
L 515.111939 334.873348 
L 516.806465 335.251902 
L 520.195516 335.067241 
L 523.584021 334.924129 
L 525.278002 334.868731 
L 525.278002 334.868731 
" clip-path="url(#pf4e3fcc92e)" style="fill: none; stroke: #0c5da5; stroke-width: 2; stroke-linecap: square"/>
   </g>
   <g id="line2d_136">
    <path d="M 77.352584 334.060841 
L 79.077262 333.174471 
L 80.801849 333.733069 
L 82.526345 333.783851 
L 84.25075 333.252952 
L 85.975064 333.733069 
L 87.699197 333.843865 
L 89.423239 333.234486 
L 91.14719 333.197554 
L 92.871051 333.733069 
L 94.594729 333.405297 
L 96.318317 333.437612 
L 98.041814 332.71282 
L 99.765221 333.557642 
L 101.488445 333.266801 
L 103.211579 333.885414 
L 104.934622 334.079308 
L 106.657574 333.271418 
L 108.380345 332.60664 
L 110.103115 332.357349 
L 113.548111 332.292717 
L 115.270609 334.125473 
L 116.992744 331.960329 
L 120.437014 331.91878 
L 122.158785 332.22347 
L 123.880738 331.170905 
L 125.602328 330.561525 
L 127.323918 330.875448 
L 129.045326 332.108057 
L 130.766734 331.817217 
L 132.487961 330.339933 
L 134.209006 330.099874 
L 135.930051 327.579259 
L 137.650914 325.294085 
L 139.371777 329.148873 
L 141.092459 326.905248 
L 142.812959 327.12684 
L 144.533459 328.599508 
L 146.253777 327.449996 
L 147.974096 325.432581 
L 149.694051 323.710622 
L 151.414187 326.535927 
L 153.133961 324.310768 
L 154.853734 320.945331 
L 156.573326 318.803269 
L 158.292918 308.051413 
L 160.012328 302.511599 
L 161.731738 308.720807 
L 163.450785 304.833704 
L 165.170014 291.182678 
L 166.888879 254.878428 
L 168.607744 40.732287 
L 170.326428 40.801535 
L 172.045111 264.153001 
L 173.763613 297.354955 
L 175.482115 299.746308 
L 178.918574 300.905053 
L 180.636531 301.200509 
L 182.354488 42.615824 
L 184.072264 40.801535 
L 185.790039 40.732287 
L 187.507633 40.801535 
L 189.225045 40.732287 
L 190.942457 297.655028 
L 192.659687 291.464286 
L 194.376918 298.486 
L 196.093967 299.575497 
L 197.810834 311.73539 
L 199.52752 310.230407 
L 201.244205 299.104613 
L 202.960891 273.53837 
L 204.677213 291.413504 
L 206.393717 303.47645 
L 208.109857 317.459864 
L 209.825998 325.183289 
L 211.541957 325.723421 
L 213.257734 328.031677 
L 214.973512 328.691838 
L 216.689289 328.913431 
L 218.404703 329.001144 
L 220.120117 317.099777 
L 221.835531 311.347603 
L 223.550582 303.624178 
L 225.265633 310.673592 
L 226.980684 315.636342 
L 228.695553 321.808619 
L 230.41024 326.448213 
L 232.124746 329.476645 
L 233.839252 330.736953 
L 235.553758 332.509693 
L 237.2679 334.596357 
L 238.982043 333.91773 
L 240.696186 333.959278 
L 242.409965 334.757935 
L 244.123744 334.333216 
L 245.837523 334.600973 
L 247.551121 333.760768 
L 249.264537 334.688687 
L 250.977771 335.214969 
L 252.691006 335.468878 
L 254.40424 335.182654 
L 256.117111 336.115189 
L 257.829982 335.50581 
L 259.542854 334.707153 
L 262.967869 334.684071 
L 264.680377 335.616606 
L 266.392521 335.261135 
L 268.104848 336.004393 
L 269.816811 336.512209 
L 271.528773 336.138272 
L 273.240555 336.064408 
L 274.952336 336.281384 
L 276.663936 336.673787 
L 278.375354 335.990543 
L 280.08659 336.221369 
L 281.797826 335.722786 
L 283.509062 336.40603 
L 285.220117 336.304466 
L 288.641682 336.539908 
L 290.352373 337.010793 
L 292.062883 336.17982 
L 293.773211 335.648922 
L 295.483539 336.470661 
L 298.903832 337.015409 
L 300.613797 336.17982 
L 302.32358 336.890763 
L 304.033363 336.692253 
L 309.161623 336.618389 
L 310.870861 336.913846 
L 314.289156 334.037759 
L 315.998031 331.161672 
L 317.706725 332.454295 
L 319.415418 332.980578 
L 321.12393 332.144989 
L 322.83226 335.750485 
L 324.54059 335.173421 
L 326.248738 335.358081 
L 327.956887 335.861281 
L 329.664854 335.302683 
L 331.372639 335.390397 
L 333.080242 335.311916 
L 334.787846 333.008277 
L 336.495449 328.280968 
L 338.202689 322.473396 
L 339.90993 322.034828 
L 341.616988 328.451779 
L 343.324047 334.268585 
L 345.030924 335.274984 
L 346.737619 334.670221 
L 350.150828 336.909229 
L 351.857342 336.562991 
L 353.563492 335.713553 
L 355.269643 334.462478 
L 356.975793 333.816166 
L 358.681762 334.014676 
L 360.387549 330.303001 
L 362.093154 323.387466 
L 363.79876 313.72049 
L 365.504184 305.618511 
L 367.209426 303.841154 
L 368.914668 306.140177 
L 372.324789 323.55366 
L 374.029668 331.106274 
L 375.734365 333.488394 
L 377.439062 333.262185 
L 380.847912 334.831799 
L 382.552064 335.358081 
L 384.256217 336.955394 
L 385.960187 337.647871 
L 389.367947 337.09389 
L 391.071555 337.500143 
L 392.775162 337.121589 
L 394.478588 337.333948 
L 396.181832 338.007959 
L 397.885076 337.453978 
L 401.29102 336.830749 
L 402.9939 336.618389 
L 404.6966 336.526059 
L 406.399117 336.558374 
L 408.101635 337.089273 
L 409.803971 337.223152 
L 411.506125 337.790983 
L 413.208279 337.698653 
L 414.910252 337.380114 
L 416.612043 337.740202 
L 418.313834 337.897163 
L 420.015443 338.266484 
L 421.716871 337.352415 
L 423.418299 337.67557 
L 425.119545 337.767901 
L 428.521674 337.560158 
L 430.222557 337.883313 
L 431.923258 337.430895 
L 433.623959 337.67557 
L 435.324479 337.246235 
L 437.024816 336.396797 
L 438.725154 336.115189 
L 440.425311 335.685854 
L 442.125285 334.854882 
L 443.82526 334.919513 
L 445.525053 335.251902 
L 447.224664 335.833582 
L 448.924275 335.090324 
L 450.623705 336.069024 
L 452.323135 335.833582 
L 454.022201 335.935145 
L 455.721268 336.88153 
L 457.420334 337.518609 
L 459.119037 337.837148 
L 460.81774 337.629405 
L 462.516443 338.114139 
L 465.913123 337.121589 
L 467.611463 337.467827 
L 469.309439 336.475277 
L 471.007416 336.10134 
L 472.705393 337.301633 
L 474.403006 336.586074 
L 476.100619 336.627622 
L 477.798232 337.370881 
L 479.495482 337.744818 
L 482.889801 337.430895 
L 484.586869 337.878697 
L 486.283756 337.481677 
L 487.980461 337.59709 
L 489.677166 338.2711 
L 491.373689 338.363431 
L 493.070031 338.003343 
L 494.766373 338.428062 
L 498.158512 338.044891 
L 499.854309 338.109522 
L 501.550105 338.464994 
L 506.63677 338.151071 
L 508.332021 338.17877 
L 510.027092 337.809449 
L 511.722162 338.404979 
L 513.417051 338.280333 
L 515.111939 337.920245 
L 516.806465 337.971027 
L 518.501172 338.275717 
L 520.195516 337.998726 
L 521.889859 338.003343 
L 523.584021 338.28495 
L 525.278002 338.395746 
L 525.278002 338.395746 
" clip-path="url(#pf4e3fcc92e)" style="fill: none; stroke: #00b945; stroke-width: 2; stroke-linecap: square"/>
   </g>
   <g id="patch_3">
    <path d="M 77.485 354.3975 
L 77.485 21.7575 
" style="fill: none; stroke: #000000; stroke-linejoin: miter; stroke-linecap: square"/>
   </g>
   <g id="patch_4">
    <path d="M 523.885 354.3975 
L 523.885 21.7575 
" style="fill: none; stroke: #000000; stroke-linejoin: miter; stroke-linecap: square"/>
   </g>
   <g id="patch_5">
    <path d="M 77.485 354.3975 
L 523.885 354.3975 
" style="fill: none; stroke: #000000; stroke-linejoin: miter; stroke-linecap: square"/>
   </g>
   <g id="patch_6">
    <path d="M 77.485 21.7575 
L 523.885 21.7575 
" style="fill: none; stroke: #000000; stroke-linejoin: miter; stroke-linecap: square"/>
   </g>
   <g id="text_18">
    <!-- Indirect laser measurement at various powers -->
    <g transform="translate(116.14875 15.7575) scale(0.16 -0.16)">
     <defs>
      <path id="DejaVuSans-64" d="M 2906 2969 
L 2906 4863 
L 3481 4863 
L 3481 0 
L 2906 0 
L 2906 525 
Q 2725 213 2448 61 
Q 2172 -91 1784 -91 
Q 1150 -91 751 415 
Q 353 922 353 1747 
Q 353 2572 751 3078 
Q 1150 3584 1784 3584 
Q 2172 3584 2448 3432 
Q 2725 3281 2906 2969 
z
M 947 1747 
Q 947 1113 1208 752 
Q 1469 391 1925 391 
Q 2381 391 2643 752 
Q 2906 1113 2906 1747 
Q 2906 2381 2643 2742 
Q 2381 3103 1925 3103 
Q 1469 3103 1208 2742 
Q 947 2381 947 1747 
z
" transform="scale(0.015625)"/>
      <path id="DejaVuSans-72" d="M 2631 2963 
Q 2534 3019 2420 3045 
Q 2306 3072 2169 3072 
Q 1681 3072 1420 2755 
Q 1159 2438 1159 1844 
L 1159 0 
L 581 0 
L 581 3500 
L 1159 3500 
L 1159 2956 
Q 1341 3275 1631 3429 
Q 1922 3584 2338 3584 
Q 2397 3584 2469 3576 
Q 2541 3569 2628 3553 
L 2631 2963 
z
" transform="scale(0.015625)"/>
      <path id="DejaVuSans-63" d="M 3122 3366 
L 3122 2828 
Q 2878 2963 2633 3030 
Q 2388 3097 2138 3097 
Q 1578 3097 1268 2742 
Q 959 2388 959 1747 
Q 959 1106 1268 751 
Q 1578 397 2138 397 
Q 2388 397 2633 464 
Q 2878 531 3122 666 
L 3122 134 
Q 2881 22 2623 -34 
Q 2366 -91 2075 -91 
Q 1284 -91 818 406 
Q 353 903 353 1747 
Q 353 2603 823 3093 
Q 1294 3584 2113 3584 
Q 2378 3584 2631 3529 
Q 2884 3475 3122 3366 
z
" transform="scale(0.015625)"/>
      <path id="DejaVuSans-75" d="M 544 1381 
L 544 3500 
L 1119 3500 
L 1119 1403 
Q 1119 906 1312 657 
Q 1506 409 1894 409 
Q 2359 409 2629 706 
Q 2900 1003 2900 1516 
L 2900 3500 
L 3475 3500 
L 3475 0 
L 2900 0 
L 2900 538 
Q 2691 219 2414 64 
Q 2138 -91 1772 -91 
Q 1169 -91 856 284 
Q 544 659 544 1381 
z
M 1991 3584 
L 1991 3584 
z
" transform="scale(0.015625)"/>
      <path id="DejaVuSans-6f" d="M 1959 3097 
Q 1497 3097 1228 2736 
Q 959 2375 959 1747 
Q 959 1119 1226 758 
Q 1494 397 1959 397 
Q 2419 397 2687 759 
Q 2956 1122 2956 1747 
Q 2956 2369 2687 2733 
Q 2419 3097 1959 3097 
z
M 1959 3584 
Q 2709 3584 3137 3096 
Q 3566 2609 3566 1747 
Q 3566 888 3137 398 
Q 2709 -91 1959 -91 
Q 1206 -91 779 398 
Q 353 888 353 1747 
Q 353 2609 779 3096 
Q 1206 3584 1959 3584 
z
" transform="scale(0.015625)"/>
      <path id="DejaVuSans-70" d="M 1159 525 
L 1159 -1331 
L 581 -1331 
L 581 3500 
L 1159 3500 
L 1159 2969 
Q 1341 3281 1617 3432 
Q 1894 3584 2278 3584 
Q 2916 3584 3314 3078 
Q 3713 2572 3713 1747 
Q 3713 922 3314 415 
Q 2916 -91 2278 -91 
Q 1894 -91 1617 61 
Q 1341 213 1159 525 
z
M 3116 1747 
Q 3116 2381 2855 2742 
Q 2594 3103 2138 3103 
Q 1681 3103 1420 2742 
Q 1159 2381 1159 1747 
Q 1159 1113 1420 752 
Q 1681 391 2138 391 
Q 2594 391 2855 752 
Q 3116 1113 3116 1747 
z
" transform="scale(0.015625)"/>
      <path id="DejaVuSans-77" d="M 269 3500 
L 844 3500 
L 1563 769 
L 2278 3500 
L 2956 3500 
L 3675 769 
L 4391 3500 
L 4966 3500 
L 4050 0 
L 3372 0 
L 2619 2869 
L 1863 0 
L 1184 0 
L 269 3500 
z
" transform="scale(0.015625)"/>
     </defs>
     <use xlink:href="#DejaVuSans-49"/>
     <use xlink:href="#DejaVuSans-6e" transform="translate(29.492188 0)"/>
     <use xlink:href="#DejaVuSans-64" transform="translate(92.871094 0)"/>
     <use xlink:href="#DejaVuSans-69" transform="translate(156.347656 0)"/>
     <use xlink:href="#DejaVuSans-72" transform="translate(184.130859 0)"/>
     <use xlink:href="#DejaVuSans-65" transform="translate(222.994141 0)"/>
     <use xlink:href="#DejaVuSans-63" transform="translate(284.517578 0)"/>
     <use xlink:href="#DejaVuSans-74" transform="translate(339.498047 0)"/>
     <use xlink:href="#DejaVuSans-20" transform="translate(378.707031 0)"/>
     <use xlink:href="#DejaVuSans-6c" transform="translate(410.494141 0)"/>
     <use xlink:href="#DejaVuSans-61" transform="translate(438.277344 0)"/>
     <use xlink:href="#DejaVuSans-73" transform="translate(499.556641 0)"/>
     <use xlink:href="#DejaVuSans-65" transform="translate(551.65625 0)"/>
     <use xlink:href="#DejaVuSans-72" transform="translate(613.179688 0)"/>
     <use xlink:href="#DejaVuSans-20" transform="translate(654.292969 0)"/>
     <use xlink:href="#DejaVuSans-6d" transform="translate(686.080078 0)"/>
     <use xlink:href="#DejaVuSans-65" transform="translate(783.492188 0)"/>
     <use xlink:href="#DejaVuSans-61" transform="translate(845.015625 0)"/>
     <use xlink:href="#DejaVuSans-73" transform="translate(906.294922 0)"/>
     <use xlink:href="#DejaVuSans-75" transform="translate(958.394531 0)"/>
     <use xlink:href="#DejaVuSans-72" transform="translate(1021.773438 0)"/>
     <use xlink:href="#DejaVuSans-65" transform="translate(1060.636719 0)"/>
     <use xlink:href="#DejaVuSans-6d" transform="translate(1122.160156 0)"/>
     <use xlink:href="#DejaVuSans-65" transform="translate(1219.572266 0)"/>
     <use xlink:href="#DejaVuSans-6e" transform="translate(1281.095703 0)"/>
     <use xlink:href="#DejaVuSans-74" transform="translate(1344.474609 0)"/>
     <use xlink:href="#DejaVuSans-20" transform="translate(1383.683594 0)"/>
     <use xlink:href="#DejaVuSans-61" transform="translate(1415.470703 0)"/>
     <use xlink:href="#DejaVuSans-74" transform="translate(1476.75 0)"/>
     <use xlink:href="#DejaVuSans-20" transform="translate(1515.958984 0)"/>
     <use xlink:href="#DejaVuSans-76" transform="translate(1547.746094 0)"/>
     <use xlink:href="#DejaVuSans-61" transform="translate(1606.925781 0)"/>
     <use xlink:href="#DejaVuSans-72" transform="translate(1668.205078 0)"/>
     <use xlink:href="#DejaVuSans-69" transform="translate(1709.318359 0)"/>
     <use xlink:href="#DejaVuSans-6f" transform="translate(1737.101562 0)"/>
     <use xlink:href="#DejaVuSans-75" transform="translate(1798.283203 0)"/>
     <use xlink:href="#DejaVuSans-73" transform="translate(1861.662109 0)"/>
     <use xlink:href="#DejaVuSans-20" transform="translate(1913.761719 0)"/>
     <use xlink:href="#DejaVuSans-70" transform="translate(1945.548828 0)"/>
     <use xlink:href="#DejaVuSans-6f" transform="translate(2009.025391 0)"/>
     <use xlink:href="#DejaVuSans-77" transform="translate(2070.207031 0)"/>
     <use xlink:href="#DejaVuSans-65" transform="translate(2151.994141 0)"/>
     <use xlink:href="#DejaVuSans-72" transform="translate(2213.517578 0)"/>
     <use xlink:href="#DejaVuSans-73" transform="translate(2254.630859 0)"/>
    </g>
   </g>
   <g id="legend_1">
    <g id="line2d_137">
     <path d="M 287.525 42.715 
L 303.525 42.715 
L 319.525 42.715 
" style="fill: none; stroke: #0c5da5; stroke-width: 2; stroke-linecap: square"/>
    </g>
    <g id="text_19">
     <!-- ND4 + 10x + SM fiber -->
     <g transform="translate(332.325 48.315) scale(0.16 -0.16)">
      <defs>
       <path id="DejaVuSans-4e" d="M 628 4666 
L 1478 4666 
L 3547 763 
L 3547 4666 
L 4159 4666 
L 4159 0 
L 3309 0 
L 1241 3903 
L 1241 0 
L 628 0 
L 628 4666 
z
" transform="scale(0.015625)"/>
       <path id="DejaVuSans-44" d="M 1259 4147 
L 1259 519 
L 2022 519 
Q 2988 519 3436 956 
Q 3884 1394 3884 2338 
Q 3884 3275 3436 3711 
Q 2988 4147 2022 4147 
L 1259 4147 
z
M 628 4666 
L 1925 4666 
Q 3281 4666 3915 4102 
Q 4550 3538 4550 2338 
Q 4550 1131 3912 565 
Q 3275 0 1925 0 
L 628 0 
L 628 4666 
z
" transform="scale(0.015625)"/>
       <path id="DejaVuSans-2b" d="M 2944 4013 
L 2944 2272 
L 4684 2272 
L 4684 1741 
L 2944 1741 
L 2944 0 
L 2419 0 
L 2419 1741 
L 678 1741 
L 678 2272 
L 2419 2272 
L 2419 4013 
L 2944 4013 
z
" transform="scale(0.015625)"/>
       <path id="DejaVuSans-78" d="M 3513 3500 
L 2247 1797 
L 3578 0 
L 2900 0 
L 1881 1375 
L 863 0 
L 184 0 
L 1544 1831 
L 300 3500 
L 978 3500 
L 1906 2253 
L 2834 3500 
L 3513 3500 
z
" transform="scale(0.015625)"/>
       <path id="DejaVuSans-53" d="M 3425 4513 
L 3425 3897 
Q 3066 4069 2747 4153 
Q 2428 4238 2131 4238 
Q 1616 4238 1336 4038 
Q 1056 3838 1056 3469 
Q 1056 3159 1242 3001 
Q 1428 2844 1947 2747 
L 2328 2669 
Q 3034 2534 3370 2195 
Q 3706 1856 3706 1288 
Q 3706 609 3251 259 
Q 2797 -91 1919 -91 
Q 1588 -91 1214 -16 
Q 841 59 441 206 
L 441 856 
Q 825 641 1194 531 
Q 1563 422 1919 422 
Q 2459 422 2753 634 
Q 3047 847 3047 1241 
Q 3047 1584 2836 1778 
Q 2625 1972 2144 2069 
L 1759 2144 
Q 1053 2284 737 2584 
Q 422 2884 422 3419 
Q 422 4038 858 4394 
Q 1294 4750 2059 4750 
Q 2388 4750 2728 4690 
Q 3069 4631 3425 4513 
z
" transform="scale(0.015625)"/>
       <path id="DejaVuSans-4d" d="M 628 4666 
L 1569 4666 
L 2759 1491 
L 3956 4666 
L 4897 4666 
L 4897 0 
L 4281 0 
L 4281 4097 
L 3078 897 
L 2444 897 
L 1241 4097 
L 1241 0 
L 628 0 
L 628 4666 
z
" transform="scale(0.015625)"/>
       <path id="DejaVuSans-66" d="M 2375 4863 
L 2375 4384 
L 1825 4384 
Q 1516 4384 1395 4259 
Q 1275 4134 1275 3809 
L 1275 3500 
L 2222 3500 
L 2222 3053 
L 1275 3053 
L 1275 0 
L 697 0 
L 697 3053 
L 147 3053 
L 147 3500 
L 697 3500 
L 697 3744 
Q 697 4328 969 4595 
Q 1241 4863 1831 4863 
L 2375 4863 
z
" transform="scale(0.015625)"/>
       <path id="DejaVuSans-62" d="M 3116 1747 
Q 3116 2381 2855 2742 
Q 2594 3103 2138 3103 
Q 1681 3103 1420 2742 
Q 1159 2381 1159 1747 
Q 1159 1113 1420 752 
Q 1681 391 2138 391 
Q 2594 391 2855 752 
Q 3116 1113 3116 1747 
z
M 1159 2969 
Q 1341 3281 1617 3432 
Q 1894 3584 2278 3584 
Q 2916 3584 3314 3078 
Q 3713 2572 3713 1747 
Q 3713 922 3314 415 
Q 2916 -91 2278 -91 
Q 1894 -91 1617 61 
Q 1341 213 1159 525 
L 1159 0 
L 581 0 
L 581 4863 
L 1159 4863 
L 1159 2969 
z
" transform="scale(0.015625)"/>
      </defs>
      <use xlink:href="#DejaVuSans-4e"/>
      <use xlink:href="#DejaVuSans-44" transform="translate(74.804688 0)"/>
      <use xlink:href="#DejaVuSans-34" transform="translate(151.806641 0)"/>
      <use xlink:href="#DejaVuSans-20" transform="translate(215.429688 0)"/>
      <use xlink:href="#DejaVuSans-2b" transform="translate(247.216797 0)"/>
      <use xlink:href="#DejaVuSans-20" transform="translate(331.005859 0)"/>
      <use xlink:href="#DejaVuSans-31" transform="translate(362.792969 0)"/>
      <use xlink:href="#DejaVuSans-30" transform="translate(426.416016 0)"/>
      <use xlink:href="#DejaVuSans-78" transform="translate(490.039062 0)"/>
      <use xlink:href="#DejaVuSans-20" transform="translate(549.21875 0)"/>
      <use xlink:href="#DejaVuSans-2b" transform="translate(581.005859 0)"/>
      <use xlink:href="#DejaVuSans-20" transform="translate(664.794922 0)"/>
      <use xlink:href="#DejaVuSans-53" transform="translate(696.582031 0)"/>
      <use xlink:href="#DejaVuSans-4d" transform="translate(760.058594 0)"/>
      <use xlink:href="#DejaVuSans-20" transform="translate(846.337891 0)"/>
      <use xlink:href="#DejaVuSans-66" transform="translate(878.125 0)"/>
      <use xlink:href="#DejaVuSans-69" transform="translate(913.330078 0)"/>
      <use xlink:href="#DejaVuSans-62" transform="translate(941.113281 0)"/>
      <use xlink:href="#DejaVuSans-65" transform="translate(1004.589844 0)"/>
      <use xlink:href="#DejaVuSans-72" transform="translate(1066.113281 0)"/>
     </g>
    </g>
    <g id="line2d_138">
     <path d="M 287.525 66.2 
L 303.525 66.2 
L 319.525 66.2 
" style="fill: none; stroke: #00b945; stroke-width: 2; stroke-linecap: square"/>
    </g>
    <g id="text_20">
     <!-- ND1 + 10x + SM fiber -->
     <g transform="translate(332.325 71.8) scale(0.16 -0.16)">
      <use xlink:href="#DejaVuSans-4e"/>
      <use xlink:href="#DejaVuSans-44" transform="translate(74.804688 0)"/>
      <use xlink:href="#DejaVuSans-31" transform="translate(151.806641 0)"/>
      <use xlink:href="#DejaVuSans-20" transform="translate(215.429688 0)"/>
      <use xlink:href="#DejaVuSans-2b" transform="translate(247.216797 0)"/>
      <use xlink:href="#DejaVuSans-20" transform="translate(331.005859 0)"/>
      <use xlink:href="#DejaVuSans-31" transform="translate(362.792969 0)"/>
      <use xlink:href="#DejaVuSans-30" transform="translate(426.416016 0)"/>
      <use xlink:href="#DejaVuSans-78" transform="translate(490.039062 0)"/>
      <use xlink:href="#DejaVuSans-20" transform="translate(549.21875 0)"/>
      <use xlink:href="#DejaVuSans-2b" transform="translate(581.005859 0)"/>
      <use xlink:href="#DejaVuSans-20" transform="translate(664.794922 0)"/>
      <use xlink:href="#DejaVuSans-53" transform="translate(696.582031 0)"/>
      <use xlink:href="#DejaVuSans-4d" transform="translate(760.058594 0)"/>
      <use xlink:href="#DejaVuSans-20" transform="translate(846.337891 0)"/>
      <use xlink:href="#DejaVuSans-66" transform="translate(878.125 0)"/>
      <use xlink:href="#DejaVuSans-69" transform="translate(913.330078 0)"/>
      <use xlink:href="#DejaVuSans-62" transform="translate(941.113281 0)"/>
      <use xlink:href="#DejaVuSans-65" transform="translate(1004.589844 0)"/>
      <use xlink:href="#DejaVuSans-72" transform="translate(1066.113281 0)"/>
     </g>
    </g>
   </g>
  </g>
 </g>
 <defs>
  <clipPath id="pf4e3fcc92e">
   <rect x="77.485" y="21.7575" width="446.4" height="332.64"/>
  </clipPath>
 </defs>
</svg>
